<ttFont>
<head>
    <!-- Most of this table will be recalculated by the compiler -->
    <tableVersion value="1.0"/>
    <fontRevision value="1.052"/>
    <checkSumAdjustment value="0x10e3cd20"/>
    <magicNumber value="0x5f0f3cf5"/>
    <flags value="00000000 00000001"/>
    <unitsPerEm value="1000"/>
    <created value="Sat Apr  9 12:31:12 2016"/>
    <modified value="Wed Jul 27 14:57:28 2016"/>
    <xMin value="-179"/>
    <yMin value="-333"/>
    <xMax value="1184"/>
    <yMax value="930"/>
    <macStyle value="00000000 00000000"/>
    <lowestRecPPEM value="6"/>
    <fontDirectionHint value="2"/>
    <indexToLocFormat value="0"/>
    <glyphDataFormat value="0"/>
  </head>
    <TTGlyph name=".notdef" xMin="50" yMin="0" xMax="450" yMax="660">
      <contour>
        <pt x="450" y="0" on="1"/>
        <pt x="50" y="0" on="1"/>
        <pt x="50" y="660" on="1"/>
        <pt x="450" y="660" on="1"/>
      </contour>
      <contour>
        <pt x="130" y="580" on="1"/>
        <pt x="130" y="80" on="1"/>
        <pt x="370" y="80" on="1"/>
        <pt x="370" y="580" on="1"/>
      </contour>
    </TTGlyph>
    <TTGlyph name="Hinferior" xMin="59" yMin="-189" xMax="384" yMax="208">
      <component glyphName="Hsuperior" x="0" y="-522" flags="0x4"/>
    </TTGlyph>
    <TTGlyph name="Hsuperior" xMin="59" yMin="333" xMax="384" yMax="730">
      <contour>
        <pt x="339" y="333" on="1"/>
        <pt x="339" y="517" on="1"/>
        <pt x="105" y="517" on="1"/>
        <pt x="105" y="333" on="1"/>
        <pt x="59" y="333" on="1"/>
        <pt x="59" y="730" on="1"/>
        <pt x="105" y="730" on="1"/>
        <pt x="105" y="555" on="1"/>
        <pt x="339" y="555" on="1"/>
        <pt x="339" y="730" on="1"/>
        <pt x="384" y="730" on="1"/>
        <pt x="384" y="333" on="1"/>
      </contour>
    </TTGlyph>
    <TTGlyph name="Iacute_J.loclNLD" xMin="104" yMin="-10" xMax="775" yMax="897">
      <component glyphName="uni0049" x="0" y="0" flags="0x4"/>
      <component glyphName="uni0301.cap" x="134" y="0" flags="0x4"/>
      <component glyphName="uni004A" x="258" y="0" flags="0x4"/>
      <component glyphName="uni0301.cap" x="675" y="0" flags="0x4"/>
    </TTGlyph>
    <TTGlyph name="Iacute_J.loclNLD.ss05" xMin="85" yMin="-10" xMax="579" yMax="897">
      <component glyphName="uni0301.cap" x="479" y="0" flags="0x4"/>
      <component glyphName="uni0301.cap" x="121" y="0" flags="0x4"/>
      <component glyphName="uni0132.ss05" x="-7" y="0" flags="0x4"/>
    </TTGlyph>
    <TTGlyph name="Oinferior" xMin="36" yMin="-195" xMax="414" yMax="213">
      <component glyphName="Osuperior" x="0" y="-522" flags="0x4"/>
    </TTGlyph>
    <TTGlyph name="Osuperior" xMin="36" yMin="327" xMax="414" yMax="735">
      <contour>
        <pt x="36" y="531" on="1"/>
        <pt x="36" y="626" on="0"/>
        <pt x="137" y="735" on="0"/>
        <pt x="225" y="735" on="1"/>
        <pt x="313" y="735" on="0"/>
        <pt x="414" y="626" on="0"/>
        <pt x="414" y="531" on="1"/>
        <pt x="414" y="437" on="0"/>
        <pt x="313" y="327" on="0"/>
        <pt x="225" y="327" on="1"/>
        <pt x="137" y="327" on="0"/>
        <pt x="36" y="437" on="0"/>
      </contour>
      <contour>
        <pt x="369" y="531" on="1"/>
        <pt x="369" y="609" on="0"/>
        <pt x="291" y="698" on="0"/>
        <pt x="225" y="698" on="1"/>
        <pt x="159" y="698" on="0"/>
        <pt x="81" y="609" on="0"/>
        <pt x="81" y="531" on="1"/>
        <pt x="81" y="453" on="0"/>
        <pt x="159" y="364" on="0"/>
        <pt x="225" y="364" on="1"/>
        <pt x="291" y="364" on="0"/>
        <pt x="369" y="453" on="0"/>
      </contour>
    </TTGlyph>
    <TTGlyph name="__swash_topleft" xMin="66" yMin="325" xMax="489" yMax="660">
      <contour>
        <pt x="229" y="364" on="1"/>
        <pt x="208" y="325" on="1"/>
        <pt x="148" y="336" on="0"/>
        <pt x="66" y="421" on="0"/>
        <pt x="66" y="491" on="1"/>
        <pt x="66" y="573" on="0"/>
        <pt x="168" y="660" on="0"/>
        <pt x="258" y="660" on="1"/>
        <pt x="489" y="660" on="1"/>
        <pt x="489" y="619" on="1"/>
        <pt x="269" y="619" on="1"/>
        <pt x="197" y="619" on="0"/>
        <pt x="116" y="557" on="0"/>
        <pt x="116" y="490" on="1"/>
        <pt x="116" y="438" on="0"/>
        <pt x="178" y="374" on="0"/>
      </contour>
    </TTGlyph>
    <TTGlyph name="bracketleftinferior" xMin="69" yMin="-269" xMax="193" yMax="288">
      <component glyphName="bracketleftsuperior" x="0" y="-522" flags="0x4"/>
    </TTGlyph>
    <TTGlyph name="bracketleftsuperior" xMin="69" yMin="253" xMax="193" yMax="810">
      <contour>
        <pt x="69" y="253" on="1"/>
        <pt x="69" y="810" on="1"/>
        <pt x="193" y="810" on="1"/>
        <pt x="193" y="775" on="1"/>
        <pt x="109" y="775" on="1"/>
        <pt x="109" y="288" on="1"/>
        <pt x="193" y="288" on="1"/>
        <pt x="193" y="253" on="1"/>
      </contour>
    </TTGlyph>
    <TTGlyph name="bracketrightinferior" xMin="1" yMin="-269" xMax="125" yMax="288">
      <component glyphName="bracketrightsuperior" x="0" y="-522" flags="0x4"/>
    </TTGlyph>
    <TTGlyph name="bracketrightsuperior" xMin="1" yMin="253" xMax="125" yMax="810">
      <component glyphName="bracketleftsuperior" x="194" y="0" scalex="-1.0" scaley="1.0" flags="0x4"/>
    </TTGlyph>
    <TTGlyph name="coloninferior" xMin="47" yMin="-194" xMax="112" yMax="147">
      <component glyphName="colonsuperior" x="0" y="-522" flags="0x4"/>
    </TTGlyph>
    <TTGlyph name="colonsuperior" xMin="47" yMin="328" xMax="112" yMax="669">
      <component glyphName="periodsuperior" x="0" y="0" flags="0x4"/>
      <component glyphName="periodsuperior" x="0" y="275" flags="0x4"/>
    </TTGlyph>
    <TTGlyph name="commainferior" xMin="44" yMin="-277" xMax="123" yMax="-128">
      <component glyphName="commasuperior" x="0" y="-522" flags="0x4"/>
    </TTGlyph>
    <TTGlyph name="commasuperior" xMin="44" yMin="245" xMax="123" yMax="394">
      <contour>
        <pt x="47" y="362" on="1"/>
        <pt x="47" y="394" on="0"/>
        <pt x="80" y="394" on="1"/>
        <pt x="123" y="394" on="0"/>
        <pt x="123" y="340" on="1"/>
        <pt x="123" y="312" on="0"/>
        <pt x="94" y="260" on="0"/>
        <pt x="65" y="245" on="1"/>
        <pt x="44" y="264" on="1"/>
        <pt x="66" y="273" on="0"/>
        <pt x="95" y="315" on="0"/>
        <pt x="93" y="333" on="1"/>
        <pt x="91" y="333" on="1"/>
        <pt x="89" y="328" on="0"/>
        <pt x="78" y="328" on="1"/>
        <pt x="47" y="328" on="0"/>
      </contour>
    </TTGlyph>
    <TTGlyph name="daggerdblsuperior" xMin="34" yMin="262" xMax="373" yMax="730">
      <contour>
        <pt x="373" y="401" on="1"/>
        <pt x="223" y="401" on="1"/>
        <pt x="223" y="262" on="1"/>
        <pt x="180" y="262" on="1"/>
        <pt x="180" y="401" on="1"/>
        <pt x="34" y="401" on="1"/>
        <pt x="34" y="438" on="1"/>
        <pt x="180" y="438" on="1"/>
        <pt x="180" y="554" on="1"/>
        <pt x="34" y="554" on="1"/>
        <pt x="34" y="591" on="1"/>
        <pt x="180" y="591" on="1"/>
        <pt x="180" y="730" on="1"/>
        <pt x="223" y="730" on="1"/>
        <pt x="223" y="591" on="1"/>
        <pt x="373" y="591" on="1"/>
        <pt x="373" y="554" on="1"/>
        <pt x="223" y="554" on="1"/>
        <pt x="223" y="438" on="1"/>
        <pt x="373" y="438" on="1"/>
      </contour>
    </TTGlyph>
    <TTGlyph name="daggersuperior" xMin="34" yMin="262" xMax="373" yMax="730">
      <contour>
        <pt x="373" y="554" on="1"/>
        <pt x="223" y="554" on="1"/>
        <pt x="223" y="262" on="1"/>
        <pt x="180" y="262" on="1"/>
        <pt x="180" y="554" on="1"/>
        <pt x="34" y="554" on="1"/>
        <pt x="34" y="591" on="1"/>
        <pt x="180" y="591" on="1"/>
        <pt x="180" y="730" on="1"/>
        <pt x="223" y="730" on="1"/>
        <pt x="223" y="591" on="1"/>
        <pt x="373" y="591" on="1"/>
      </contour>
    </TTGlyph>
    <TTGlyph name="emdashinferior" xMin="49" yMin="-7" xMax="581" yMax="25">
      <component glyphName="emdashsuperior" x="0" y="-522" flags="0x4"/>
    </TTGlyph>
    <TTGlyph name="emdashsuperior" xMin="49" yMin="515" xMax="581" yMax="547">
      <contour>
        <pt x="49" y="547" on="1"/>
        <pt x="581" y="547" on="1"/>
        <pt x="581" y="515" on="1"/>
        <pt x="49" y="515" on="1"/>
      </contour>
    </TTGlyph>
    <TTGlyph name="endashinferior" xMin="49" yMin="-7" xMax="362" yMax="25">
      <component glyphName="endashsuperior" x="0" y="-522" flags="0x4"/>
    </TTGlyph>
    <TTGlyph name="endashsuperior" xMin="49" yMin="515" xMax="362" yMax="547">
      <contour>
        <pt x="49" y="547" on="1"/>
        <pt x="362" y="547" on="1"/>
        <pt x="362" y="515" on="1"/>
        <pt x="49" y="515" on="1"/>
      </contour>
    </TTGlyph>
    <TTGlyph name="f_t.liga" xMin="23" yMin="-10" xMax="679" yMax="735">
      <contour>
        <pt x="679" y="32" on="1"/>
        <pt x="635" y="-10" on="0"/>
        <pt x="565" y="-10" on="1"/>
        <pt x="507" y="-10" on="0"/>
        <pt x="436" y="55" on="0"/>
        <pt x="435" y="125" on="1"/>
        <pt x="435" y="457" on="1"/>
        <pt x="173" y="457" on="1"/>
        <pt x="173" y="0" on="1"/>
        <pt x="123" y="0" on="1"/>
        <pt x="123" y="457" on="1"/>
        <pt x="23" y="457" on="1"/>
        <pt x="23" y="500" on="1"/>
        <pt x="123" y="500" on="1"/>
        <pt x="123" y="584" on="1"/>
        <pt x="123" y="652" on="0"/>
        <pt x="199" y="735" on="0"/>
        <pt x="272" y="735" on="1"/>
        <pt x="326" y="735" on="0"/>
        <pt x="353" y="708" on="1"/>
        <pt x="339" y="668" on="1"/>
        <pt x="314" y="690" on="0"/>
        <pt x="276" y="690" on="1"/>
        <pt x="173" y="690" on="0"/>
        <pt x="173" y="579" on="1"/>
        <pt x="173" y="500" on="1"/>
        <pt x="435" y="500" on="1"/>
        <pt x="435" y="625" on="1"/>
        <pt x="485" y="639" on="1"/>
        <pt x="485" y="500" on="1"/>
        <pt x="674" y="500" on="1"/>
        <pt x="674" y="457" on="1"/>
        <pt x="485" y="457" on="1"/>
        <pt x="485" y="132" on="1"/>
        <pt x="485" y="36" on="0"/>
        <pt x="574" y="36" on="1"/>
        <pt x="625" y="36" on="0"/>
        <pt x="660" y="73" on="1"/>
      </contour>
    </TTGlyph>
    <TTGlyph name="g.ss01_j.liga" xMin="57" yMin="-215" xMax="765" yMax="681">
      <contour>
        <pt x="681" y="639" on="1"/>
        <pt x="681" y="681" on="0"/>
        <pt x="723" y="681" on="1"/>
        <pt x="765" y="681" on="0"/>
        <pt x="765" y="639" on="1"/>
        <pt x="765" y="597" on="0"/>
        <pt x="723" y="597" on="1"/>
        <pt x="706" y="597" on="0"/>
        <pt x="681" y="622" on="0"/>
      </contour>
      <contour>
        <pt x="292" y="39" on="1"/>
        <pt x="372" y="39" on="0"/>
        <pt x="469" y="151" on="0"/>
        <pt x="469" y="248" on="1"/>
        <pt x="469" y="260" on="1"/>
        <pt x="468" y="356" on="0"/>
        <pt x="371" y="466" on="0"/>
        <pt x="292" y="466" on="1"/>
        <pt x="205" y="466" on="0"/>
        <pt x="107" y="352" on="0"/>
        <pt x="107" y="253" on="1"/>
        <pt x="107" y="153" on="0"/>
        <pt x="205" y="39" on="0"/>
      </contour>
      <contour>
        <pt x="277" y="-215" on="1"/>
        <pt x="198" y="-215" on="0"/>
        <pt x="86" y="-153" on="0"/>
        <pt x="73" y="-91" on="1"/>
        <pt x="121" y="-70" on="1"/>
        <pt x="140" y="-171" on="0"/>
        <pt x="284" y="-171" on="1"/>
        <pt x="369" y="-171" on="0"/>
        <pt x="469" y="-71" on="0"/>
        <pt x="469" y="14" on="1"/>
        <pt x="469" y="103" on="1"/>
        <pt x="418" y="-5" on="0"/>
        <pt x="285" y="-5" on="1"/>
        <pt x="179" y="-5" on="0"/>
        <pt x="57" y="132" on="0"/>
        <pt x="57" y="253" on="1"/>
        <pt x="57" y="374" on="0"/>
        <pt x="179" y="510" on="0"/>
        <pt x="285" y="510" on="1"/>
        <pt x="352" y="510" on="0"/>
        <pt x="449" y="449" on="0"/>
        <pt x="471" y="397" on="1"/>
        <pt x="477" y="500" on="1"/>
        <pt x="520" y="500" on="1"/>
        <pt x="520" y="25" on="1"/>
        <pt x="520" y="-215" on="0"/>
      </contour>
      <contour>
        <pt x="698" y="500" on="1"/>
        <pt x="748" y="500" on="1"/>
        <pt x="748" y="-57" on="1"/>
        <pt x="748" y="-140" on="0"/>
        <pt x="661" y="-215" on="0"/>
        <pt x="606" y="-215" on="1"/>
        <pt x="552" y="-215" on="0"/>
        <pt x="519" y="-187" on="1"/>
        <pt x="531" y="-140" on="1"/>
        <pt x="560" y="-167" on="0"/>
        <pt x="605" y="-167" on="1"/>
        <pt x="647" y="-167" on="0"/>
        <pt x="698" y="-110" on="0"/>
        <pt x="698" y="-53" on="1"/>
      </contour>
    </TTGlyph>
    <TTGlyph name="g_j.liga" xMin="35" yMin="-215" xMax="701" yMax="681">
      <contour>
        <pt x="617" y="639" on="1"/>
        <pt x="617" y="681" on="0"/>
        <pt x="659" y="681" on="1"/>
        <pt x="701" y="681" on="0"/>
        <pt x="701" y="639" on="1"/>
        <pt x="701" y="597" on="0"/>
        <pt x="659" y="597" on="1"/>
        <pt x="617" y="597" on="0"/>
      </contour>
      <contour>
        <pt x="417" y="347" on="1"/>
        <pt x="417" y="403" on="0"/>
        <pt x="336" y="468" on="0"/>
        <pt x="265" y="468" on="1"/>
        <pt x="195" y="468" on="0"/>
        <pt x="112" y="403" on="0"/>
        <pt x="112" y="347" on="1"/>
        <pt x="112" y="291" on="0"/>
        <pt x="195" y="225" on="0"/>
        <pt x="265" y="225" on="1"/>
        <pt x="336" y="225" on="0"/>
        <pt x="417" y="291" on="0"/>
      </contour>
      <contour>
        <pt x="506" y="-63" on="1"/>
        <pt x="506" y="-132" on="0"/>
        <pt x="372" y="-215" on="0"/>
        <pt x="268" y="-215" on="1"/>
        <pt x="152" y="-215" on="0"/>
        <pt x="35" y="-140" on="0"/>
        <pt x="35" y="-82" on="1"/>
        <pt x="35" y="-1" on="0"/>
        <pt x="125" y="25" on="1"/>
        <pt x="96" y="38" on="0"/>
        <pt x="60" y="82" on="0"/>
        <pt x="60" y="112" on="1"/>
        <pt x="60" y="149" on="0"/>
        <pt x="109" y="199" on="0"/>
        <pt x="147" y="209" on="1"/>
        <pt x="62" y="253" on="0"/>
        <pt x="62" y="347" on="1"/>
        <pt x="62" y="421" on="0"/>
        <pt x="173" y="510" on="0"/>
        <pt x="265" y="510" on="1"/>
        <pt x="329" y="510" on="0"/>
        <pt x="377" y="487" on="1"/>
        <pt x="384" y="536" on="0"/>
        <pt x="452" y="592" on="0"/>
        <pt x="503" y="592" on="1"/>
        <pt x="515" y="548" on="1"/>
        <pt x="418" y="548" on="0"/>
        <pt x="410" y="467" on="1"/>
        <pt x="467" y="422" on="0"/>
        <pt x="467" y="347" on="1"/>
        <pt x="467" y="273" on="0"/>
        <pt x="357" y="183" on="0"/>
        <pt x="265" y="183" on="1"/>
        <pt x="229" y="183" on="0"/>
        <pt x="197" y="190" on="1"/>
        <pt x="108" y="179" on="0"/>
        <pt x="108" y="119" on="1"/>
        <pt x="108" y="51" on="0"/>
        <pt x="216" y="51" on="1"/>
        <pt x="345" y="51" on="1"/>
        <pt x="421" y="51" on="0"/>
        <pt x="506" y="-11" on="0"/>
      </contour>
      <contour>
        <pt x="273" y="-173" on="1"/>
        <pt x="359" y="-173" on="0"/>
        <pt x="461" y="-113" on="0"/>
        <pt x="461" y="-69" on="1"/>
        <pt x="461" y="8" on="0"/>
        <pt x="334" y="8" on="1"/>
        <pt x="205" y="8" on="1"/>
        <pt x="148" y="8" on="0"/>
        <pt x="81" y="-37" on="0"/>
        <pt x="81" y="-74" on="1"/>
        <pt x="81" y="-119" on="0"/>
        <pt x="179" y="-173" on="0"/>
      </contour>
      <contour>
        <pt x="634" y="500" on="1"/>
        <pt x="684" y="500" on="1"/>
        <pt x="684" y="-71" on="1"/>
        <pt x="684" y="-151" on="0"/>
        <pt x="624" y="-215" on="0"/>
        <pt x="577" y="-215" on="1"/>
        <pt x="540" y="-215" on="0"/>
        <pt x="516" y="-201" on="1"/>
        <pt x="526" y="-154" on="1"/>
        <pt x="544" y="-167" on="0"/>
        <pt x="577" y="-167" on="1"/>
        <pt x="634" y="-167" on="0"/>
        <pt x="634" y="-67" on="1"/>
      </contour>
    </TTGlyph>
    <TTGlyph name="hypheninferior" xMin="48" yMin="-7" xMax="235" yMax="25">
      <component glyphName="hyphensuperior" x="0" y="-522" flags="0x4"/>
    </TTGlyph>
    <TTGlyph name="hyphensuperior" xMin="48" yMin="515" xMax="235" yMax="547">
      <contour>
        <pt x="48" y="547" on="1"/>
        <pt x="235" y="547" on="1"/>
        <pt x="235" y="515" on="1"/>
        <pt x="48" y="515" on="1"/>
      </contour>
    </TTGlyph>
    <TTGlyph name="iacute_j.loclNLD" xMin="89" yMin="-215" xMax="452" yMax="741">
      <contour>
        <pt x="318" y="500" on="1"/>
        <pt x="368" y="500" on="1"/>
        <pt x="368" y="-57" on="1"/>
        <pt x="368" y="-140" on="0"/>
        <pt x="281" y="-215" on="0"/>
        <pt x="225" y="-215" on="1"/>
        <pt x="170" y="-215" on="0"/>
        <pt x="139" y="-187" on="1"/>
        <pt x="150" y="-140" on="1"/>
        <pt x="180" y="-167" on="0"/>
        <pt x="225" y="-167" on="1"/>
        <pt x="266" y="-167" on="0"/>
        <pt x="318" y="-110" on="0"/>
        <pt x="318" y="-53" on="1"/>
      </contour>
      <contour>
        <pt x="89" y="500" on="1"/>
        <pt x="139" y="500" on="1"/>
        <pt x="139" y="0" on="1"/>
        <pt x="89" y="0" on="1"/>
      </contour>
      <contour>
        <pt x="452" y="741" on="1"/>
        <pt x="398" y="741" on="1"/>
        <pt x="317" y="583" on="1"/>
        <pt x="359" y="583" on="1"/>
      </contour>
      <contour>
        <pt x="224" y="741" on="1"/>
        <pt x="170" y="741" on="1"/>
        <pt x="89" y="583" on="1"/>
        <pt x="131" y="583" on="1"/>
      </contour>
    </TTGlyph>
    <TTGlyph name="iacute_j.loclNLD.sc" xMin="92" yMin="-8" xMax="707" yMax="797">
      <component glyphName="uni0069.sc" x="0" y="0" flags="0x4"/>
      <component glyphName="uni006A.sc" x="234" y="0" flags="0x4"/>
      <component glyphName="uni0301.cap" x="607" y="-100" flags="0x4"/>
      <component glyphName="uni0301.cap" x="122" y="-100" flags="0x4"/>
    </TTGlyph>
    <TTGlyph name="iacute_j.loclNLD.sc.ss05" xMin="74" yMin="-8" xMax="530" yMax="797">
      <component glyphName="uni0133.sc.ss05" x="0" y="0" flags="0x4"/>
      <component glyphName="uni0301.cap" x="116" y="-100" flags="0x4"/>
      <component glyphName="uni0301.cap" x="430" y="-100" flags="0x4"/>
    </TTGlyph>
    <TTGlyph name="idotaccent" xMin="72" yMin="0" xMax="156" yMax="681">
      <component glyphName="uni0069" x="0" y="0" flags="0x4"/>
    </TTGlyph>
    <TTGlyph name="idotaccent.sc" xMin="75" yMin="0" xMax="159" yMax="707">
      <component glyphName="uni0069.sc" x="0" y="0" flags="0x4"/>
      <component glyphName="uni02D9" x="-145" y="26" flags="0x4"/>
    </TTGlyph>
    <TTGlyph name="indexring" xMin="86" yMin="-40" xMax="824" yMax="700">
      <contour>
        <pt x="824" y="330" on="1"/>
        <pt x="824" y="167" on="0"/>
        <pt x="619" y="-40" on="0"/>
        <pt x="455" y="-40" on="1"/>
        <pt x="292" y="-40" on="0"/>
        <pt x="86" y="167" on="0"/>
        <pt x="86" y="330" on="1"/>
        <pt x="86" y="494" on="0"/>
        <pt x="292" y="700" on="0"/>
        <pt x="455" y="700" on="1"/>
        <pt x="619" y="700" on="0"/>
        <pt x="824" y="494" on="0"/>
      </contour>
      <contour>
        <pt x="128" y="330" on="1"/>
        <pt x="128" y="184" on="0"/>
        <pt x="311" y="-2" on="0"/>
        <pt x="455" y="-2" on="1"/>
        <pt x="599" y="-2" on="0"/>
        <pt x="782" y="184" on="0"/>
        <pt x="782" y="330" on="1"/>
        <pt x="782" y="476" on="0"/>
        <pt x="599" y="662" on="0"/>
        <pt x="455" y="662" on="1"/>
        <pt x="311" y="662" on="0"/>
        <pt x="128" y="476" on="0"/>
      </contour>
    </TTGlyph>
    <TTGlyph name="j_j.liga" xMin="-90" yMin="-215" xMax="385" yMax="681">
      <contour>
        <pt x="301" y="639" on="1"/>
        <pt x="301" y="681" on="0"/>
        <pt x="343" y="681" on="1"/>
        <pt x="385" y="681" on="0"/>
        <pt x="385" y="639" on="1"/>
        <pt x="385" y="622" on="0"/>
        <pt x="360" y="597" on="0"/>
        <pt x="343" y="597" on="1"/>
        <pt x="301" y="597" on="0"/>
      </contour>
      <contour>
        <pt x="72" y="639" on="1"/>
        <pt x="72" y="681" on="0"/>
        <pt x="114" y="681" on="1"/>
        <pt x="156" y="681" on="0"/>
        <pt x="156" y="639" on="1"/>
        <pt x="156" y="597" on="0"/>
        <pt x="114" y="597" on="1"/>
        <pt x="97" y="597" on="0"/>
        <pt x="72" y="622" on="0"/>
      </contour>
      <contour>
        <pt x="318" y="500" on="1"/>
        <pt x="368" y="500" on="1"/>
        <pt x="368" y="-57" on="1"/>
        <pt x="368" y="-140" on="0"/>
        <pt x="281" y="-215" on="0"/>
        <pt x="225" y="-215" on="1"/>
        <pt x="170" y="-215" on="0"/>
        <pt x="139" y="-187" on="1"/>
        <pt x="150" y="-140" on="1"/>
        <pt x="180" y="-167" on="0"/>
        <pt x="225" y="-167" on="1"/>
        <pt x="266" y="-167" on="0"/>
        <pt x="318" y="-110" on="0"/>
        <pt x="318" y="-53" on="1"/>
      </contour>
      <contour>
        <pt x="89" y="500" on="1"/>
        <pt x="139" y="500" on="1"/>
        <pt x="139" y="-57" on="1"/>
        <pt x="139" y="-140" on="0"/>
        <pt x="52" y="-215" on="0"/>
        <pt x="-3" y="-215" on="1"/>
        <pt x="-57" y="-215" on="0"/>
        <pt x="-90" y="-187" on="1"/>
        <pt x="-78" y="-140" on="1"/>
        <pt x="-49" y="-167" on="0"/>
        <pt x="-4" y="-167" on="1"/>
        <pt x="38" y="-167" on="0"/>
        <pt x="89" y="-110" on="0"/>
        <pt x="89" y="-53" on="1"/>
      </contour>
    </TTGlyph>
    <TTGlyph name="periodinferior" xMin="47" yMin="-194" xMax="112" yMax="-128">
      <component glyphName="periodsuperior" x="0" y="-522" flags="0x4"/>
    </TTGlyph>
    <TTGlyph name="periodsuperior" xMin="47" yMin="328" xMax="112" yMax="394">
      <contour>
        <pt x="47" y="361" on="1"/>
        <pt x="47" y="394" on="0"/>
        <pt x="79" y="394" on="1"/>
        <pt x="112" y="394" on="0"/>
        <pt x="112" y="361" on="1"/>
        <pt x="112" y="328" on="0"/>
        <pt x="79" y="328" on="1"/>
        <pt x="47" y="328" on="0"/>
      </contour>
    </TTGlyph>
    <TTGlyph name="registeredsuperior" xMin="23" yMin="188" xMax="509" yMax="670">
      <contour>
        <pt x="509" y="429" on="1"/>
        <pt x="509" y="323" on="0"/>
        <pt x="372" y="188" on="0"/>
        <pt x="265" y="188" on="1"/>
        <pt x="159" y="188" on="0"/>
        <pt x="23" y="323" on="0"/>
        <pt x="23" y="429" on="1"/>
        <pt x="23" y="535" on="0"/>
        <pt x="159" y="670" on="0"/>
        <pt x="265" y="670" on="1"/>
        <pt x="372" y="670" on="0"/>
        <pt x="509" y="535" on="0"/>
      </contour>
      <contour>
        <pt x="64" y="429" on="1"/>
        <pt x="64" y="341" on="0"/>
        <pt x="177" y="227" on="0"/>
        <pt x="265" y="227" on="1"/>
        <pt x="354" y="227" on="0"/>
        <pt x="467" y="341" on="0"/>
        <pt x="467" y="429" on="1"/>
        <pt x="467" y="518" on="0"/>
        <pt x="354" y="632" on="0"/>
        <pt x="265" y="632" on="1"/>
        <pt x="177" y="632" on="0"/>
        <pt x="64" y="518" on="0"/>
      </contour>
      <contour>
        <pt x="282" y="525" on="1"/>
        <pt x="214" y="525" on="1"/>
        <pt x="214" y="431" on="1"/>
        <pt x="282" y="431" on="1"/>
        <pt x="337" y="431" on="0"/>
        <pt x="337" y="479" on="1"/>
        <pt x="337" y="525" on="0"/>
      </contour>
      <contour>
        <pt x="337" y="301" on="1"/>
        <pt x="273" y="403" on="1"/>
        <pt x="214" y="403" on="1"/>
        <pt x="214" y="301" on="1"/>
        <pt x="175" y="301" on="1"/>
        <pt x="175" y="557" on="1"/>
        <pt x="286" y="557" on="1"/>
        <pt x="376" y="557" on="0"/>
        <pt x="376" y="479" on="1"/>
        <pt x="376" y="419" on="0"/>
        <pt x="313" y="406" on="1"/>
        <pt x="382" y="301" on="1"/>
      </contour>
    </TTGlyph>
    <TTGlyph name="t_t.liga" xMin="22" yMin="-10" xMax="708" yMax="639">
      <contour>
        <pt x="708" y="32" on="1"/>
        <pt x="664" y="-10" on="0"/>
        <pt x="595" y="-10" on="1"/>
        <pt x="537" y="-10" on="0"/>
        <pt x="465" y="55" on="0"/>
        <pt x="464" y="125" on="1"/>
        <pt x="464" y="457" on="1"/>
        <pt x="364" y="457" on="1"/>
        <pt x="364" y="500" on="1"/>
        <pt x="464" y="500" on="1"/>
        <pt x="464" y="625" on="1"/>
        <pt x="514" y="639" on="1"/>
        <pt x="514" y="500" on="1"/>
        <pt x="703" y="500" on="1"/>
        <pt x="703" y="457" on="1"/>
        <pt x="514" y="457" on="1"/>
        <pt x="514" y="132" on="1"/>
        <pt x="514" y="36" on="0"/>
        <pt x="603" y="36" on="1"/>
        <pt x="654" y="36" on="0"/>
        <pt x="689" y="73" on="1"/>
      </contour>
      <contour>
        <pt x="365" y="32" on="1"/>
        <pt x="321" y="-10" on="0"/>
        <pt x="252" y="-10" on="1"/>
        <pt x="194" y="-10" on="0"/>
        <pt x="122" y="55" on="0"/>
        <pt x="122" y="125" on="1"/>
        <pt x="122" y="457" on="1"/>
        <pt x="22" y="457" on="1"/>
        <pt x="22" y="500" on="1"/>
        <pt x="122" y="500" on="1"/>
        <pt x="122" y="625" on="1"/>
        <pt x="172" y="639" on="1"/>
        <pt x="172" y="500" on="1"/>
        <pt x="360" y="500" on="1"/>
        <pt x="360" y="457" on="1"/>
        <pt x="172" y="457" on="1"/>
        <pt x="172" y="132" on="1"/>
        <pt x="172" y="36" on="0"/>
        <pt x="260" y="36" on="1"/>
        <pt x="310" y="36" on="0"/>
        <pt x="347" y="73" on="1"/>
      </contour>
    </TTGlyph>
    <TTGlyph name="uni0021" xMin="70" yMin="-8" xMax="160" yMax="660">
      <contour>
        <pt x="89" y="660" on="1"/>
        <pt x="141" y="660" on="1"/>
        <pt x="141" y="340" on="1"/>
        <pt x="135" y="190" on="1"/>
        <pt x="95" y="190" on="1"/>
        <pt x="89" y="340" on="1"/>
      </contour>
      <contour>
        <pt x="70" y="37" on="1"/>
        <pt x="70" y="82" on="0"/>
        <pt x="115" y="82" on="1"/>
        <pt x="160" y="82" on="0"/>
        <pt x="160" y="37" on="1"/>
        <pt x="160" y="-8" on="0"/>
        <pt x="115" y="-8" on="1"/>
        <pt x="70" y="-8" on="0"/>
      </contour>
    </TTGlyph>
    <TTGlyph name="uni0021.sc" xMin="62" yMin="-8" xMax="149" yMax="560">
      <contour>
        <pt x="79" y="560" on="1"/>
        <pt x="131" y="560" on="1"/>
        <pt x="131" y="294" on="1"/>
        <pt x="125" y="160" on="1"/>
        <pt x="85" y="160" on="1"/>
        <pt x="79" y="294" on="1"/>
      </contour>
      <contour>
        <pt x="62" y="35" on="1"/>
        <pt x="62" y="79" on="0"/>
        <pt x="105" y="79" on="1"/>
        <pt x="149" y="79" on="0"/>
        <pt x="149" y="35" on="1"/>
        <pt x="149" y="-8" on="0"/>
        <pt x="105" y="-8" on="1"/>
        <pt x="62" y="-8" on="0"/>
      </contour>
    </TTGlyph>
    <TTGlyph name="uni0022" xMin="75" yMin="480" xMax="262" yMax="685">
      <component glyphName="uni0027" x="133" y="0" flags="0x4"/>
      <component glyphName="uni0027" x="0" y="0" flags="0x4"/>
    </TTGlyph>
    <TTGlyph name="uni0022.sc" xMin="75" yMin="376" xMax="262" yMax="582">
      <component glyphName="uni0027.sc" x="133" y="0" flags="0x4"/>
      <component glyphName="uni0027.sc" x="0" y="0" flags="0x4"/>
    </TTGlyph>
    <TTGlyph name="uni0023" xMin="31" yMin="0" xMax="605" yMax="660">
      <contour>
        <pt x="392" y="238" on="1"/>
        <pt x="422" y="429" on="1"/>
        <pt x="242" y="429" on="1"/>
        <pt x="212" y="238" on="1"/>
      </contour>
      <contour>
        <pt x="354" y="0" on="1"/>
        <pt x="386" y="199" on="1"/>
        <pt x="206" y="199" on="1"/>
        <pt x="174" y="0" on="1"/>
        <pt x="130" y="0" on="1"/>
        <pt x="162" y="199" on="1"/>
        <pt x="31" y="199" on="1"/>
        <pt x="31" y="238" on="1"/>
        <pt x="168" y="238" on="1"/>
        <pt x="198" y="429" on="1"/>
        <pt x="68" y="429" on="1"/>
        <pt x="68" y="468" on="1"/>
        <pt x="204" y="468" on="1"/>
        <pt x="235" y="660" on="1"/>
        <pt x="279" y="660" on="1"/>
        <pt x="248" y="468" on="1"/>
        <pt x="428" y="468" on="1"/>
        <pt x="459" y="660" on="1"/>
        <pt x="503" y="660" on="1"/>
        <pt x="472" y="468" on="1"/>
        <pt x="605" y="468" on="1"/>
        <pt x="605" y="429" on="1"/>
        <pt x="466" y="429" on="1"/>
        <pt x="436" y="238" on="1"/>
        <pt x="568" y="238" on="1"/>
        <pt x="568" y="199" on="1"/>
        <pt x="430" y="199" on="1"/>
        <pt x="398" y="0" on="1"/>
      </contour>
    </TTGlyph>
    <TTGlyph name="uni0023.tf" xMin="28" yMin="0" xMax="576" yMax="660">
      <contour>
        <pt x="375" y="238" on="1"/>
        <pt x="403" y="429" on="1"/>
        <pt x="234" y="429" on="1"/>
        <pt x="205" y="238" on="1"/>
      </contour>
      <contour>
        <pt x="339" y="0" on="1"/>
        <pt x="369" y="199" on="1"/>
        <pt x="199" y="199" on="1"/>
        <pt x="169" y="0" on="1"/>
        <pt x="125" y="0" on="1"/>
        <pt x="155" y="199" on="1"/>
        <pt x="28" y="199" on="1"/>
        <pt x="28" y="238" on="1"/>
        <pt x="161" y="238" on="1"/>
        <pt x="189" y="429" on="1"/>
        <pt x="69" y="429" on="1"/>
        <pt x="69" y="468" on="1"/>
        <pt x="195" y="468" on="1"/>
        <pt x="224" y="660" on="1"/>
        <pt x="269" y="660" on="1"/>
        <pt x="240" y="468" on="1"/>
        <pt x="409" y="468" on="1"/>
        <pt x="438" y="660" on="1"/>
        <pt x="483" y="660" on="1"/>
        <pt x="454" y="468" on="1"/>
        <pt x="576" y="468" on="1"/>
        <pt x="576" y="429" on="1"/>
        <pt x="448" y="429" on="1"/>
        <pt x="419" y="238" on="1"/>
        <pt x="535" y="238" on="1"/>
        <pt x="535" y="199" on="1"/>
        <pt x="413" y="199" on="1"/>
        <pt x="383" y="0" on="1"/>
      </contour>
    </TTGlyph>
    <TTGlyph name="uni0024" xMin="52" yMin="-100" xMax="540" yMax="760">
      <contour>
        <pt x="120" y="481" on="1"/>
        <pt x="120" y="417" on="0"/>
        <pt x="220" y="367" on="0"/>
        <pt x="285" y="353" on="1"/>
        <pt x="285" y="617" on="1"/>
        <pt x="206" y="614" on="0"/>
        <pt x="120" y="539" on="0"/>
      </contour>
      <contour>
        <pt x="328" y="300" on="1"/>
        <pt x="328" y="42" on="1"/>
        <pt x="399" y="45" on="0"/>
        <pt x="493" y="110" on="0"/>
        <pt x="493" y="171" on="1"/>
        <pt x="493" y="236" on="0"/>
        <pt x="393" y="286" on="0"/>
      </contour>
      <contour>
        <pt x="328" y="-100" on="1"/>
        <pt x="285" y="-100" on="1"/>
        <pt x="285" y="1" on="1"/>
        <pt x="197" y="6" on="0"/>
        <pt x="75" y="93" on="0"/>
        <pt x="52" y="171" on="1"/>
        <pt x="98" y="195" on="1"/>
        <pt x="112" y="129" on="0"/>
        <pt x="215" y="51" on="0"/>
        <pt x="285" y="43" on="1"/>
        <pt x="285" y="309" on="1"/>
        <pt x="232" y="320" on="0"/>
        <pt x="134" y="353" on="0"/>
        <pt x="72" y="418" on="0"/>
        <pt x="72" y="477" on="1"/>
        <pt x="72" y="549" on="0"/>
        <pt x="185" y="655" on="0"/>
        <pt x="285" y="659" on="1"/>
        <pt x="285" y="760" on="1"/>
        <pt x="328" y="760" on="1"/>
        <pt x="328" y="659" on="1"/>
        <pt x="480" y="650" on="0"/>
        <pt x="535" y="516" on="1"/>
        <pt x="495" y="484" on="1"/>
        <pt x="451" y="607" on="0"/>
        <pt x="328" y="616" on="1"/>
        <pt x="328" y="344" on="1"/>
        <pt x="381" y="333" on="0"/>
        <pt x="478" y="301" on="0"/>
        <pt x="540" y="236" on="0"/>
        <pt x="540" y="175" on="1"/>
        <pt x="540" y="99" on="0"/>
        <pt x="425" y="5" on="0"/>
        <pt x="328" y="1" on="1"/>
      </contour>
    </TTGlyph>
    <TTGlyph name="uni0024.tf" xMin="68" yMin="-100" xMax="545" yMax="760">
      <contour>
        <pt x="136" y="481" on="1"/>
        <pt x="136" y="419" on="0"/>
        <pt x="229" y="368" on="0"/>
        <pt x="292" y="354" on="1"/>
        <pt x="292" y="616" on="1"/>
        <pt x="217" y="612" on="0"/>
        <pt x="136" y="538" on="0"/>
      </contour>
      <contour>
        <pt x="498" y="171" on="1"/>
        <pt x="498" y="235" on="0"/>
        <pt x="400" y="286" on="0"/>
        <pt x="335" y="301" on="1"/>
        <pt x="335" y="42" on="1"/>
        <pt x="406" y="45" on="0"/>
        <pt x="498" y="109" on="0"/>
      </contour>
      <contour>
        <pt x="335" y="-100" on="1"/>
        <pt x="292" y="-100" on="1"/>
        <pt x="292" y="1" on="1"/>
        <pt x="113" y="14" on="0"/>
        <pt x="68" y="171" on="1"/>
        <pt x="115" y="195" on="1"/>
        <pt x="127" y="130" on="0"/>
        <pt x="226" y="51" on="0"/>
        <pt x="292" y="44" on="1"/>
        <pt x="292" y="310" on="1"/>
        <pt x="215" y="326" on="0"/>
        <pt x="88" y="388" on="0"/>
        <pt x="88" y="477" on="1"/>
        <pt x="88" y="548" on="0"/>
        <pt x="196" y="654" on="0"/>
        <pt x="292" y="660" on="1"/>
        <pt x="292" y="760" on="1"/>
        <pt x="335" y="760" on="1"/>
        <pt x="335" y="659" on="1"/>
        <pt x="486" y="651" on="0"/>
        <pt x="540" y="516" on="1"/>
        <pt x="500" y="484" on="1"/>
        <pt x="458" y="608" on="0"/>
        <pt x="335" y="616" on="1"/>
        <pt x="335" y="345" on="1"/>
        <pt x="387" y="334" on="0"/>
        <pt x="483" y="302" on="0"/>
        <pt x="545" y="236" on="0"/>
        <pt x="545" y="175" on="1"/>
        <pt x="545" y="98" on="0"/>
        <pt x="430" y="4" on="0"/>
        <pt x="335" y="0" on="1"/>
      </contour>
    </TTGlyph>
    <TTGlyph name="uni0025" xMin="40" yMin="-5" xMax="769" yMax="665">
      <contour>
        <pt x="40" y="490" on="1"/>
        <pt x="40" y="564" on="0"/>
        <pt x="116" y="665" on="0"/>
        <pt x="189" y="665" on="1"/>
        <pt x="263" y="665" on="0"/>
        <pt x="338" y="564" on="0"/>
        <pt x="338" y="490" on="1"/>
        <pt x="338" y="417" on="0"/>
        <pt x="263" y="316" on="0"/>
        <pt x="189" y="316" on="1"/>
        <pt x="116" y="316" on="0"/>
        <pt x="40" y="417" on="0"/>
      </contour>
      <contour>
        <pt x="212" y="0" on="1"/>
        <pt x="163" y="0" on="1"/>
        <pt x="596" y="660" on="1"/>
        <pt x="645" y="660" on="1"/>
      </contour>
      <contour>
        <pt x="293" y="490" on="1"/>
        <pt x="293" y="548" on="0"/>
        <pt x="242" y="625" on="0"/>
        <pt x="189" y="625" on="1"/>
        <pt x="137" y="625" on="0"/>
        <pt x="85" y="548" on="0"/>
        <pt x="85" y="490" on="1"/>
        <pt x="85" y="432" on="0"/>
        <pt x="137" y="356" on="0"/>
        <pt x="189" y="356" on="1"/>
        <pt x="242" y="356" on="0"/>
        <pt x="293" y="432" on="0"/>
      </contour>
      <contour>
        <pt x="470" y="169" on="1"/>
        <pt x="470" y="243" on="0"/>
        <pt x="547" y="344" on="0"/>
        <pt x="620" y="344" on="1"/>
        <pt x="693" y="344" on="0"/>
        <pt x="769" y="243" on="0"/>
        <pt x="769" y="169" on="1"/>
        <pt x="769" y="96" on="0"/>
        <pt x="693" y="-5" on="0"/>
        <pt x="620" y="-5" on="1"/>
        <pt x="547" y="-5" on="0"/>
        <pt x="470" y="96" on="0"/>
      </contour>
      <contour>
        <pt x="724" y="169" on="1"/>
        <pt x="724" y="228" on="0"/>
        <pt x="673" y="304" on="0"/>
        <pt x="620" y="304" on="1"/>
        <pt x="567" y="304" on="0"/>
        <pt x="515" y="228" on="0"/>
        <pt x="515" y="169" on="1"/>
        <pt x="515" y="111" on="0"/>
        <pt x="567" y="35" on="0"/>
        <pt x="620" y="35" on="1"/>
        <pt x="673" y="35" on="0"/>
        <pt x="724" y="111" on="0"/>
      </contour>
    </TTGlyph>
    <TTGlyph name="uni0026" xMin="47" yMin="-10" xMax="605" yMax="668">
      <contour>
        <pt x="593" y="-10" on="1"/>
        <pt x="557" y="-10" on="0"/>
        <pt x="493" y="24" on="0"/>
        <pt x="446" y="75" on="1"/>
        <pt x="411" y="36" on="0"/>
        <pt x="312" y="-10" on="0"/>
        <pt x="247" y="-10" on="1"/>
        <pt x="160" y="-10" on="0"/>
        <pt x="47" y="79" on="0"/>
        <pt x="47" y="151" on="1"/>
        <pt x="47" y="219" on="0"/>
        <pt x="130" y="315" on="0"/>
        <pt x="214" y="360" on="1"/>
        <pt x="168" y="420" on="0"/>
        <pt x="132" y="490" on="0"/>
        <pt x="132" y="528" on="1"/>
        <pt x="132" y="585" on="0"/>
        <pt x="210" y="668" on="0"/>
        <pt x="280" y="668" on="1"/>
        <pt x="339" y="668" on="0"/>
        <pt x="424" y="606" on="0"/>
        <pt x="424" y="541" on="1"/>
        <pt x="424" y="488" on="0"/>
        <pt x="368" y="400" on="0"/>
        <pt x="279" y="349" on="1"/>
        <pt x="293" y="330" on="0"/>
        <pt x="327" y="287" on="0"/>
        <pt x="347" y="261" on="1"/>
        <pt x="376" y="223" on="0"/>
        <pt x="424" y="164" on="0"/>
        <pt x="444" y="140" on="1"/>
        <pt x="500" y="227" on="0"/>
        <pt x="496" y="360" on="1"/>
        <pt x="537" y="356" on="1"/>
        <pt x="539" y="291" on="0"/>
        <pt x="507" y="161" on="0"/>
        <pt x="472" y="108" on="1"/>
        <pt x="516" y="59" on="0"/>
        <pt x="572" y="28" on="0"/>
        <pt x="605" y="28" on="1"/>
      </contour>
      <contour>
        <pt x="179" y="529" on="1"/>
        <pt x="179" y="498" on="0"/>
        <pt x="206" y="444" on="0"/>
        <pt x="253" y="382" on="1"/>
        <pt x="333" y="426" on="0"/>
        <pt x="379" y="500" on="0"/>
        <pt x="379" y="540" on="1"/>
        <pt x="379" y="625" on="0"/>
        <pt x="279" y="625" on="1"/>
        <pt x="232" y="625" on="0"/>
        <pt x="179" y="570" on="0"/>
      </contour>
      <contour>
        <pt x="244" y="31" on="1"/>
        <pt x="352" y="31" on="0"/>
        <pt x="418" y="106" on="1"/>
        <pt x="397" y="131" on="0"/>
        <pt x="345" y="194" on="0"/>
        <pt x="314" y="233" on="1"/>
        <pt x="293" y="260" on="0"/>
        <pt x="256" y="307" on="0"/>
        <pt x="240" y="327" on="1"/>
        <pt x="163" y="283" on="0"/>
        <pt x="94" y="207" on="0"/>
        <pt x="94" y="154" on="1"/>
        <pt x="94" y="98" on="0"/>
        <pt x="183" y="31" on="0"/>
      </contour>
    </TTGlyph>
    <TTGlyph name="uni0026.sc" xMin="43" yMin="-8" xMax="540" yMax="567">
      <contour>
        <pt x="531" y="-8" on="1"/>
        <pt x="498" y="-8" on="0"/>
        <pt x="441" y="20" on="0"/>
        <pt x="400" y="62" on="1"/>
        <pt x="368" y="29" on="0"/>
        <pt x="279" y="-8" on="0"/>
        <pt x="221" y="-8" on="1"/>
        <pt x="144" y="-8" on="0"/>
        <pt x="43" y="65" on="0"/>
        <pt x="43" y="127" on="1"/>
        <pt x="43" y="185" on="0"/>
        <pt x="117" y="265" on="0"/>
        <pt x="190" y="303" on="1"/>
        <pt x="149" y="353" on="0"/>
        <pt x="118" y="413" on="0"/>
        <pt x="118" y="446" on="1"/>
        <pt x="118" y="496" on="0"/>
        <pt x="188" y="567" on="0"/>
        <pt x="252" y="567" on="1"/>
        <pt x="309" y="567" on="0"/>
        <pt x="384" y="510" on="0"/>
        <pt x="384" y="457" on="1"/>
        <pt x="384" y="411" on="0"/>
        <pt x="332" y="337" on="0"/>
        <pt x="251" y="293" on="1"/>
        <pt x="264" y="278" on="0"/>
        <pt x="294" y="243" on="0"/>
        <pt x="311" y="222" on="1"/>
        <pt x="337" y="191" on="0"/>
        <pt x="380" y="141" on="0"/>
        <pt x="398" y="121" on="1"/>
        <pt x="447" y="192" on="0"/>
        <pt x="444" y="310" on="1"/>
        <pt x="482" y="302" on="1"/>
        <pt x="483" y="246" on="0"/>
        <pt x="455" y="136" on="0"/>
        <pt x="425" y="92" on="1"/>
        <pt x="462" y="53" on="0"/>
        <pt x="511" y="27" on="0"/>
        <pt x="540" y="28" on="1"/>
      </contour>
      <contour>
        <pt x="163" y="445" on="1"/>
        <pt x="163" y="419" on="0"/>
        <pt x="186" y="374" on="0"/>
        <pt x="227" y="322" on="1"/>
        <pt x="299" y="361" on="0"/>
        <pt x="340" y="420" on="0"/>
        <pt x="340" y="454" on="1"/>
        <pt x="340" y="527" on="0"/>
        <pt x="252" y="527" on="1"/>
        <pt x="211" y="527" on="0"/>
        <pt x="163" y="481" on="0"/>
      </contour>
      <contour>
        <pt x="220" y="29" on="1"/>
        <pt x="315" y="29" on="0"/>
        <pt x="373" y="90" on="1"/>
        <pt x="354" y="111" on="0"/>
        <pt x="309" y="162" on="0"/>
        <pt x="282" y="194" on="1"/>
        <pt x="262" y="217" on="0"/>
        <pt x="229" y="257" on="0"/>
        <pt x="214" y="273" on="1"/>
        <pt x="150" y="238" on="0"/>
        <pt x="88" y="176" on="0"/>
        <pt x="88" y="131" on="1"/>
        <pt x="88" y="84" on="0"/>
        <pt x="166" y="29" on="0"/>
      </contour>
    </TTGlyph>
    <TTGlyph name="uni0027" xMin="75" yMin="480" xMax="129" yMax="685">
      <contour>
        <pt x="75" y="685" on="1"/>
        <pt x="129" y="685" on="1"/>
        <pt x="115" y="480" on="1"/>
        <pt x="75" y="480" on="1"/>
      </contour>
    </TTGlyph>
    <TTGlyph name="uni0027.sc" xMin="75" yMin="376" xMax="129" yMax="582">
      <contour>
        <pt x="75" y="582" on="1"/>
        <pt x="129" y="582" on="1"/>
        <pt x="115" y="376" on="1"/>
        <pt x="75" y="376" on="1"/>
      </contour>
    </TTGlyph>
    <TTGlyph name="uni0028" xMin="57" yMin="-180" xMax="285" yMax="746">
      <contour>
        <pt x="57" y="283" on="1"/>
        <pt x="57" y="574" on="0"/>
        <pt x="257" y="746" on="1"/>
        <pt x="285" y="717" on="1"/>
        <pt x="190" y="633" on="0"/>
        <pt x="108" y="426" on="0"/>
        <pt x="108" y="283" on="1"/>
        <pt x="108" y="141" on="0"/>
        <pt x="190" y="-67" on="0"/>
        <pt x="285" y="-151" on="1"/>
        <pt x="257" y="-180" on="1"/>
        <pt x="57" y="-10" on="0"/>
      </contour>
    </TTGlyph>
    <TTGlyph name="uni0028.case" xMin="57" yMin="-136" xMax="285" yMax="790">
      <component glyphName="uni0028" x="0" y="44" flags="0x4"/>
    </TTGlyph>
    <TTGlyph name="uni0029" xMin="20" yMin="-180" xMax="248" yMax="746">
      <component glyphName="uni0028" x="305" y="0" scalex="-1.0" scaley="1.0" flags="0x4"/>
    </TTGlyph>
    <TTGlyph name="uni0029.case" xMin="20" yMin="-136" xMax="248" yMax="790">
      <component glyphName="uni0028.case" x="305" y="0" scalex="-1.0" scaley="1.0" flags="0x4"/>
    </TTGlyph>
    <TTGlyph name="uni002A" xMin="50" yMin="308" xMax="493" yMax="730">
      <contour>
        <pt x="388" y="308" on="1"/>
        <pt x="312" y="410" on="1"/>
        <pt x="272" y="478" on="1"/>
        <pt x="231" y="410" on="1"/>
        <pt x="155" y="308" on="1"/>
        <pt x="122" y="332" on="1"/>
        <pt x="196" y="436" on="1"/>
        <pt x="248" y="496" on="1"/>
        <pt x="170" y="514" on="1"/>
        <pt x="50" y="554" on="1"/>
        <pt x="62" y="593" on="1"/>
        <pt x="183" y="555" on="1"/>
        <pt x="257" y="524" on="1"/>
        <pt x="250" y="603" on="1"/>
        <pt x="250" y="730" on="1"/>
        <pt x="293" y="730" on="1"/>
        <pt x="293" y="603" on="1"/>
        <pt x="286" y="524" on="1"/>
        <pt x="359" y="555" on="1"/>
        <pt x="481" y="593" on="1"/>
        <pt x="493" y="554" on="1"/>
        <pt x="373" y="514" on="1"/>
        <pt x="295" y="496" on="1"/>
        <pt x="347" y="436" on="1"/>
        <pt x="421" y="332" on="1"/>
      </contour>
    </TTGlyph>
    <TTGlyph name="uni002B" xMin="64" yMin="73" xMax="540" yMax="555">
      <contour>
        <pt x="540" y="293" on="1"/>
        <pt x="326" y="293" on="1"/>
        <pt x="326" y="73" on="1"/>
        <pt x="279" y="73" on="1"/>
        <pt x="279" y="293" on="1"/>
        <pt x="64" y="293" on="1"/>
        <pt x="64" y="339" on="1"/>
        <pt x="279" y="339" on="1"/>
        <pt x="279" y="555" on="1"/>
        <pt x="326" y="555" on="1"/>
        <pt x="326" y="339" on="1"/>
        <pt x="540" y="339" on="1"/>
      </contour>
    </TTGlyph>
    <TTGlyph name="uni002C" xMin="52" yMin="-128" xMax="166" yMax="82">
      <contour>
        <pt x="65" y="36" on="1"/>
        <pt x="65" y="55" on="0"/>
        <pt x="92" y="82" on="0"/>
        <pt x="111" y="82" on="1"/>
        <pt x="137" y="82" on="0"/>
        <pt x="166" y="41" on="0"/>
        <pt x="166" y="9" on="1"/>
        <pt x="166" y="-31" on="0"/>
        <pt x="124" y="-106" on="0"/>
        <pt x="80" y="-128" on="1"/>
        <pt x="52" y="-103" on="1"/>
        <pt x="88" y="-90" on="0"/>
        <pt x="132" y="-28" on="0"/>
        <pt x="130" y="1" on="1"/>
        <pt x="127" y="2" on="1"/>
        <pt x="120" y="-8" on="0"/>
        <pt x="104" y="-8" on="1"/>
        <pt x="91" y="-8" on="0"/>
        <pt x="65" y="15" on="0"/>
      </contour>
    </TTGlyph>
    <TTGlyph name="uni002C.tf" xMin="94" yMin="-128" xMax="208" yMax="82">
      <component glyphName="uni002C" x="42" y="0" flags="0x4"/>
    </TTGlyph>
    <TTGlyph name="uni002D" xMin="80" yMin="240" xMax="387" yMax="291">
      <contour>
        <pt x="80" y="291" on="1"/>
        <pt x="387" y="291" on="1"/>
        <pt x="387" y="240" on="1"/>
        <pt x="80" y="240" on="1"/>
      </contour>
    </TTGlyph>
    <TTGlyph name="uni002D.case" xMin="80" yMin="310" xMax="387" yMax="361">
      <component glyphName="uni002D" x="0" y="70" flags="0x4"/>
    </TTGlyph>
    <TTGlyph name="uni002E" xMin="65" yMin="-8" xMax="155" yMax="82">
      <contour>
        <pt x="65" y="37" on="1"/>
        <pt x="65" y="82" on="0"/>
        <pt x="110" y="82" on="1"/>
        <pt x="155" y="82" on="0"/>
        <pt x="155" y="37" on="1"/>
        <pt x="155" y="-8" on="0"/>
        <pt x="110" y="-8" on="1"/>
        <pt x="65" y="-8" on="0"/>
      </contour>
    </TTGlyph>
    <TTGlyph name="uni002E.tf" xMin="106" yMin="-8" xMax="196" yMax="82">
      <component glyphName="uni002E" x="41" y="0" flags="0x4"/>
    </TTGlyph>
    <TTGlyph name="uni002F" xMin="31" yMin="-70" xMax="364" yMax="730">
      <contour>
        <pt x="316" y="730" on="1"/>
        <pt x="364" y="730" on="1"/>
        <pt x="79" y="-70" on="1"/>
        <pt x="31" y="-70" on="1"/>
      </contour>
    </TTGlyph>
    <TTGlyph name="uni0030" xMin="63" yMin="-10" xMax="544" yMax="670">
      <contour>
        <pt x="544" y="330" on="1"/>
        <pt x="544" y="165" on="0"/>
        <pt x="420" y="-10" on="0"/>
        <pt x="304" y="-10" on="1"/>
        <pt x="187" y="-10" on="0"/>
        <pt x="63" y="165" on="0"/>
        <pt x="63" y="330" on="1"/>
        <pt x="63" y="495" on="0"/>
        <pt x="187" y="670" on="0"/>
        <pt x="304" y="670" on="1"/>
        <pt x="420" y="670" on="0"/>
        <pt x="544" y="495" on="0"/>
      </contour>
      <contour>
        <pt x="114" y="330" on="1"/>
        <pt x="114" y="187" on="0"/>
        <pt x="212" y="35" on="0"/>
        <pt x="304" y="35" on="1"/>
        <pt x="396" y="35" on="0"/>
        <pt x="493" y="187" on="0"/>
        <pt x="493" y="330" on="1"/>
        <pt x="493" y="473" on="0"/>
        <pt x="396" y="625" on="0"/>
        <pt x="304" y="625" on="1"/>
        <pt x="212" y="625" on="0"/>
        <pt x="114" y="473" on="0"/>
      </contour>
    </TTGlyph>
    <TTGlyph name="uni0030.dnom" xMin="36" yMin="-10" xMax="342" yMax="398">
      <component glyphName="uni2070" x="0" y="-337" flags="0x4"/>
    </TTGlyph>
    <TTGlyph name="uni0030.numr" xMin="36" yMin="262" xMax="342" yMax="670">
      <component glyphName="uni2070" x="0" y="-65" flags="0x4"/>
    </TTGlyph>
    <TTGlyph name="uni0030.osf" xMin="59" yMin="-10" xMax="526" yMax="570">
      <contour>
        <pt x="59" y="280" on="1"/>
        <pt x="59" y="570" on="0"/>
        <pt x="292" y="570" on="1"/>
        <pt x="526" y="570" on="0"/>
        <pt x="526" y="280" on="1"/>
        <pt x="526" y="-10" on="0"/>
        <pt x="292" y="-10" on="1"/>
        <pt x="59" y="-10" on="0"/>
      </contour>
      <contour>
        <pt x="476" y="280" on="1"/>
        <pt x="476" y="527" on="0"/>
        <pt x="292" y="527" on="1"/>
        <pt x="109" y="527" on="0"/>
        <pt x="109" y="280" on="1"/>
        <pt x="109" y="33" on="0"/>
        <pt x="292" y="33" on="1"/>
        <pt x="476" y="33" on="0"/>
      </contour>
    </TTGlyph>
    <TTGlyph name="uni0030.osf.zero" xMin="59" yMin="-10" xMax="526" yMax="570">
      <contour>
        <pt x="428" y="499" on="1"/>
        <pt x="194" y="38" on="1"/>
        <pt x="161" y="57" on="1"/>
        <pt x="396" y="522" on="1"/>
      </contour>
      <contour>
        <pt x="59" y="280" on="1"/>
        <pt x="59" y="570" on="0"/>
        <pt x="292" y="570" on="1"/>
        <pt x="526" y="570" on="0"/>
        <pt x="526" y="280" on="1"/>
        <pt x="526" y="-10" on="0"/>
        <pt x="292" y="-10" on="1"/>
        <pt x="59" y="-10" on="0"/>
      </contour>
      <contour>
        <pt x="476" y="280" on="1"/>
        <pt x="476" y="527" on="0"/>
        <pt x="292" y="527" on="1"/>
        <pt x="109" y="527" on="0"/>
        <pt x="109" y="280" on="1"/>
        <pt x="109" y="33" on="0"/>
        <pt x="292" y="33" on="1"/>
        <pt x="476" y="33" on="0"/>
      </contour>
    </TTGlyph>
    <TTGlyph name="uni0030.sc" xMin="54" yMin="-10" xMax="509" yMax="570">
      <contour>
        <pt x="54" y="280" on="1"/>
        <pt x="54" y="421" on="0"/>
        <pt x="171" y="570" on="0"/>
        <pt x="281" y="570" on="1"/>
        <pt x="392" y="570" on="0"/>
        <pt x="509" y="421" on="0"/>
        <pt x="509" y="280" on="1"/>
        <pt x="509" y="139" on="0"/>
        <pt x="392" y="-10" on="0"/>
        <pt x="281" y="-10" on="1"/>
        <pt x="171" y="-10" on="0"/>
        <pt x="54" y="139" on="0"/>
      </contour>
      <contour>
        <pt x="459" y="280" on="1"/>
        <pt x="459" y="527" on="0"/>
        <pt x="281" y="527" on="1"/>
        <pt x="104" y="527" on="0"/>
        <pt x="104" y="280" on="1"/>
        <pt x="104" y="33" on="0"/>
        <pt x="281" y="33" on="1"/>
        <pt x="459" y="33" on="0"/>
      </contour>
    </TTGlyph>
    <TTGlyph name="uni0030.tf" xMin="61" yMin="-10" xMax="543" yMax="670">
      <contour>
        <pt x="543" y="330" on="1"/>
        <pt x="543" y="165" on="0"/>
        <pt x="419" y="-10" on="0"/>
        <pt x="302" y="-10" on="1"/>
        <pt x="185" y="-10" on="0"/>
        <pt x="61" y="165" on="0"/>
        <pt x="61" y="330" on="1"/>
        <pt x="61" y="495" on="0"/>
        <pt x="185" y="670" on="0"/>
        <pt x="302" y="670" on="1"/>
        <pt x="419" y="670" on="0"/>
        <pt x="543" y="495" on="0"/>
      </contour>
      <contour>
        <pt x="113" y="330" on="1"/>
        <pt x="113" y="187" on="0"/>
        <pt x="211" y="35" on="0"/>
        <pt x="302" y="35" on="1"/>
        <pt x="394" y="35" on="0"/>
        <pt x="491" y="187" on="0"/>
        <pt x="491" y="330" on="1"/>
        <pt x="491" y="473" on="0"/>
        <pt x="394" y="625" on="0"/>
        <pt x="302" y="625" on="1"/>
        <pt x="211" y="625" on="0"/>
        <pt x="113" y="473" on="0"/>
      </contour>
    </TTGlyph>
    <TTGlyph name="uni0030.tf.zero" xMin="61" yMin="-10" xMax="543" yMax="670">
      <contour>
        <pt x="430" y="596" on="1"/>
        <pt x="207" y="41" on="1"/>
        <pt x="175" y="60" on="1"/>
        <pt x="400" y="619" on="1"/>
      </contour>
      <contour>
        <pt x="543" y="330" on="1"/>
        <pt x="543" y="165" on="0"/>
        <pt x="419" y="-10" on="0"/>
        <pt x="302" y="-10" on="1"/>
        <pt x="185" y="-10" on="0"/>
        <pt x="61" y="165" on="0"/>
        <pt x="61" y="330" on="1"/>
        <pt x="61" y="495" on="0"/>
        <pt x="185" y="670" on="0"/>
        <pt x="302" y="670" on="1"/>
        <pt x="419" y="670" on="0"/>
        <pt x="543" y="495" on="0"/>
      </contour>
      <contour>
        <pt x="113" y="330" on="1"/>
        <pt x="113" y="187" on="0"/>
        <pt x="211" y="35" on="0"/>
        <pt x="302" y="35" on="1"/>
        <pt x="394" y="35" on="0"/>
        <pt x="491" y="187" on="0"/>
        <pt x="491" y="330" on="1"/>
        <pt x="491" y="473" on="0"/>
        <pt x="394" y="625" on="0"/>
        <pt x="302" y="625" on="1"/>
        <pt x="211" y="625" on="0"/>
        <pt x="113" y="473" on="0"/>
      </contour>
    </TTGlyph>
    <TTGlyph name="uni0030.tosf" xMin="68" yMin="-10" xMax="536" yMax="570">
      <contour>
        <pt x="68" y="280" on="1"/>
        <pt x="68" y="421" on="0"/>
        <pt x="189" y="570" on="0"/>
        <pt x="302" y="570" on="1"/>
        <pt x="415" y="570" on="0"/>
        <pt x="536" y="421" on="0"/>
        <pt x="536" y="280" on="1"/>
        <pt x="536" y="139" on="0"/>
        <pt x="415" y="-10" on="0"/>
        <pt x="302" y="-10" on="1"/>
        <pt x="189" y="-10" on="0"/>
        <pt x="68" y="139" on="0"/>
      </contour>
      <contour>
        <pt x="486" y="280" on="1"/>
        <pt x="486" y="527" on="0"/>
        <pt x="302" y="527" on="1"/>
        <pt x="118" y="527" on="0"/>
        <pt x="118" y="280" on="1"/>
        <pt x="118" y="33" on="0"/>
        <pt x="302" y="33" on="1"/>
        <pt x="486" y="33" on="0"/>
      </contour>
    </TTGlyph>
    <TTGlyph name="uni0030.tosf.zero" xMin="68" yMin="-10" xMax="536" yMax="570">
      <contour>
        <pt x="449" y="499" on="1"/>
        <pt x="215" y="38" on="1"/>
        <pt x="182" y="57" on="1"/>
        <pt x="417" y="522" on="1"/>
      </contour>
      <contour>
        <pt x="68" y="280" on="1"/>
        <pt x="68" y="421" on="0"/>
        <pt x="189" y="570" on="0"/>
        <pt x="302" y="570" on="1"/>
        <pt x="415" y="570" on="0"/>
        <pt x="536" y="421" on="0"/>
        <pt x="536" y="280" on="1"/>
        <pt x="536" y="139" on="0"/>
        <pt x="415" y="-10" on="0"/>
        <pt x="302" y="-10" on="1"/>
        <pt x="189" y="-10" on="0"/>
        <pt x="68" y="139" on="0"/>
      </contour>
      <contour>
        <pt x="486" y="280" on="1"/>
        <pt x="486" y="527" on="0"/>
        <pt x="302" y="527" on="1"/>
        <pt x="118" y="527" on="0"/>
        <pt x="118" y="280" on="1"/>
        <pt x="118" y="33" on="0"/>
        <pt x="302" y="33" on="1"/>
        <pt x="486" y="33" on="0"/>
      </contour>
    </TTGlyph>
    <TTGlyph name="uni0030.zero" xMin="63" yMin="-10" xMax="544" yMax="670">
      <contour>
        <pt x="437" y="597" on="1"/>
        <pt x="203" y="42" on="1"/>
        <pt x="170" y="60" on="1"/>
        <pt x="406" y="620" on="1"/>
      </contour>
      <contour>
        <pt x="544" y="330" on="1"/>
        <pt x="544" y="165" on="0"/>
        <pt x="420" y="-10" on="0"/>
        <pt x="304" y="-10" on="1"/>
        <pt x="187" y="-10" on="0"/>
        <pt x="63" y="165" on="0"/>
        <pt x="63" y="330" on="1"/>
        <pt x="63" y="495" on="0"/>
        <pt x="187" y="670" on="0"/>
        <pt x="304" y="670" on="1"/>
        <pt x="420" y="670" on="0"/>
        <pt x="544" y="495" on="0"/>
      </contour>
      <contour>
        <pt x="114" y="330" on="1"/>
        <pt x="114" y="187" on="0"/>
        <pt x="212" y="35" on="0"/>
        <pt x="304" y="35" on="1"/>
        <pt x="396" y="35" on="0"/>
        <pt x="493" y="187" on="0"/>
        <pt x="493" y="330" on="1"/>
        <pt x="493" y="473" on="0"/>
        <pt x="396" y="625" on="0"/>
        <pt x="304" y="625" on="1"/>
        <pt x="212" y="625" on="0"/>
        <pt x="114" y="473" on="0"/>
      </contour>
    </TTGlyph>
    <TTGlyph name="uni0031" xMin="33" yMin="0" xMax="268" yMax="660">
      <contour>
        <pt x="268" y="0" on="1"/>
        <pt x="218" y="0" on="1"/>
        <pt x="218" y="500" on="1"/>
        <pt x="218" y="541" on="0"/>
        <pt x="220" y="591" on="1"/>
        <pt x="187" y="552" on="0"/>
        <pt x="95" y="496" on="0"/>
        <pt x="46" y="483" on="1"/>
        <pt x="33" y="528" on="1"/>
        <pt x="77" y="539" on="0"/>
        <pt x="197" y="615" on="0"/>
        <pt x="223" y="660" on="1"/>
        <pt x="268" y="660" on="1"/>
      </contour>
    </TTGlyph>
    <TTGlyph name="uni0031.dnom" xMin="10" yMin="-4" xMax="164" yMax="393">
      <component glyphName="uni00B9" x="0" y="-337" flags="0x4"/>
    </TTGlyph>
    <TTGlyph name="uni0031.numr" xMin="10" yMin="268" xMax="164" yMax="665">
      <component glyphName="uni00B9" x="0" y="-65" flags="0x4"/>
    </TTGlyph>
    <TTGlyph name="uni0031.osf" xMin="27" yMin="0" xMax="257" yMax="560">
      <contour>
        <pt x="257" y="0" on="1"/>
        <pt x="207" y="0" on="1"/>
        <pt x="207" y="430" on="1"/>
        <pt x="207" y="459" on="0"/>
        <pt x="208" y="494" on="1"/>
        <pt x="176" y="457" on="0"/>
        <pt x="87" y="403" on="0"/>
        <pt x="40" y="390" on="1"/>
        <pt x="27" y="431" on="1"/>
        <pt x="75" y="446" on="0"/>
        <pt x="186" y="515" on="0"/>
        <pt x="212" y="560" on="1"/>
        <pt x="257" y="560" on="1"/>
      </contour>
    </TTGlyph>
    <TTGlyph name="uni0031.sc" xMin="22" yMin="0" xMax="252" yMax="560">
      <contour>
        <pt x="252" y="0" on="1"/>
        <pt x="202" y="0" on="1"/>
        <pt x="202" y="429" on="1"/>
        <pt x="202" y="458" on="0"/>
        <pt x="203" y="492" on="1"/>
        <pt x="172" y="455" on="0"/>
        <pt x="82" y="404" on="0"/>
        <pt x="35" y="390" on="1"/>
        <pt x="22" y="433" on="1"/>
        <pt x="66" y="445" on="0"/>
        <pt x="180" y="515" on="0"/>
        <pt x="207" y="560" on="1"/>
        <pt x="252" y="560" on="1"/>
      </contour>
    </TTGlyph>
    <TTGlyph name="uni0031.tf" xMin="99" yMin="0" xMax="552" yMax="660">
      <contour>
        <pt x="552" y="0" on="1"/>
        <pt x="109" y="0" on="1"/>
        <pt x="109" y="45" on="1"/>
        <pt x="316" y="45" on="1"/>
        <pt x="316" y="524" on="1"/>
        <pt x="316" y="554" on="0"/>
        <pt x="318" y="596" on="1"/>
        <pt x="279" y="554" on="0"/>
        <pt x="162" y="490" on="0"/>
        <pt x="113" y="476" on="1"/>
        <pt x="99" y="522" on="1"/>
        <pt x="128" y="530" on="0"/>
        <pt x="219" y="572" on="0"/>
        <pt x="304" y="630" on="0"/>
        <pt x="322" y="660" on="1"/>
        <pt x="366" y="660" on="1"/>
        <pt x="366" y="45" on="1"/>
        <pt x="552" y="45" on="1"/>
      </contour>
    </TTGlyph>
    <TTGlyph name="uni0031.tosf" xMin="108" yMin="0" xMax="551" yMax="560">
      <contour>
        <pt x="551" y="0" on="1"/>
        <pt x="108" y="0" on="1"/>
        <pt x="108" y="44" on="1"/>
        <pt x="315" y="44" on="1"/>
        <pt x="315" y="410" on="1"/>
        <pt x="315" y="452" on="0"/>
        <pt x="317" y="497" on="1"/>
        <pt x="281" y="457" on="0"/>
        <pt x="175" y="397" on="0"/>
        <pt x="126" y="383" on="1"/>
        <pt x="112" y="425" on="1"/>
        <pt x="141" y="433" on="0"/>
        <pt x="225" y="474" on="0"/>
        <pt x="303" y="531" on="0"/>
        <pt x="321" y="560" on="1"/>
        <pt x="365" y="560" on="1"/>
        <pt x="365" y="44" on="1"/>
        <pt x="551" y="44" on="1"/>
      </contour>
    </TTGlyph>
    <TTGlyph name="uni0032" xMin="50" yMin="0" xMax="506" yMax="670">
      <contour>
        <pt x="506" y="0" on="1"/>
        <pt x="65" y="0" on="1"/>
        <pt x="65" y="41" on="1"/>
        <pt x="253" y="188" on="0"/>
        <pt x="433" y="373" on="0"/>
        <pt x="433" y="469" on="1"/>
        <pt x="433" y="540" on="0"/>
        <pt x="346" y="624" on="0"/>
        <pt x="271" y="624" on="1"/>
        <pt x="193" y="624" on="0"/>
        <pt x="100" y="526" on="0"/>
        <pt x="94" y="444" on="1"/>
        <pt x="50" y="469" on="1"/>
        <pt x="59" y="559" on="0"/>
        <pt x="175" y="670" on="0"/>
        <pt x="272" y="670" on="1"/>
        <pt x="370" y="670" on="0"/>
        <pt x="485" y="561" on="0"/>
        <pt x="485" y="469" on="1"/>
        <pt x="485" y="369" on="0"/>
        <pt x="315" y="179" on="0"/>
        <pt x="138" y="46" on="1"/>
        <pt x="138" y="45" on="1"/>
        <pt x="150" y="45" on="0"/>
        <pt x="193" y="46" on="0"/>
        <pt x="204" y="46" on="1"/>
        <pt x="506" y="46" on="1"/>
      </contour>
    </TTGlyph>
    <TTGlyph name="uni0032.dnom" xMin="29" yMin="-4" xMax="318" yMax="398">
      <component glyphName="uni00B2" x="0" y="-337" flags="0x4"/>
    </TTGlyph>
    <TTGlyph name="uni0032.numr" xMin="29" yMin="268" xMax="318" yMax="670">
      <component glyphName="uni00B2" x="0" y="-65" flags="0x4"/>
    </TTGlyph>
    <TTGlyph name="uni0032.osf" xMin="56" yMin="0" xMax="492" yMax="570">
      <contour>
        <pt x="59" y="369" on="1"/>
        <pt x="56" y="459" on="0"/>
        <pt x="169" y="570" on="0"/>
        <pt x="262" y="570" on="1"/>
        <pt x="356" y="570" on="0"/>
        <pt x="466" y="472" on="0"/>
        <pt x="466" y="382" on="1"/>
        <pt x="466" y="276" on="0"/>
        <pt x="303" y="130" on="0"/>
        <pt x="175" y="60" on="1"/>
        <pt x="165" y="54" on="0"/>
        <pt x="147" y="47" on="0"/>
        <pt x="135" y="42" on="1"/>
        <pt x="135" y="40" on="1"/>
        <pt x="151" y="41" on="0"/>
        <pt x="182" y="43" on="0"/>
        <pt x="199" y="43" on="1"/>
        <pt x="492" y="43" on="1"/>
        <pt x="492" y="0" on="1"/>
        <pt x="58" y="0" on="1"/>
        <pt x="58" y="44" on="1"/>
        <pt x="218" y="124" on="0"/>
        <pt x="417" y="276" on="0"/>
        <pt x="417" y="384" on="1"/>
        <pt x="417" y="457" on="0"/>
        <pt x="327" y="527" on="0"/>
        <pt x="263" y="527" on="1"/>
        <pt x="190" y="527" on="0"/>
        <pt x="96" y="429" on="0"/>
        <pt x="103" y="348" on="1"/>
      </contour>
    </TTGlyph>
    <TTGlyph name="uni0032.sc" xMin="60" yMin="0" xMax="474" yMax="568">
      <contour>
        <pt x="64" y="384" on="1"/>
        <pt x="60" y="462" on="0"/>
        <pt x="165" y="568" on="0"/>
        <pt x="258" y="568" on="1"/>
        <pt x="352" y="568" on="0"/>
        <pt x="454" y="471" on="0"/>
        <pt x="454" y="396" on="1"/>
        <pt x="454" y="287" on="0"/>
        <pt x="274" y="122" on="0"/>
        <pt x="146" y="42" on="1"/>
        <pt x="146" y="41" on="1"/>
        <pt x="160" y="42" on="0"/>
        <pt x="184" y="43" on="0"/>
        <pt x="205" y="43" on="1"/>
        <pt x="474" y="43" on="1"/>
        <pt x="474" y="0" on="1"/>
        <pt x="69" y="0" on="1"/>
        <pt x="69" y="41" on="1"/>
        <pt x="222" y="136" on="0"/>
        <pt x="404" y="297" on="0"/>
        <pt x="404" y="390" on="1"/>
        <pt x="404" y="450" on="0"/>
        <pt x="328" y="525" on="0"/>
        <pt x="257" y="525" on="1"/>
        <pt x="185" y="525" on="0"/>
        <pt x="100" y="431" on="0"/>
        <pt x="107" y="363" on="1"/>
      </contour>
    </TTGlyph>
    <TTGlyph name="uni0032.tf" xMin="77" yMin="0" xMax="533" yMax="670">
      <component glyphName="uni0032" x="27" y="0" flags="0x4"/>
    </TTGlyph>
    <TTGlyph name="uni0032.tosf" xMin="83" yMin="0" xMax="519" yMax="570">
      <component glyphName="uni0032.osf" x="27" y="0" flags="0x4"/>
    </TTGlyph>
    <TTGlyph name="uni0033" xMin="48" yMin="-10" xMax="489" yMax="670">
      <contour>
        <pt x="71" y="532" on="1"/>
        <pt x="94" y="596" on="0"/>
        <pt x="202" y="670" on="0"/>
        <pt x="275" y="670" on="1"/>
        <pt x="370" y="670" on="0"/>
        <pt x="473" y="572" on="0"/>
        <pt x="473" y="498" on="1"/>
        <pt x="473" y="432" on="0"/>
        <pt x="403" y="339" on="0"/>
        <pt x="347" y="334" on="1"/>
        <pt x="347" y="333" on="1"/>
        <pt x="412" y="331" on="0"/>
        <pt x="489" y="239" on="0"/>
        <pt x="489" y="174" on="1"/>
        <pt x="489" y="92" on="0"/>
        <pt x="366" y="-10" on="0"/>
        <pt x="271" y="-10" on="1"/>
        <pt x="183" y="-10" on="0"/>
        <pt x="71" y="72" on="0"/>
        <pt x="48" y="145" on="1"/>
        <pt x="94" y="170" on="1"/>
        <pt x="110" y="109" on="0"/>
        <pt x="194" y="36" on="0"/>
        <pt x="274" y="36" on="1"/>
        <pt x="348" y="36" on="0"/>
        <pt x="438" y="116" on="0"/>
        <pt x="437" y="180" on="1"/>
        <pt x="435" y="310" on="0"/>
        <pt x="277" y="310" on="1"/>
        <pt x="240" y="310" on="1"/>
        <pt x="240" y="356" on="1"/>
        <pt x="277" y="356" on="1"/>
        <pt x="348" y="356" on="0"/>
        <pt x="421" y="428" on="0"/>
        <pt x="421" y="488" on="1"/>
        <pt x="422" y="553" on="0"/>
        <pt x="345" y="624" on="0"/>
        <pt x="275" y="624" on="1"/>
        <pt x="213" y="624" on="0"/>
        <pt x="133" y="562" on="0"/>
        <pt x="118" y="509" on="1"/>
      </contour>
    </TTGlyph>
    <TTGlyph name="uni0033.dnom" xMin="19" yMin="-10" xMax="299" yMax="398">
      <component glyphName="uni00B3" x="0" y="-337" flags="0x4"/>
    </TTGlyph>
    <TTGlyph name="uni0033.numr" xMin="19" yMin="262" xMax="299" yMax="670">
      <component glyphName="uni00B3" x="0" y="-65" flags="0x4"/>
    </TTGlyph>
    <TTGlyph name="uni0033.osf" xMin="26" yMin="-110" xMax="466" yMax="570">
      <contour>
        <pt x="49" y="432" on="1"/>
        <pt x="72" y="496" on="0"/>
        <pt x="180" y="570" on="0"/>
        <pt x="252" y="570" on="1"/>
        <pt x="350" y="570" on="0"/>
        <pt x="450" y="470" on="0"/>
        <pt x="450" y="396" on="1"/>
        <pt x="450" y="330" on="0"/>
        <pt x="387" y="245" on="0"/>
        <pt x="325" y="234" on="1"/>
        <pt x="325" y="233" on="1"/>
        <pt x="395" y="229" on="0"/>
        <pt x="466" y="140" on="0"/>
        <pt x="466" y="76" on="1"/>
        <pt x="466" y="-7" on="0"/>
        <pt x="344" y="-110" on="0"/>
        <pt x="249" y="-110" on="1"/>
        <pt x="161" y="-110" on="0"/>
        <pt x="49" y="-29" on="0"/>
        <pt x="26" y="45" on="1"/>
        <pt x="70" y="70" on="1"/>
        <pt x="86" y="8" on="0"/>
        <pt x="172" y="-67" on="0"/>
        <pt x="252" y="-67" on="1"/>
        <pt x="326" y="-67" on="0"/>
        <pt x="416" y="13" on="0"/>
        <pt x="416" y="80" on="1"/>
        <pt x="416" y="212" on="0"/>
        <pt x="255" y="212" on="1"/>
        <pt x="218" y="212" on="1"/>
        <pt x="218" y="254" on="1"/>
        <pt x="255" y="254" on="1"/>
        <pt x="326" y="254" on="0"/>
        <pt x="400" y="330" on="0"/>
        <pt x="400" y="390" on="1"/>
        <pt x="400" y="527" on="0"/>
        <pt x="253" y="527" on="1"/>
        <pt x="191" y="527" on="0"/>
        <pt x="109" y="464" on="0"/>
        <pt x="94" y="409" on="1"/>
      </contour>
    </TTGlyph>
    <TTGlyph name="uni0033.sc" xMin="44" yMin="-8" xMax="438" yMax="568">
      <contour>
        <pt x="63" y="448" on="1"/>
        <pt x="83" y="505" on="0"/>
        <pt x="181" y="568" on="0"/>
        <pt x="247" y="568" on="1"/>
        <pt x="332" y="568" on="0"/>
        <pt x="424" y="486" on="0"/>
        <pt x="424" y="421" on="1"/>
        <pt x="424" y="364" on="0"/>
        <pt x="360" y="288" on="0"/>
        <pt x="312" y="283" on="1"/>
        <pt x="312" y="282" on="1"/>
        <pt x="367" y="280" on="0"/>
        <pt x="438" y="211" on="0"/>
        <pt x="438" y="155" on="1"/>
        <pt x="438" y="80" on="0"/>
        <pt x="328" y="-8" on="0"/>
        <pt x="244" y="-8" on="1"/>
        <pt x="86" y="-8" on="0"/>
        <pt x="44" y="123" on="1"/>
        <pt x="91" y="147" on="1"/>
        <pt x="103" y="95" on="0"/>
        <pt x="177" y="35" on="0"/>
        <pt x="246" y="35" on="1"/>
        <pt x="309" y="35" on="0"/>
        <pt x="388" y="99" on="0"/>
        <pt x="388" y="154" on="1"/>
        <pt x="388" y="262" on="0"/>
        <pt x="250" y="262" on="1"/>
        <pt x="215" y="262" on="1"/>
        <pt x="215" y="302" on="1"/>
        <pt x="249" y="302" on="1"/>
        <pt x="311" y="302" on="0"/>
        <pt x="374" y="363" on="0"/>
        <pt x="374" y="412" on="1"/>
        <pt x="375" y="466" on="0"/>
        <pt x="307" y="525" on="0"/>
        <pt x="246" y="525" on="1"/>
        <pt x="136" y="525" on="0"/>
        <pt x="109" y="428" on="1"/>
      </contour>
    </TTGlyph>
    <TTGlyph name="uni0033.tf" xMin="74" yMin="-10" xMax="517" yMax="670">
      <contour>
        <pt x="99" y="532" on="1"/>
        <pt x="122" y="596" on="0"/>
        <pt x="230" y="670" on="0"/>
        <pt x="303" y="670" on="1"/>
        <pt x="398" y="670" on="0"/>
        <pt x="501" y="572" on="0"/>
        <pt x="501" y="498" on="1"/>
        <pt x="501" y="432" on="0"/>
        <pt x="431" y="339" on="0"/>
        <pt x="375" y="334" on="1"/>
        <pt x="375" y="333" on="1"/>
        <pt x="440" y="331" on="0"/>
        <pt x="517" y="237" on="0"/>
        <pt x="517" y="175" on="1"/>
        <pt x="517" y="92" on="0"/>
        <pt x="394" y="-10" on="0"/>
        <pt x="299" y="-10" on="1"/>
        <pt x="125" y="-10" on="0"/>
        <pt x="74" y="145" on="1"/>
        <pt x="122" y="171" on="1"/>
        <pt x="137" y="110" on="0"/>
        <pt x="223" y="36" on="0"/>
        <pt x="302" y="36" on="1"/>
        <pt x="376" y="36" on="0"/>
        <pt x="466" y="115" on="0"/>
        <pt x="465" y="181" on="1"/>
        <pt x="465" y="241" on="0"/>
        <pt x="384" y="310" on="0"/>
        <pt x="305" y="310" on="1"/>
        <pt x="268" y="310" on="1"/>
        <pt x="268" y="356" on="1"/>
        <pt x="305" y="356" on="1"/>
        <pt x="376" y="356" on="0"/>
        <pt x="449" y="428" on="0"/>
        <pt x="449" y="488" on="1"/>
        <pt x="450" y="553" on="0"/>
        <pt x="373" y="624" on="0"/>
        <pt x="303" y="624" on="1"/>
        <pt x="242" y="624" on="0"/>
        <pt x="161" y="562" on="0"/>
        <pt x="146" y="509" on="1"/>
      </contour>
    </TTGlyph>
    <TTGlyph name="uni0033.tosf" xMin="79" yMin="-110" xMax="519" yMax="570">
      <component glyphName="uni0033.osf" x="53" y="0" flags="0x4"/>
    </TTGlyph>
    <TTGlyph name="uni0034" xMin="41" yMin="0" xMax="546" yMax="660">
      <contour>
        <pt x="419" y="231" on="1"/>
        <pt x="546" y="231" on="1"/>
        <pt x="546" y="188" on="1"/>
        <pt x="419" y="188" on="1"/>
        <pt x="419" y="0" on="1"/>
        <pt x="369" y="0" on="1"/>
        <pt x="369" y="188" on="1"/>
        <pt x="41" y="188" on="1"/>
        <pt x="41" y="226" on="1"/>
        <pt x="355" y="660" on="1"/>
        <pt x="419" y="660" on="1"/>
      </contour>
      <contour>
        <pt x="369" y="618" on="1"/>
        <pt x="358" y="598" on="0"/>
        <pt x="327" y="550" on="0"/>
        <pt x="314" y="531" on="1"/>
        <pt x="95" y="231" on="1"/>
        <pt x="369" y="231" on="1"/>
        <pt x="369" y="533" on="1"/>
        <pt x="371" y="618" on="1"/>
      </contour>
    </TTGlyph>
    <TTGlyph name="uni0034.dnom" xMin="12" yMin="-4" xMax="325" yMax="393">
      <component glyphName="uni2074" x="0" y="-337" flags="0x4"/>
    </TTGlyph>
    <TTGlyph name="uni0034.numr" xMin="12" yMin="268" xMax="325" yMax="665">
      <component glyphName="uni2074" x="0" y="-65" flags="0x4"/>
    </TTGlyph>
    <TTGlyph name="uni0034.osf" xMin="38" yMin="-100" xMax="543" yMax="560">
      <component glyphName="uni0034" x="-3" y="-100" flags="0x4"/>
    </TTGlyph>
    <TTGlyph name="uni0034.sc" xMin="39" yMin="0" xMax="491" yMax="560">
      <contour>
        <pt x="379" y="0" on="1"/>
        <pt x="331" y="0" on="1"/>
        <pt x="331" y="156" on="1"/>
        <pt x="39" y="156" on="1"/>
        <pt x="39" y="190" on="1"/>
        <pt x="315" y="560" on="1"/>
        <pt x="379" y="560" on="1"/>
        <pt x="379" y="197" on="1"/>
        <pt x="491" y="197" on="1"/>
        <pt x="491" y="156" on="1"/>
        <pt x="379" y="156" on="1"/>
      </contour>
      <contour>
        <pt x="292" y="460" on="1"/>
        <pt x="93" y="197" on="1"/>
        <pt x="331" y="197" on="1"/>
        <pt x="331" y="516" on="1"/>
        <pt x="329" y="516" on="1"/>
        <pt x="309" y="483" on="0"/>
      </contour>
    </TTGlyph>
    <TTGlyph name="uni0034.tf" xMin="50" yMin="0" xMax="559" yMax="660">
      <contour>
        <pt x="423" y="0" on="1"/>
        <pt x="373" y="0" on="1"/>
        <pt x="373" y="188" on="1"/>
        <pt x="50" y="188" on="1"/>
        <pt x="50" y="226" on="1"/>
        <pt x="356" y="660" on="1"/>
        <pt x="423" y="660" on="1"/>
        <pt x="423" y="231" on="1"/>
        <pt x="559" y="231" on="1"/>
        <pt x="559" y="188" on="1"/>
        <pt x="423" y="188" on="1"/>
      </contour>
      <contour>
        <pt x="315" y="526" on="1"/>
        <pt x="103" y="231" on="1"/>
        <pt x="373" y="231" on="1"/>
        <pt x="373" y="484" on="1"/>
        <pt x="373" y="516" on="0"/>
        <pt x="374" y="582" on="0"/>
        <pt x="375" y="616" on="1"/>
        <pt x="373" y="616" on="1"/>
        <pt x="360" y="592" on="0"/>
        <pt x="330" y="547" on="0"/>
      </contour>
    </TTGlyph>
    <TTGlyph name="uni0034.tosf" xMin="53" yMin="-100" xMax="562" yMax="560">
      <contour>
        <pt x="431" y="-100" on="1"/>
        <pt x="381" y="-100" on="1"/>
        <pt x="381" y="88" on="1"/>
        <pt x="53" y="88" on="1"/>
        <pt x="53" y="126" on="1"/>
        <pt x="365" y="560" on="1"/>
        <pt x="431" y="560" on="1"/>
        <pt x="431" y="131" on="1"/>
        <pt x="562" y="131" on="1"/>
        <pt x="562" y="88" on="1"/>
        <pt x="431" y="88" on="1"/>
      </contour>
      <contour>
        <pt x="324" y="428" on="1"/>
        <pt x="107" y="131" on="1"/>
        <pt x="381" y="131" on="1"/>
        <pt x="381" y="384" on="1"/>
        <pt x="381" y="416" on="0"/>
        <pt x="382" y="482" on="0"/>
        <pt x="383" y="516" on="1"/>
        <pt x="382" y="516" on="1"/>
        <pt x="369" y="492" on="0"/>
        <pt x="339" y="449" on="0"/>
      </contour>
    </TTGlyph>
    <TTGlyph name="uni0035" xMin="57" yMin="-10" xMax="504" yMax="660">
      <contour>
        <pt x="126" y="345" on="1"/>
        <pt x="150" y="373" on="0"/>
        <pt x="232" y="412" on="0"/>
        <pt x="296" y="412" on="1"/>
        <pt x="389" y="412" on="0"/>
        <pt x="504" y="297" on="0"/>
        <pt x="504" y="203" on="1"/>
        <pt x="504" y="106" on="0"/>
        <pt x="385" y="-10" on="0"/>
        <pt x="285" y="-10" on="1"/>
        <pt x="102" y="-10" on="0"/>
        <pt x="57" y="145" on="1"/>
        <pt x="105" y="169" on="1"/>
        <pt x="134" y="36" on="0"/>
        <pt x="283" y="36" on="1"/>
        <pt x="360" y="36" on="0"/>
        <pt x="452" y="127" on="0"/>
        <pt x="452" y="201" on="1"/>
        <pt x="451" y="278" on="0"/>
        <pt x="363" y="366" on="0"/>
        <pt x="289" y="366" on="1"/>
        <pt x="225" y="366" on="0"/>
        <pt x="142" y="324" on="0"/>
        <pt x="119" y="292" on="1"/>
        <pt x="75" y="292" on="1"/>
        <pt x="111" y="660" on="1"/>
        <pt x="476" y="660" on="1"/>
        <pt x="476" y="614" on="1"/>
        <pt x="153" y="614" on="1"/>
        <pt x="127" y="358" on="1"/>
        <pt x="125" y="345" on="1"/>
      </contour>
    </TTGlyph>
    <TTGlyph name="uni0035.dnom" xMin="31" yMin="-9" xMax="315" yMax="393">
      <component glyphName="uni2075" x="0" y="-337" flags="0x4"/>
    </TTGlyph>
    <TTGlyph name="uni0035.numr" xMin="31" yMin="263" xMax="315" yMax="665">
      <component glyphName="uni2075" x="0" y="-65" flags="0x4"/>
    </TTGlyph>
    <TTGlyph name="uni0035.osf" xMin="53" yMin="-110" xMax="500" yMax="560">
      <contour>
        <pt x="121" y="245" on="1"/>
        <pt x="146" y="273" on="0"/>
        <pt x="229" y="312" on="0"/>
        <pt x="293" y="312" on="1"/>
        <pt x="385" y="312" on="0"/>
        <pt x="500" y="197" on="0"/>
        <pt x="500" y="103" on="1"/>
        <pt x="500" y="6" on="0"/>
        <pt x="381" y="-110" on="0"/>
        <pt x="281" y="-110" on="1"/>
        <pt x="98" y="-110" on="0"/>
        <pt x="53" y="45" on="1"/>
        <pt x="99" y="69" on="1"/>
        <pt x="128" y="-67" on="0"/>
        <pt x="281" y="-67" on="1"/>
        <pt x="358" y="-67" on="0"/>
        <pt x="450" y="25" on="0"/>
        <pt x="450" y="101" on="1"/>
        <pt x="450" y="178" on="0"/>
        <pt x="362" y="270" on="0"/>
        <pt x="285" y="270" on="1"/>
        <pt x="221" y="270" on="0"/>
        <pt x="139" y="224" on="0"/>
        <pt x="116" y="192" on="1"/>
        <pt x="71" y="192" on="1"/>
        <pt x="107" y="560" on="1"/>
        <pt x="472" y="560" on="1"/>
        <pt x="472" y="517" on="1"/>
        <pt x="148" y="517" on="1"/>
        <pt x="122" y="258" on="1"/>
        <pt x="120" y="245" on="1"/>
      </contour>
    </TTGlyph>
    <TTGlyph name="uni0035.sc" xMin="45" yMin="-8" xMax="446" yMax="560">
      <contour>
        <pt x="112" y="292" on="1"/>
        <pt x="132" y="315" on="0"/>
        <pt x="201" y="350" on="0"/>
        <pt x="262" y="350" on="1"/>
        <pt x="345" y="350" on="0"/>
        <pt x="446" y="252" on="0"/>
        <pt x="446" y="174" on="1"/>
        <pt x="446" y="89" on="0"/>
        <pt x="338" y="-8" on="0"/>
        <pt x="250" y="-8" on="1"/>
        <pt x="171" y="-8" on="0"/>
        <pt x="67" y="53" on="0"/>
        <pt x="45" y="121" on="1"/>
        <pt x="91" y="145" on="1"/>
        <pt x="117" y="35" on="0"/>
        <pt x="248" y="35" on="1"/>
        <pt x="316" y="35" on="0"/>
        <pt x="396" y="111" on="0"/>
        <pt x="396" y="172" on="1"/>
        <pt x="395" y="234" on="0"/>
        <pt x="318" y="307" on="0"/>
        <pt x="253" y="307" on="1"/>
        <pt x="199" y="307" on="0"/>
        <pt x="124" y="273" on="0"/>
        <pt x="104" y="247" on="1"/>
        <pt x="62" y="249" on="1"/>
        <pt x="94" y="560" on="1"/>
        <pt x="421" y="560" on="1"/>
        <pt x="421" y="517" on="1"/>
        <pt x="134" y="517" on="1"/>
        <pt x="114" y="313" on="1"/>
        <pt x="111" y="292" on="1"/>
      </contour>
    </TTGlyph>
    <TTGlyph name="uni0035.tf" xMin="84" yMin="-10" xMax="531" yMax="660">
      <component glyphName="uni0035" x="27" y="0" flags="0x4"/>
    </TTGlyph>
    <TTGlyph name="uni0035.tosf" xMin="85" yMin="-110" xMax="532" yMax="560">
      <component glyphName="uni0035.osf" x="32" y="0" flags="0x4"/>
    </TTGlyph>
    <TTGlyph name="uni0036" xMin="64" yMin="-10" xMax="524" yMax="670">
      <contour>
        <pt x="64" y="330" on="1"/>
        <pt x="64" y="498" on="0"/>
        <pt x="209" y="670" on="0"/>
        <pt x="317" y="670" on="1"/>
        <pt x="393" y="670" on="0"/>
        <pt x="485" y="603" on="0"/>
        <pt x="509" y="540" on="1"/>
        <pt x="463" y="518" on="1"/>
        <pt x="449" y="565" on="0"/>
        <pt x="376" y="624" on="0"/>
        <pt x="314" y="624" on="1"/>
        <pt x="211" y="624" on="0"/>
        <pt x="110" y="438" on="0"/>
        <pt x="110" y="316" on="1"/>
        <pt x="110" y="289" on="0"/>
        <pt x="115" y="249" on="1"/>
        <pt x="118" y="249" on="1"/>
        <pt x="125" y="326" on="0"/>
        <pt x="245" y="407" on="0"/>
        <pt x="310" y="407" on="1"/>
        <pt x="409" y="407" on="0"/>
        <pt x="524" y="293" on="0"/>
        <pt x="524" y="198" on="1"/>
        <pt x="524" y="103" on="0"/>
        <pt x="406" y="-10" on="0"/>
        <pt x="306" y="-10" on="1"/>
        <pt x="187" y="-10" on="0"/>
        <pt x="64" y="173" on="0"/>
      </contour>
      <contour>
        <pt x="472" y="200" on="1"/>
        <pt x="472" y="272" on="0"/>
        <pt x="384" y="360" on="0"/>
        <pt x="307" y="360" on="1"/>
        <pt x="232" y="360" on="0"/>
        <pt x="141" y="264" on="0"/>
        <pt x="141" y="200" on="1"/>
        <pt x="141" y="129" on="0"/>
        <pt x="232" y="37" on="0"/>
        <pt x="305" y="37" on="1"/>
        <pt x="383" y="37" on="0"/>
        <pt x="472" y="125" on="0"/>
      </contour>
    </TTGlyph>
    <TTGlyph name="uni0036.dnom" xMin="36" yMin="-10" xMax="326" yMax="398">
      <component glyphName="uni2076" x="0" y="-337" flags="0x4"/>
    </TTGlyph>
    <TTGlyph name="uni0036.numr" xMin="36" yMin="262" xMax="326" yMax="670">
      <component glyphName="uni2076" x="0" y="-65" flags="0x4"/>
    </TTGlyph>
    <TTGlyph name="uni0036.osf" xMin="58" yMin="-10" xMax="518" yMax="670">
      <contour>
        <pt x="58" y="330" on="1"/>
        <pt x="58" y="498" on="0"/>
        <pt x="204" y="670" on="0"/>
        <pt x="313" y="670" on="1"/>
        <pt x="388" y="670" on="0"/>
        <pt x="480" y="603" on="0"/>
        <pt x="504" y="540" on="1"/>
        <pt x="459" y="519" on="1"/>
        <pt x="445" y="567" on="0"/>
        <pt x="375" y="627" on="0"/>
        <pt x="312" y="627" on="1"/>
        <pt x="204" y="627" on="0"/>
        <pt x="105" y="439" on="0"/>
        <pt x="105" y="316" on="1"/>
        <pt x="105" y="284" on="0"/>
        <pt x="110" y="246" on="1"/>
        <pt x="113" y="246" on="1"/>
        <pt x="120" y="326" on="0"/>
        <pt x="241" y="407" on="0"/>
        <pt x="306" y="407" on="1"/>
        <pt x="404" y="407" on="0"/>
        <pt x="518" y="293" on="0"/>
        <pt x="518" y="198" on="1"/>
        <pt x="518" y="103" on="0"/>
        <pt x="401" y="-10" on="0"/>
        <pt x="302" y="-10" on="1"/>
        <pt x="182" y="-10" on="0"/>
        <pt x="58" y="173" on="0"/>
      </contour>
      <contour>
        <pt x="468" y="200" on="1"/>
        <pt x="468" y="275" on="0"/>
        <pt x="380" y="365" on="0"/>
        <pt x="303" y="365" on="1"/>
        <pt x="227" y="365" on="0"/>
        <pt x="135" y="266" on="0"/>
        <pt x="135" y="200" on="1"/>
        <pt x="135" y="127" on="0"/>
        <pt x="227" y="33" on="0"/>
        <pt x="301" y="33" on="1"/>
        <pt x="379" y="33" on="0"/>
        <pt x="468" y="123" on="0"/>
      </contour>
    </TTGlyph>
    <TTGlyph name="uni0036.sc" xMin="51" yMin="-8" xMax="461" yMax="568">
      <contour>
        <pt x="461" y="168" on="1"/>
        <pt x="461" y="88" on="0"/>
        <pt x="358" y="-8" on="0"/>
        <pt x="271" y="-8" on="1"/>
        <pt x="162" y="-8" on="0"/>
        <pt x="51" y="140" on="0"/>
        <pt x="51" y="278" on="1"/>
        <pt x="51" y="423" on="0"/>
        <pt x="181" y="568" on="0"/>
        <pt x="278" y="568" on="1"/>
        <pt x="346" y="568" on="0"/>
        <pt x="428" y="511" on="0"/>
        <pt x="450" y="458" on="1"/>
        <pt x="405" y="437" on="1"/>
        <pt x="392" y="476" on="0"/>
        <pt x="331" y="525" on="0"/>
        <pt x="276" y="525" on="1"/>
        <pt x="185" y="525" on="0"/>
        <pt x="97" y="372" on="0"/>
        <pt x="97" y="273" on="1"/>
        <pt x="97" y="257" on="0"/>
        <pt x="100" y="229" on="0"/>
        <pt x="101" y="215" on="1"/>
        <pt x="104" y="215" on="1"/>
        <pt x="112" y="275" on="0"/>
        <pt x="214" y="344" on="0"/>
        <pt x="272" y="344" on="1"/>
        <pt x="361" y="344" on="0"/>
        <pt x="461" y="248" on="0"/>
      </contour>
      <contour>
        <pt x="123" y="169" on="1"/>
        <pt x="123" y="110" on="0"/>
        <pt x="202" y="35" on="0"/>
        <pt x="266" y="35" on="1"/>
        <pt x="334" y="35" on="0"/>
        <pt x="411" y="108" on="0"/>
        <pt x="411" y="169" on="1"/>
        <pt x="411" y="229" on="0"/>
        <pt x="335" y="301" on="0"/>
        <pt x="269" y="301" on="1"/>
        <pt x="203" y="301" on="0"/>
        <pt x="123" y="221" on="0"/>
      </contour>
    </TTGlyph>
    <TTGlyph name="uni0036.tf" xMin="83" yMin="-10" xMax="549" yMax="670">
      <contour>
        <pt x="83" y="330" on="1"/>
        <pt x="83" y="498" on="0"/>
        <pt x="231" y="670" on="0"/>
        <pt x="340" y="670" on="1"/>
        <pt x="417" y="670" on="0"/>
        <pt x="510" y="603" on="0"/>
        <pt x="535" y="540" on="1"/>
        <pt x="488" y="518" on="1"/>
        <pt x="473" y="565" on="0"/>
        <pt x="401" y="624" on="0"/>
        <pt x="337" y="624" on="1"/>
        <pt x="232" y="624" on="0"/>
        <pt x="130" y="438" on="0"/>
        <pt x="130" y="316" on="1"/>
        <pt x="130" y="291" on="0"/>
        <pt x="135" y="249" on="1"/>
        <pt x="138" y="249" on="1"/>
        <pt x="147" y="327" on="0"/>
        <pt x="266" y="407" on="0"/>
        <pt x="333" y="407" on="1"/>
        <pt x="433" y="407" on="0"/>
        <pt x="549" y="293" on="0"/>
        <pt x="549" y="198" on="1"/>
        <pt x="549" y="103" on="0"/>
        <pt x="430" y="-10" on="0"/>
        <pt x="329" y="-10" on="1"/>
        <pt x="208" y="-10" on="0"/>
        <pt x="83" y="173" on="0"/>
      </contour>
      <contour>
        <pt x="497" y="200" on="1"/>
        <pt x="497" y="272" on="0"/>
        <pt x="407" y="360" on="0"/>
        <pt x="330" y="360" on="1"/>
        <pt x="254" y="360" on="0"/>
        <pt x="160" y="264" on="0"/>
        <pt x="160" y="200" on="1"/>
        <pt x="160" y="129" on="0"/>
        <pt x="253" y="37" on="0"/>
        <pt x="328" y="37" on="1"/>
        <pt x="407" y="37" on="0"/>
        <pt x="497" y="125" on="0"/>
      </contour>
    </TTGlyph>
    <TTGlyph name="uni0036.tosf" xMin="80" yMin="-10" xMax="540" yMax="670">
      <component glyphName="uni0036.osf" x="22" y="0" flags="0x4"/>
    </TTGlyph>
    <TTGlyph name="uni0037" xMin="32" yMin="0" xMax="507" yMax="660">
      <contour>
        <pt x="256" y="0" on="1"/>
        <pt x="204" y="0" on="1"/>
        <pt x="211" y="173" on="0"/>
        <pt x="332" y="484" on="0"/>
        <pt x="453" y="614" on="1"/>
        <pt x="32" y="614" on="1"/>
        <pt x="32" y="660" on="1"/>
        <pt x="507" y="660" on="1"/>
        <pt x="507" y="614" on="1"/>
        <pt x="384" y="484" on="0"/>
        <pt x="264" y="182" on="0"/>
      </contour>
    </TTGlyph>
    <TTGlyph name="uni0037.dnom" xMin="4" yMin="-4" xMax="296" yMax="393">
      <component glyphName="uni2077" x="0" y="-337" flags="0x4"/>
    </TTGlyph>
    <TTGlyph name="uni0037.numr" xMin="4" yMin="268" xMax="296" yMax="665">
      <component glyphName="uni2077" x="0" y="-65" flags="0x4"/>
    </TTGlyph>
    <TTGlyph name="uni0037.osf" xMin="16" yMin="-100" xMax="491" yMax="560">
      <contour>
        <pt x="240" y="-100" on="1"/>
        <pt x="189" y="-100" on="1"/>
        <pt x="196" y="74" on="0"/>
        <pt x="317" y="386" on="0"/>
        <pt x="440" y="516" on="1"/>
        <pt x="16" y="516" on="1"/>
        <pt x="16" y="560" on="1"/>
        <pt x="491" y="560" on="1"/>
        <pt x="491" y="514" on="1"/>
        <pt x="364" y="379" on="0"/>
        <pt x="248" y="82" on="0"/>
      </contour>
    </TTGlyph>
    <TTGlyph name="uni0037.sc" xMin="31" yMin="0" xMax="457" yMax="560">
      <contour>
        <pt x="234" y="0" on="1"/>
        <pt x="184" y="0" on="1"/>
        <pt x="191" y="146" on="0"/>
        <pt x="298" y="409" on="0"/>
        <pt x="404" y="517" on="1"/>
        <pt x="31" y="517" on="1"/>
        <pt x="31" y="560" on="1"/>
        <pt x="457" y="560" on="1"/>
        <pt x="457" y="518" on="1"/>
        <pt x="348" y="409" on="0"/>
        <pt x="242" y="154" on="0"/>
      </contour>
    </TTGlyph>
    <TTGlyph name="uni0037.tf" xMin="56" yMin="0" xMax="568" yMax="660">
      <contour>
        <pt x="296" y="0" on="1"/>
        <pt x="244" y="0" on="1"/>
        <pt x="249" y="174" on="0"/>
        <pt x="382" y="484" on="0"/>
        <pt x="513" y="614" on="1"/>
        <pt x="56" y="614" on="1"/>
        <pt x="56" y="660" on="1"/>
        <pt x="568" y="660" on="1"/>
        <pt x="568" y="614" on="1"/>
        <pt x="306" y="355" on="0"/>
      </contour>
    </TTGlyph>
    <TTGlyph name="uni0037.tosf" xMin="64" yMin="-100" xMax="539" yMax="560">
      <contour>
        <pt x="288" y="-100" on="1"/>
        <pt x="238" y="-100" on="1"/>
        <pt x="245" y="74" on="0"/>
        <pt x="365" y="386" on="0"/>
        <pt x="488" y="516" on="1"/>
        <pt x="64" y="516" on="1"/>
        <pt x="64" y="560" on="1"/>
        <pt x="539" y="560" on="1"/>
        <pt x="539" y="514" on="1"/>
        <pt x="416" y="384" on="0"/>
        <pt x="296" y="82" on="0"/>
      </contour>
    </TTGlyph>
    <TTGlyph name="uni0038" xMin="62" yMin="-10" xMax="529" yMax="669">
      <contour>
        <pt x="91" y="502" on="1"/>
        <pt x="91" y="579" on="0"/>
        <pt x="202" y="669" on="0"/>
        <pt x="295" y="669" on="1"/>
        <pt x="388" y="669" on="0"/>
        <pt x="500" y="579" on="0"/>
        <pt x="500" y="502" on="1"/>
        <pt x="500" y="383" on="0"/>
        <pt x="383" y="348" on="1"/>
        <pt x="383" y="347" on="1"/>
        <pt x="450" y="330" on="0"/>
        <pt x="529" y="239" on="0"/>
        <pt x="529" y="174" on="1"/>
        <pt x="529" y="91" on="0"/>
        <pt x="400" y="-10" on="0"/>
        <pt x="295" y="-10" on="1"/>
        <pt x="192" y="-10" on="0"/>
        <pt x="62" y="91" on="0"/>
        <pt x="62" y="174" on="1"/>
        <pt x="62" y="239" on="0"/>
        <pt x="141" y="330" on="0"/>
        <pt x="208" y="347" on="1"/>
        <pt x="208" y="348" on="1"/>
        <pt x="91" y="383" on="0"/>
      </contour>
      <contour>
        <pt x="448" y="497" on="1"/>
        <pt x="448" y="556" on="0"/>
        <pt x="365" y="623" on="0"/>
        <pt x="295" y="623" on="1"/>
        <pt x="225" y="623" on="0"/>
        <pt x="143" y="556" on="0"/>
        <pt x="143" y="497" on="1"/>
        <pt x="143" y="439" on="0"/>
        <pt x="226" y="370" on="0"/>
        <pt x="295" y="370" on="1"/>
        <pt x="364" y="370" on="0"/>
        <pt x="448" y="439" on="0"/>
      </contour>
      <contour>
        <pt x="114" y="178" on="1"/>
        <pt x="114" y="114" on="0"/>
        <pt x="213" y="36" on="0"/>
        <pt x="295" y="36" on="1"/>
        <pt x="378" y="36" on="0"/>
        <pt x="477" y="114" on="0"/>
        <pt x="477" y="178" on="1"/>
        <pt x="477" y="243" on="0"/>
        <pt x="377" y="323" on="0"/>
        <pt x="295" y="323" on="1"/>
        <pt x="214" y="323" on="0"/>
        <pt x="114" y="243" on="0"/>
      </contour>
    </TTGlyph>
    <TTGlyph name="uni0038.dnom" xMin="35" yMin="-10" xMax="331" yMax="397">
      <component glyphName="uni2078" x="0" y="-337" flags="0x4"/>
    </TTGlyph>
    <TTGlyph name="uni0038.numr" xMin="35" yMin="262" xMax="331" yMax="669">
      <component glyphName="uni2078" x="0" y="-65" flags="0x4"/>
    </TTGlyph>
    <TTGlyph name="uni0038.osf" xMin="57" yMin="-10" xMax="520" yMax="669">
      <contour>
        <pt x="86" y="502" on="1"/>
        <pt x="86" y="579" on="0"/>
        <pt x="196" y="669" on="0"/>
        <pt x="288" y="669" on="1"/>
        <pt x="380" y="669" on="0"/>
        <pt x="491" y="579" on="0"/>
        <pt x="491" y="502" on="1"/>
        <pt x="491" y="383" on="0"/>
        <pt x="376" y="348" on="1"/>
        <pt x="376" y="347" on="1"/>
        <pt x="442" y="330" on="0"/>
        <pt x="520" y="239" on="0"/>
        <pt x="520" y="174" on="1"/>
        <pt x="520" y="91" on="0"/>
        <pt x="392" y="-10" on="0"/>
        <pt x="288" y="-10" on="1"/>
        <pt x="185" y="-10" on="0"/>
        <pt x="57" y="91" on="0"/>
        <pt x="57" y="174" on="1"/>
        <pt x="57" y="239" on="0"/>
        <pt x="135" y="330" on="0"/>
        <pt x="201" y="347" on="1"/>
        <pt x="201" y="348" on="1"/>
        <pt x="148" y="365" on="0"/>
        <pt x="86" y="445" on="0"/>
      </contour>
      <contour>
        <pt x="441" y="499" on="1"/>
        <pt x="441" y="558" on="0"/>
        <pt x="358" y="627" on="0"/>
        <pt x="288" y="627" on="1"/>
        <pt x="219" y="627" on="0"/>
        <pt x="136" y="558" on="0"/>
        <pt x="136" y="499" on="1"/>
        <pt x="136" y="440" on="0"/>
        <pt x="219" y="369" on="0"/>
        <pt x="288" y="369" on="1"/>
        <pt x="358" y="369" on="0"/>
        <pt x="441" y="440" on="0"/>
      </contour>
      <contour>
        <pt x="107" y="178" on="1"/>
        <pt x="107" y="112" on="0"/>
        <pt x="206" y="33" on="0"/>
        <pt x="288" y="33" on="1"/>
        <pt x="371" y="33" on="0"/>
        <pt x="470" y="112" on="0"/>
        <pt x="470" y="178" on="1"/>
        <pt x="470" y="244" on="0"/>
        <pt x="371" y="325" on="0"/>
        <pt x="288" y="325" on="1"/>
        <pt x="206" y="325" on="0"/>
        <pt x="107" y="244" on="0"/>
      </contour>
    </TTGlyph>
    <TTGlyph name="uni0038.sc" xMin="56" yMin="-8" xMax="475" yMax="567">
      <contour>
        <pt x="475" y="148" on="1"/>
        <pt x="475" y="77" on="0"/>
        <pt x="360" y="-8" on="0"/>
        <pt x="265" y="-8" on="1"/>
        <pt x="171" y="-8" on="0"/>
        <pt x="56" y="77" on="0"/>
        <pt x="56" y="148" on="1"/>
        <pt x="56" y="202" on="0"/>
        <pt x="128" y="280" on="0"/>
        <pt x="188" y="293" on="1"/>
        <pt x="188" y="294" on="1"/>
        <pt x="79" y="324" on="0"/>
        <pt x="79" y="424" on="1"/>
        <pt x="79" y="490" on="0"/>
        <pt x="180" y="567" on="0"/>
        <pt x="265" y="567" on="1"/>
        <pt x="351" y="567" on="0"/>
        <pt x="453" y="490" on="0"/>
        <pt x="453" y="424" on="1"/>
        <pt x="453" y="376" on="0"/>
        <pt x="394" y="308" on="0"/>
        <pt x="344" y="294" on="1"/>
        <pt x="344" y="293" on="1"/>
        <pt x="403" y="279" on="0"/>
        <pt x="475" y="202" on="0"/>
      </contour>
      <contour>
        <pt x="128" y="421" on="1"/>
        <pt x="128" y="373" on="0"/>
        <pt x="204" y="314" on="0"/>
        <pt x="265" y="314" on="1"/>
        <pt x="327" y="314" on="0"/>
        <pt x="403" y="373" on="0"/>
        <pt x="403" y="421" on="1"/>
        <pt x="403" y="470" on="0"/>
        <pt x="328" y="525" on="0"/>
        <pt x="265" y="525" on="1"/>
        <pt x="203" y="525" on="0"/>
        <pt x="128" y="470" on="0"/>
      </contour>
      <contour>
        <pt x="106" y="151" on="1"/>
        <pt x="106" y="99" on="0"/>
        <pt x="194" y="34" on="0"/>
        <pt x="265" y="34" on="1"/>
        <pt x="338" y="34" on="0"/>
        <pt x="425" y="99" on="0"/>
        <pt x="425" y="151" on="1"/>
        <pt x="425" y="205" on="0"/>
        <pt x="337" y="271" on="0"/>
        <pt x="265" y="271" on="1"/>
        <pt x="195" y="271" on="0"/>
        <pt x="106" y="205" on="0"/>
      </contour>
    </TTGlyph>
    <TTGlyph name="uni0038.tf" xMin="75" yMin="-10" xMax="529" yMax="669">
      <contour>
        <pt x="103" y="502" on="1"/>
        <pt x="103" y="579" on="0"/>
        <pt x="211" y="669" on="0"/>
        <pt x="302" y="669" on="1"/>
        <pt x="392" y="669" on="0"/>
        <pt x="500" y="579" on="0"/>
        <pt x="500" y="502" on="1"/>
        <pt x="500" y="445" on="0"/>
        <pt x="440" y="365" on="0"/>
        <pt x="388" y="348" on="1"/>
        <pt x="388" y="347" on="1"/>
        <pt x="452" y="330" on="0"/>
        <pt x="529" y="239" on="0"/>
        <pt x="529" y="174" on="1"/>
        <pt x="529" y="91" on="0"/>
        <pt x="403" y="-10" on="0"/>
        <pt x="302" y="-10" on="1"/>
        <pt x="201" y="-10" on="0"/>
        <pt x="75" y="91" on="0"/>
        <pt x="75" y="174" on="1"/>
        <pt x="75" y="239" on="0"/>
        <pt x="153" y="330" on="0"/>
        <pt x="217" y="347" on="1"/>
        <pt x="217" y="348" on="1"/>
        <pt x="165" y="365" on="0"/>
        <pt x="103" y="445" on="0"/>
      </contour>
      <contour>
        <pt x="449" y="497" on="1"/>
        <pt x="449" y="556" on="0"/>
        <pt x="369" y="623" on="0"/>
        <pt x="302" y="623" on="1"/>
        <pt x="235" y="623" on="0"/>
        <pt x="155" y="556" on="0"/>
        <pt x="155" y="497" on="1"/>
        <pt x="155" y="439" on="0"/>
        <pt x="236" y="370" on="0"/>
        <pt x="302" y="370" on="1"/>
        <pt x="368" y="370" on="0"/>
        <pt x="449" y="439" on="0"/>
      </contour>
      <contour>
        <pt x="126" y="178" on="1"/>
        <pt x="126" y="114" on="0"/>
        <pt x="223" y="36" on="0"/>
        <pt x="302" y="36" on="1"/>
        <pt x="382" y="36" on="0"/>
        <pt x="477" y="114" on="0"/>
        <pt x="477" y="178" on="1"/>
        <pt x="477" y="243" on="0"/>
        <pt x="381" y="323" on="0"/>
        <pt x="302" y="323" on="1"/>
        <pt x="223" y="323" on="0"/>
        <pt x="126" y="243" on="0"/>
      </contour>
    </TTGlyph>
    <TTGlyph name="uni0038.tosf" xMin="69" yMin="-10" xMax="532" yMax="669">
      <component glyphName="uni0038.osf" x="12" y="0" flags="0x4"/>
    </TTGlyph>
    <TTGlyph name="uni0039" xMin="64" yMin="-10" xMax="530" yMax="670">
      <contour>
        <pt x="453" y="460" on="1"/>
        <pt x="453" y="531" on="0"/>
        <pt x="360" y="623" on="0"/>
        <pt x="286" y="623" on="1"/>
        <pt x="207" y="623" on="0"/>
        <pt x="116" y="535" on="0"/>
        <pt x="116" y="460" on="1"/>
        <pt x="116" y="387" on="0"/>
        <pt x="206" y="300" on="0"/>
        <pt x="284" y="300" on="1"/>
        <pt x="359" y="300" on="0"/>
        <pt x="453" y="396" on="0"/>
      </contour>
      <contour>
        <pt x="64" y="462" on="1"/>
        <pt x="64" y="557" on="0"/>
        <pt x="184" y="670" on="0"/>
        <pt x="285" y="670" on="1"/>
        <pt x="404" y="670" on="0"/>
        <pt x="530" y="486" on="0"/>
        <pt x="530" y="330" on="1"/>
        <pt x="530" y="162" on="0"/>
        <pt x="399" y="-10" on="0"/>
        <pt x="286" y="-10" on="1"/>
        <pt x="199" y="-10" on="0"/>
        <pt x="88" y="67" on="0"/>
        <pt x="66" y="135" on="1"/>
        <pt x="116" y="161" on="1"/>
        <pt x="130" y="106" on="0"/>
        <pt x="207" y="36" on="0"/>
        <pt x="285" y="36" on="1"/>
        <pt x="398" y="36" on="0"/>
        <pt x="485" y="219" on="0"/>
        <pt x="485" y="346" on="1"/>
        <pt x="485" y="364" on="0"/>
        <pt x="481" y="399" on="0"/>
        <pt x="479" y="415" on="1"/>
        <pt x="476" y="415" on="1"/>
        <pt x="470" y="331" on="0"/>
        <pt x="346" y="253" on="0"/>
        <pt x="280" y="253" on="1"/>
        <pt x="182" y="253" on="0"/>
        <pt x="64" y="366" on="0"/>
      </contour>
    </TTGlyph>
    <TTGlyph name="uni0039.dnom" xMin="36" yMin="-10" xMax="330" yMax="398">
      <component glyphName="uni2079" x="0" y="-337" flags="0x4"/>
    </TTGlyph>
    <TTGlyph name="uni0039.numr" xMin="36" yMin="262" xMax="330" yMax="670">
      <component glyphName="uni2079" x="0" y="-65" flags="0x4"/>
    </TTGlyph>
    <TTGlyph name="uni0039.osf" xMin="64" yMin="-110" xMax="530" yMax="570">
      <contour>
        <pt x="454" y="360" on="1"/>
        <pt x="454" y="434" on="0"/>
        <pt x="361" y="527" on="0"/>
        <pt x="286" y="527" on="1"/>
        <pt x="206" y="527" on="0"/>
        <pt x="114" y="437" on="0"/>
        <pt x="114" y="360" on="1"/>
        <pt x="114" y="285" on="0"/>
        <pt x="205" y="195" on="0"/>
        <pt x="284" y="195" on="1"/>
        <pt x="359" y="195" on="0"/>
        <pt x="454" y="295" on="0"/>
      </contour>
      <contour>
        <pt x="64" y="362" on="1"/>
        <pt x="64" y="457" on="0"/>
        <pt x="184" y="570" on="0"/>
        <pt x="285" y="570" on="1"/>
        <pt x="404" y="570" on="0"/>
        <pt x="530" y="386" on="0"/>
        <pt x="530" y="230" on="1"/>
        <pt x="530" y="69" on="0"/>
        <pt x="399" y="-110" on="0"/>
        <pt x="286" y="-110" on="1"/>
        <pt x="199" y="-110" on="0"/>
        <pt x="88" y="-33" on="0"/>
        <pt x="66" y="35" on="1"/>
        <pt x="113" y="60" on="1"/>
        <pt x="124" y="2" on="0"/>
        <pt x="207" y="-67" on="0"/>
        <pt x="285" y="-67" on="1"/>
        <pt x="389" y="-67" on="0"/>
        <pt x="485" y="109" on="0"/>
        <pt x="485" y="232" on="1"/>
        <pt x="485" y="254" on="0"/>
        <pt x="481" y="296" on="0"/>
        <pt x="478" y="318" on="1"/>
        <pt x="475" y="318" on="1"/>
        <pt x="471" y="236" on="0"/>
        <pt x="350" y="153" on="0"/>
        <pt x="280" y="153" on="1"/>
        <pt x="182" y="153" on="0"/>
        <pt x="64" y="266" on="0"/>
      </contour>
    </TTGlyph>
    <TTGlyph name="uni0039.sc" xMin="52" yMin="-8" xMax="468" yMax="568">
      <contour>
        <pt x="102" y="391" on="1"/>
        <pt x="102" y="330" on="0"/>
        <pt x="182" y="258" on="0"/>
        <pt x="249" y="258" on="1"/>
        <pt x="317" y="258" on="0"/>
        <pt x="397" y="338" on="0"/>
        <pt x="397" y="390" on="1"/>
        <pt x="397" y="448" on="0"/>
        <pt x="315" y="525" on="0"/>
        <pt x="251" y="525" on="1"/>
        <pt x="182" y="525" on="0"/>
        <pt x="102" y="453" on="0"/>
      </contour>
      <contour>
        <pt x="468" y="280" on="1"/>
        <pt x="468" y="138" on="0"/>
        <pt x="351" y="-8" on="0"/>
        <pt x="250" y="-8" on="1"/>
        <pt x="94" y="-8" on="0"/>
        <pt x="54" y="113" on="1"/>
        <pt x="102" y="137" on="1"/>
        <pt x="113" y="91" on="0"/>
        <pt x="183" y="35" on="0"/>
        <pt x="250" y="35" on="1"/>
        <pt x="348" y="35" on="0"/>
        <pt x="423" y="185" on="0"/>
        <pt x="423" y="285" on="1"/>
        <pt x="423" y="315" on="0"/>
        <pt x="418" y="348" on="1"/>
        <pt x="416" y="348" on="1"/>
        <pt x="409" y="280" on="0"/>
        <pt x="303" y="214" on="0"/>
        <pt x="250" y="214" on="1"/>
        <pt x="158" y="214" on="0"/>
        <pt x="52" y="311" on="0"/>
        <pt x="52" y="391" on="1"/>
        <pt x="52" y="472" on="0"/>
        <pt x="160" y="568" on="0"/>
        <pt x="251" y="568" on="1"/>
        <pt x="355" y="568" on="0"/>
        <pt x="468" y="414" on="0"/>
      </contour>
    </TTGlyph>
    <TTGlyph name="uni0039.tf" xMin="67" yMin="-10" xMax="533" yMax="670">
      <contour>
        <pt x="456" y="460" on="1"/>
        <pt x="456" y="531" on="0"/>
        <pt x="363" y="623" on="0"/>
        <pt x="289" y="623" on="1"/>
        <pt x="210" y="623" on="0"/>
        <pt x="119" y="535" on="0"/>
        <pt x="119" y="460" on="1"/>
        <pt x="119" y="387" on="0"/>
        <pt x="209" y="300" on="0"/>
        <pt x="287" y="300" on="1"/>
        <pt x="361" y="300" on="0"/>
        <pt x="456" y="396" on="0"/>
      </contour>
      <contour>
        <pt x="67" y="462" on="1"/>
        <pt x="67" y="557" on="0"/>
        <pt x="187" y="670" on="0"/>
        <pt x="288" y="670" on="1"/>
        <pt x="407" y="670" on="0"/>
        <pt x="533" y="486" on="0"/>
        <pt x="533" y="330" on="1"/>
        <pt x="533" y="162" on="0"/>
        <pt x="402" y="-10" on="0"/>
        <pt x="289" y="-10" on="1"/>
        <pt x="202" y="-10" on="0"/>
        <pt x="91" y="67" on="0"/>
        <pt x="69" y="135" on="1"/>
        <pt x="119" y="161" on="1"/>
        <pt x="133" y="106" on="0"/>
        <pt x="210" y="36" on="0"/>
        <pt x="288" y="36" on="1"/>
        <pt x="401" y="36" on="0"/>
        <pt x="488" y="219" on="0"/>
        <pt x="488" y="346" on="1"/>
        <pt x="488" y="364" on="0"/>
        <pt x="484" y="399" on="0"/>
        <pt x="482" y="415" on="1"/>
        <pt x="479" y="415" on="1"/>
        <pt x="473" y="331" on="0"/>
        <pt x="349" y="253" on="0"/>
        <pt x="283" y="253" on="1"/>
        <pt x="185" y="253" on="0"/>
        <pt x="67" y="366" on="0"/>
      </contour>
    </TTGlyph>
    <TTGlyph name="uni0039.tosf" xMin="62" yMin="-110" xMax="528" yMax="570">
      <component glyphName="uni0039.osf" x="-2" y="0" flags="0x4"/>
    </TTGlyph>
    <TTGlyph name="uni003A" xMin="79" yMin="-8" xMax="169" yMax="505">
      <component glyphName="uni002E" x="14" y="423" flags="0x4"/>
      <component glyphName="uni002E" x="14" y="0" flags="0x4"/>
    </TTGlyph>
    <TTGlyph name="uni003A.tf" xMin="106" yMin="-8" xMax="196" yMax="505">
      <component glyphName="uni002E" x="41" y="423" flags="0x4"/>
      <component glyphName="uni002E" x="41" y="0" flags="0x4"/>
    </TTGlyph>
    <TTGlyph name="uni003B" xMin="66" yMin="-128" xMax="180" yMax="506">
      <component glyphName="uni002C" x="14" y="0" flags="0x4"/>
      <component glyphName="uni002E" x="238" y="498" scale="-1.0" flags="0x4"/>
    </TTGlyph>
    <TTGlyph name="uni003B.tf" xMin="94" yMin="-128" xMax="208" yMax="506">
      <component glyphName="uni002C" x="42" y="0" flags="0x4"/>
      <component glyphName="uni002E" x="267" y="498" scale="-1.0" flags="0x4"/>
    </TTGlyph>
    <TTGlyph name="uni003C" xMin="80" yMin="42" xMax="540" yMax="557">
      <contour>
        <pt x="540" y="42" on="1"/>
        <pt x="80" y="270" on="1"/>
        <pt x="80" y="329" on="1"/>
        <pt x="540" y="557" on="1"/>
        <pt x="540" y="504" on="1"/>
        <pt x="120" y="300" on="1"/>
        <pt x="540" y="95" on="1"/>
      </contour>
    </TTGlyph>
    <TTGlyph name="uni003D" xMin="75" yMin="184" xMax="529" yMax="432">
      <contour>
        <pt x="75" y="432" on="1"/>
        <pt x="529" y="432" on="1"/>
        <pt x="529" y="386" on="1"/>
        <pt x="75" y="386" on="1"/>
      </contour>
      <contour>
        <pt x="75" y="230" on="1"/>
        <pt x="529" y="230" on="1"/>
        <pt x="529" y="184" on="1"/>
        <pt x="75" y="184" on="1"/>
      </contour>
    </TTGlyph>
    <TTGlyph name="uni003E" xMin="64" yMin="42" xMax="524" yMax="557">
      <component glyphName="uni003C" x="604" y="0" scalex="-1.0" scaley="1.0" flags="0x4"/>
    </TTGlyph>
    <TTGlyph name="uni003F" xMin="35" yMin="-8" xMax="464" yMax="670">
      <contour>
        <pt x="35" y="500" on="1"/>
        <pt x="49" y="578" on="0"/>
        <pt x="161" y="670" on="0"/>
        <pt x="258" y="670" on="1"/>
        <pt x="349" y="670" on="0"/>
        <pt x="464" y="580" on="0"/>
        <pt x="464" y="500" on="1"/>
        <pt x="464" y="415" on="0"/>
        <pt x="362" y="318" on="0"/>
        <pt x="271" y="299" on="1"/>
        <pt x="271" y="181" on="1"/>
        <pt x="220" y="181" on="1"/>
        <pt x="220" y="326" on="1"/>
        <pt x="326" y="350" on="0"/>
        <pt x="412" y="427" on="0"/>
        <pt x="412" y="495" on="1"/>
        <pt x="412" y="554" on="0"/>
        <pt x="329" y="624" on="0"/>
        <pt x="255" y="624" on="1"/>
        <pt x="176" y="624" on="0"/>
        <pt x="88" y="545" on="0"/>
        <pt x="79" y="476" on="1"/>
      </contour>
      <contour>
        <pt x="200" y="37" on="1"/>
        <pt x="200" y="82" on="0"/>
        <pt x="245" y="82" on="1"/>
        <pt x="290" y="82" on="0"/>
        <pt x="290" y="37" on="1"/>
        <pt x="290" y="-8" on="0"/>
        <pt x="245" y="-8" on="1"/>
        <pt x="200" y="-8" on="0"/>
      </contour>
    </TTGlyph>
    <TTGlyph name="uni003F.sc" xMin="26" yMin="-8" xMax="411" yMax="568">
      <contour>
        <pt x="26" y="424" on="1"/>
        <pt x="38" y="490" on="0"/>
        <pt x="137" y="568" on="0"/>
        <pt x="227" y="568" on="1"/>
        <pt x="307" y="568" on="0"/>
        <pt x="411" y="492" on="0"/>
        <pt x="411" y="423" on="1"/>
        <pt x="411" y="350" on="0"/>
        <pt x="322" y="268" on="0"/>
        <pt x="239" y="251" on="1"/>
        <pt x="239" y="158" on="1"/>
        <pt x="190" y="158" on="1"/>
        <pt x="190" y="275" on="1"/>
        <pt x="284" y="295" on="0"/>
        <pt x="359" y="360" on="0"/>
        <pt x="359" y="417" on="1"/>
        <pt x="359" y="467" on="0"/>
        <pt x="287" y="524" on="0"/>
        <pt x="224" y="524" on="1"/>
        <pt x="154" y="524" on="0"/>
        <pt x="80" y="459" on="0"/>
        <pt x="72" y="402" on="1"/>
      </contour>
      <contour>
        <pt x="169" y="35" on="1"/>
        <pt x="169" y="79" on="0"/>
        <pt x="212" y="79" on="1"/>
        <pt x="256" y="79" on="0"/>
        <pt x="256" y="35" on="1"/>
        <pt x="256" y="-8" on="0"/>
        <pt x="212" y="-8" on="1"/>
        <pt x="169" y="-8" on="0"/>
      </contour>
    </TTGlyph>
    <TTGlyph name="uni0040" xMin="60" yMin="-193" xMax="901" yMax="665">
      <contour>
        <pt x="60" y="228" on="1"/>
        <pt x="60" y="425" on="0"/>
        <pt x="296" y="665" on="0"/>
        <pt x="492" y="665" on="1"/>
        <pt x="638" y="665" on="0"/>
        <pt x="818" y="550" on="0"/>
        <pt x="901" y="362" on="0"/>
        <pt x="901" y="253" on="1"/>
        <pt x="901" y="132" on="0"/>
        <pt x="817" y="-7" on="0"/>
        <pt x="745" y="-7" on="1"/>
        <pt x="691" y="-7" on="0"/>
        <pt x="642" y="58" on="0"/>
        <pt x="638" y="112" on="1"/>
        <pt x="615" y="58" on="0"/>
        <pt x="521" y="-5" on="0"/>
        <pt x="453" y="-5" on="1"/>
        <pt x="368" y="-5" on="0"/>
        <pt x="259" y="115" on="0"/>
        <pt x="259" y="218" on="1"/>
        <pt x="259" y="336" on="0"/>
        <pt x="392" y="470" on="0"/>
        <pt x="485" y="470" on="1"/>
        <pt x="556" y="470" on="0"/>
        <pt x="639" y="407" on="0"/>
        <pt x="655" y="356" on="1"/>
        <pt x="666" y="458" on="1"/>
        <pt x="700" y="458" on="1"/>
        <pt x="679" y="141" on="1"/>
        <pt x="677" y="92" on="0"/>
        <pt x="710" y="29" on="0"/>
        <pt x="753" y="29" on="1"/>
        <pt x="861" y="29" on="0"/>
        <pt x="861" y="253" on="1"/>
        <pt x="861" y="355" on="0"/>
        <pt x="785" y="525" on="0"/>
        <pt x="622" y="627" on="0"/>
        <pt x="492" y="627" on="1"/>
        <pt x="313" y="627" on="0"/>
        <pt x="103" y="410" on="0"/>
        <pt x="103" y="228" on="1"/>
        <pt x="103" y="48" on="0"/>
        <pt x="319" y="-155" on="0"/>
        <pt x="487" y="-155" on="1"/>
        <pt x="562" y="-155" on="0"/>
        <pt x="675" y="-115" on="0"/>
        <pt x="712" y="-83" on="1"/>
        <pt x="735" y="-114" on="1"/>
        <pt x="692" y="-147" on="0"/>
        <pt x="570" y="-193" on="0"/>
        <pt x="487" y="-193" on="1"/>
        <pt x="295" y="-193" on="0"/>
        <pt x="60" y="34" on="0"/>
      </contour>
      <contour>
        <pt x="644" y="253" on="1"/>
        <pt x="648" y="328" on="0"/>
        <pt x="573" y="432" on="0"/>
        <pt x="490" y="432" on="1"/>
        <pt x="405" y="432" on="0"/>
        <pt x="304" y="318" on="0"/>
        <pt x="304" y="220" on="1"/>
        <pt x="304" y="135" on="0"/>
        <pt x="391" y="34" on="0"/>
        <pt x="466" y="34" on="1"/>
        <pt x="538" y="34" on="0"/>
        <pt x="636" y="131" on="0"/>
        <pt x="641" y="213" on="1"/>
      </contour>
    </TTGlyph>
    <TTGlyph name="uni0040.case" xMin="60" yMin="-99" xMax="901" yMax="759">
      <component glyphName="uni0040" x="0" y="94" flags="0x4"/>
    </TTGlyph>
    <TTGlyph name="uni0041" xMin="19" yMin="0" xMax="606" yMax="660">
      <contour>
        <pt x="288" y="543" on="1"/>
        <pt x="173" y="253" on="1"/>
        <pt x="452" y="253" on="1"/>
        <pt x="337" y="541" on="1"/>
        <pt x="313" y="611" on="1"/>
        <pt x="312" y="611" on="1"/>
      </contour>
      <contour>
        <pt x="553" y="0" on="1"/>
        <pt x="470" y="207" on="1"/>
        <pt x="154" y="207" on="1"/>
        <pt x="72" y="0" on="1"/>
        <pt x="19" y="0" on="1"/>
        <pt x="283" y="660" on="1"/>
        <pt x="342" y="660" on="1"/>
        <pt x="606" y="0" on="1"/>
      </contour>
    </TTGlyph>
    <TTGlyph name="uni0041.swsh" xMin="5" yMin="-110" xMax="871" yMax="660">
      <contour>
        <pt x="553" y="543" on="1"/>
        <pt x="438" y="253" on="1"/>
        <pt x="717" y="253" on="1"/>
        <pt x="602" y="541" on="1"/>
        <pt x="578" y="611" on="1"/>
        <pt x="577" y="611" on="1"/>
      </contour>
      <contour>
        <pt x="169" y="-110" on="1"/>
        <pt x="96" y="-110" on="0"/>
        <pt x="7" y="-43" on="0"/>
        <pt x="5" y="27" on="1"/>
        <pt x="42" y="53" on="1"/>
        <pt x="47" y="-17" on="0"/>
        <pt x="113" y="-66" on="0"/>
        <pt x="168" y="-66" on="1"/>
        <pt x="222" y="-66" on="0"/>
        <pt x="280" y="-12" on="0"/>
        <pt x="311" y="67" on="1"/>
        <pt x="549" y="660" on="1"/>
        <pt x="608" y="660" on="1"/>
        <pt x="871" y="0" on="1"/>
        <pt x="818" y="0" on="1"/>
        <pt x="735" y="207" on="1"/>
        <pt x="420" y="207" on="1"/>
        <pt x="350" y="32" on="1"/>
        <pt x="322" y="-41" on="0"/>
        <pt x="239" y="-110" on="0"/>
      </contour>
      <contour>
        <pt x="309" y="364" on="1"/>
        <pt x="288" y="325" on="1"/>
        <pt x="228" y="336" on="0"/>
        <pt x="146" y="421" on="0"/>
        <pt x="146" y="491" on="1"/>
        <pt x="146" y="573" on="0"/>
        <pt x="248" y="660" on="0"/>
        <pt x="338" y="660" on="1"/>
        <pt x="569" y="660" on="1"/>
        <pt x="569" y="619" on="1"/>
        <pt x="349" y="619" on="1"/>
        <pt x="277" y="619" on="0"/>
        <pt x="196" y="557" on="0"/>
        <pt x="196" y="490" on="1"/>
        <pt x="196" y="438" on="0"/>
        <pt x="258" y="374" on="0"/>
      </contour>
    </TTGlyph>
    <TTGlyph name="uni0042" xMin="104" yMin="0" xMax="570" yMax="660">
      <contour>
        <pt x="337" y="0" on="1"/>
        <pt x="104" y="0" on="1"/>
        <pt x="104" y="660" on="1"/>
        <pt x="337" y="660" on="1"/>
        <pt x="447" y="660" on="0"/>
        <pt x="552" y="568" on="0"/>
        <pt x="552" y="485" on="1"/>
        <pt x="552" y="428" on="0"/>
        <pt x="490" y="347" on="0"/>
        <pt x="431" y="335" on="1"/>
        <pt x="431" y="334" on="1"/>
        <pt x="496" y="324" on="0"/>
        <pt x="570" y="240" on="0"/>
        <pt x="570" y="178" on="1"/>
        <pt x="570" y="94" on="0"/>
        <pt x="450" y="0" on="0"/>
      </contour>
      <contour>
        <pt x="154" y="614" on="1"/>
        <pt x="154" y="356" on="1"/>
        <pt x="338" y="356" on="1"/>
        <pt x="499" y="356" on="0"/>
        <pt x="499" y="485" on="1"/>
        <pt x="499" y="614" on="0"/>
        <pt x="338" y="614" on="1"/>
      </contour>
      <contour>
        <pt x="154" y="310" on="1"/>
        <pt x="154" y="46" on="1"/>
        <pt x="347" y="46" on="1"/>
        <pt x="517" y="46" on="0"/>
        <pt x="517" y="178" on="1"/>
        <pt x="517" y="310" on="0"/>
        <pt x="347" y="310" on="1"/>
      </contour>
    </TTGlyph>
    <TTGlyph name="uni0043" xMin="62" yMin="-10" xMax="626" yMax="670">
      <contour>
        <pt x="576" y="186" on="1"/>
        <pt x="626" y="167" on="1"/>
        <pt x="598" y="83" on="0"/>
        <pt x="459" y="-10" on="0"/>
        <pt x="362" y="-10" on="1"/>
        <pt x="226" y="-10" on="0"/>
        <pt x="62" y="173" on="0"/>
        <pt x="62" y="330" on="1"/>
        <pt x="62" y="487" on="0"/>
        <pt x="226" y="670" on="0"/>
        <pt x="361" y="670" on="1"/>
        <pt x="559" y="670" on="0"/>
        <pt x="617" y="507" on="1"/>
        <pt x="568" y="484" on="1"/>
        <pt x="521" y="624" on="0"/>
        <pt x="364" y="624" on="1"/>
        <pt x="252" y="624" on="0"/>
        <pt x="115" y="467" on="0"/>
        <pt x="115" y="330" on="1"/>
        <pt x="115" y="194" on="0"/>
        <pt x="250" y="36" on="0"/>
        <pt x="362" y="36" on="1"/>
        <pt x="530" y="36" on="0"/>
      </contour>
    </TTGlyph>
    <TTGlyph name="uni0044" xMin="104" yMin="0" xMax="641" yMax="660">
      <contour>
        <pt x="316" y="614" on="1"/>
        <pt x="154" y="614" on="1"/>
        <pt x="154" y="46" on="1"/>
        <pt x="316" y="46" on="1"/>
        <pt x="448" y="46" on="0"/>
        <pt x="589" y="196" on="0"/>
        <pt x="589" y="335" on="1"/>
        <pt x="589" y="469" on="0"/>
        <pt x="448" y="614" on="0"/>
      </contour>
      <contour>
        <pt x="104" y="0" on="1"/>
        <pt x="104" y="660" on="1"/>
        <pt x="312" y="660" on="1"/>
        <pt x="470" y="660" on="0"/>
        <pt x="641" y="493" on="0"/>
        <pt x="641" y="335" on="1"/>
        <pt x="641" y="172" on="0"/>
        <pt x="470" y="0" on="0"/>
        <pt x="312" y="0" on="1"/>
      </contour>
    </TTGlyph>
    <TTGlyph name="uni0045" xMin="104" yMin="0" xMax="571" yMax="660">
      <contour>
        <pt x="104" y="0" on="1"/>
        <pt x="104" y="660" on="1"/>
        <pt x="555" y="660" on="1"/>
        <pt x="555" y="614" on="1"/>
        <pt x="154" y="614" on="1"/>
        <pt x="154" y="359" on="1"/>
        <pt x="471" y="359" on="1"/>
        <pt x="471" y="312" on="1"/>
        <pt x="154" y="312" on="1"/>
        <pt x="154" y="46" on="1"/>
        <pt x="571" y="46" on="1"/>
        <pt x="571" y="0" on="1"/>
      </contour>
    </TTGlyph>
    <TTGlyph name="uni0045.swsh" xMin="10" yMin="0" xMax="788" yMax="660">
      <component glyphName="__swash_topleft" x="-56" y="0" flags="0x4"/>
      <component glyphName="uni0045" x="217" y="0" flags="0x4"/>
    </TTGlyph>
    <TTGlyph name="uni0045.swsh.001" xMin="104" yMin="0" xMax="709" yMax="660">
      <contour>
        <pt x="104" y="0" on="1"/>
        <pt x="104" y="660" on="1"/>
        <pt x="590" y="660" on="1"/>
        <pt x="590" y="614" on="1"/>
        <pt x="154" y="614" on="1"/>
        <pt x="154" y="354" on="1"/>
        <pt x="405" y="354" on="1"/>
        <pt x="405" y="308" on="1"/>
        <pt x="154" y="308" on="1"/>
        <pt x="154" y="46" on="1"/>
        <pt x="505" y="46" on="1"/>
        <pt x="582" y="46" on="0"/>
        <pt x="659" y="98" on="0"/>
        <pt x="659" y="159" on="1"/>
        <pt x="659" y="259" on="0"/>
        <pt x="577" y="269" on="1"/>
        <pt x="599" y="308" on="1"/>
        <pt x="646" y="302" on="0"/>
        <pt x="709" y="224" on="0"/>
        <pt x="709" y="158" on="1"/>
        <pt x="709" y="79" on="0"/>
        <pt x="607" y="0" on="0"/>
        <pt x="517" y="0" on="1"/>
      </contour>
    </TTGlyph>
    <TTGlyph name="uni0046" xMin="104" yMin="0" xMax="554" yMax="660">
      <contour>
        <pt x="471" y="312" on="1"/>
        <pt x="154" y="312" on="1"/>
        <pt x="154" y="0" on="1"/>
        <pt x="104" y="0" on="1"/>
        <pt x="104" y="660" on="1"/>
        <pt x="554" y="660" on="1"/>
        <pt x="554" y="614" on="1"/>
        <pt x="154" y="614" on="1"/>
        <pt x="154" y="359" on="1"/>
        <pt x="471" y="359" on="1"/>
      </contour>
    </TTGlyph>
    <TTGlyph name="uni0046.swsh" xMin="10" yMin="0" xMax="771" yMax="660">
      <component glyphName="__swash_topleft" x="-56" y="0" flags="0x4"/>
      <component glyphName="uni0046" x="217" y="0" flags="0x4"/>
    </TTGlyph>
    <TTGlyph name="uni0047" xMin="62" yMin="-10" xMax="629" yMax="670">
      <contour>
        <pt x="589" y="0" on="1"/>
        <pt x="588" y="116" on="1"/>
        <pt x="562" y="57" on="0"/>
        <pt x="447" y="-10" on="0"/>
        <pt x="360" y="-10" on="1"/>
        <pt x="224" y="-10" on="0"/>
        <pt x="62" y="173" on="0"/>
        <pt x="62" y="330" on="1"/>
        <pt x="62" y="487" on="0"/>
        <pt x="228" y="670" on="0"/>
        <pt x="363" y="670" on="1"/>
        <pt x="560" y="670" on="0"/>
        <pt x="624" y="508" on="1"/>
        <pt x="578" y="484" on="1"/>
        <pt x="531" y="624" on="0"/>
        <pt x="363" y="624" on="1"/>
        <pt x="251" y="624" on="0"/>
        <pt x="115" y="467" on="0"/>
        <pt x="115" y="330" on="1"/>
        <pt x="115" y="194" on="0"/>
        <pt x="246" y="36" on="0"/>
        <pt x="362" y="36" on="1"/>
        <pt x="476" y="36" on="0"/>
        <pt x="582" y="163" on="0"/>
        <pt x="582" y="239" on="1"/>
        <pt x="582" y="276" on="1"/>
        <pt x="358" y="276" on="1"/>
        <pt x="358" y="323" on="1"/>
        <pt x="629" y="323" on="1"/>
        <pt x="629" y="0" on="1"/>
      </contour>
    </TTGlyph>
    <TTGlyph name="uni0047.ss04" xMin="62" yMin="-10" xMax="638" yMax="670">
      <contour>
        <pt x="638" y="282" on="1"/>
        <pt x="638" y="161" on="0"/>
        <pt x="508" y="-10" on="0"/>
        <pt x="361" y="-10" on="1"/>
        <pt x="225" y="-10" on="0"/>
        <pt x="62" y="173" on="0"/>
        <pt x="62" y="330" on="1"/>
        <pt x="62" y="487" on="0"/>
        <pt x="228" y="670" on="0"/>
        <pt x="363" y="670" on="1"/>
        <pt x="560" y="670" on="0"/>
        <pt x="624" y="508" on="1"/>
        <pt x="578" y="484" on="1"/>
        <pt x="531" y="624" on="0"/>
        <pt x="363" y="624" on="1"/>
        <pt x="251" y="624" on="0"/>
        <pt x="115" y="467" on="0"/>
        <pt x="115" y="330" on="1"/>
        <pt x="115" y="194" on="0"/>
        <pt x="247" y="36" on="0"/>
        <pt x="365" y="36" on="1"/>
        <pt x="455" y="36" on="0"/>
        <pt x="552" y="113" on="0"/>
        <pt x="590" y="225" on="0"/>
        <pt x="590" y="275" on="1"/>
        <pt x="590" y="276" on="1"/>
        <pt x="358" y="276" on="1"/>
        <pt x="358" y="323" on="1"/>
        <pt x="638" y="323" on="1"/>
      </contour>
    </TTGlyph>
    <TTGlyph name="uni0048" xMin="104" yMin="0" xMax="612" yMax="660">
      <contour>
        <pt x="562" y="0" on="1"/>
        <pt x="562" y="312" on="1"/>
        <pt x="154" y="312" on="1"/>
        <pt x="154" y="0" on="1"/>
        <pt x="104" y="0" on="1"/>
        <pt x="104" y="660" on="1"/>
        <pt x="154" y="660" on="1"/>
        <pt x="154" y="359" on="1"/>
        <pt x="562" y="359" on="1"/>
        <pt x="562" y="660" on="1"/>
        <pt x="612" y="660" on="1"/>
        <pt x="612" y="0" on="1"/>
      </contour>
    </TTGlyph>
    <TTGlyph name="uni0049" xMin="104" yMin="0" xMax="154" yMax="660">
      <contour>
        <pt x="104" y="660" on="1"/>
        <pt x="154" y="660" on="1"/>
        <pt x="154" y="0" on="1"/>
        <pt x="104" y="0" on="1"/>
      </contour>
    </TTGlyph>
    <TTGlyph name="uni004A" xMin="24" yMin="-10" xMax="437" yMax="660">
      <contour>
        <pt x="387" y="660" on="1"/>
        <pt x="437" y="660" on="1"/>
        <pt x="437" y="218" on="1"/>
        <pt x="437" y="112" on="0"/>
        <pt x="328" y="-10" on="0"/>
        <pt x="227" y="-10" on="1"/>
        <pt x="122" y="-10" on="0"/>
        <pt x="24" y="110" on="0"/>
        <pt x="40" y="210" on="1"/>
        <pt x="87" y="221" on="1"/>
        <pt x="61" y="36" on="0"/>
        <pt x="226" y="36" on="1"/>
        <pt x="312" y="36" on="0"/>
        <pt x="387" y="138" on="0"/>
        <pt x="387" y="229" on="1"/>
      </contour>
    </TTGlyph>
    <TTGlyph name="uni004B" xMin="104" yMin="0" xMax="589" yMax="660">
      <contour>
        <pt x="528" y="0" on="1"/>
        <pt x="286" y="357" on="1"/>
        <pt x="154" y="222" on="1"/>
        <pt x="154" y="0" on="1"/>
        <pt x="104" y="0" on="1"/>
        <pt x="104" y="660" on="1"/>
        <pt x="154" y="660" on="1"/>
        <pt x="154" y="291" on="1"/>
        <pt x="516" y="660" on="1"/>
        <pt x="582" y="660" on="1"/>
        <pt x="322" y="393" on="1"/>
        <pt x="589" y="0" on="1"/>
      </contour>
    </TTGlyph>
    <TTGlyph name="uni004C" xMin="104" yMin="0" xMax="550" yMax="660">
      <contour>
        <pt x="104" y="0" on="1"/>
        <pt x="104" y="660" on="1"/>
        <pt x="154" y="660" on="1"/>
        <pt x="154" y="46" on="1"/>
        <pt x="550" y="46" on="1"/>
        <pt x="550" y="0" on="1"/>
      </contour>
    </TTGlyph>
    <TTGlyph name="uni004C.swsh" xMin="104" yMin="0" xMax="602" yMax="660">
      <contour>
        <pt x="104" y="0" on="1"/>
        <pt x="104" y="660" on="1"/>
        <pt x="154" y="660" on="1"/>
        <pt x="154" y="46" on="1"/>
        <pt x="398" y="46" on="1"/>
        <pt x="470" y="46" on="0"/>
        <pt x="552" y="103" on="0"/>
        <pt x="552" y="170" on="1"/>
        <pt x="552" y="226" on="0"/>
        <pt x="489" y="285" on="0"/>
        <pt x="438" y="291" on="1"/>
        <pt x="460" y="330" on="1"/>
        <pt x="519" y="323" on="0"/>
        <pt x="602" y="243" on="0"/>
        <pt x="602" y="169" on="1"/>
        <pt x="602" y="84" on="0"/>
        <pt x="500" y="0" on="0"/>
        <pt x="410" y="0" on="1"/>
      </contour>
    </TTGlyph>
    <TTGlyph name="uni004D" xMin="104" yMin="0" xMax="718" yMax="660">
      <contour>
        <pt x="643" y="660" on="1"/>
        <pt x="718" y="660" on="1"/>
        <pt x="718" y="0" on="1"/>
        <pt x="670" y="0" on="1"/>
        <pt x="670" y="492" on="1"/>
        <pt x="676" y="612" on="1"/>
        <pt x="675" y="612" on="1"/>
        <pt x="434" y="0" on="1"/>
        <pt x="388" y="0" on="1"/>
        <pt x="147" y="612" on="1"/>
        <pt x="146" y="612" on="1"/>
        <pt x="152" y="492" on="1"/>
        <pt x="152" y="0" on="1"/>
        <pt x="104" y="0" on="1"/>
        <pt x="104" y="660" on="1"/>
        <pt x="179" y="660" on="1"/>
        <pt x="378" y="160" on="1"/>
        <pt x="411" y="59" on="1"/>
        <pt x="412" y="59" on="1"/>
        <pt x="444" y="159" on="1"/>
      </contour>
    </TTGlyph>
    <TTGlyph name="uni004D.swsh" xMin="10" yMin="-110" xMax="935" yMax="660">
      <contour>
        <pt x="892" y="612" on="1"/>
        <pt x="650" y="0" on="1"/>
        <pt x="605" y="0" on="1"/>
        <pt x="364" y="612" on="1"/>
        <pt x="363" y="612" on="1"/>
        <pt x="368" y="492" on="1"/>
        <pt x="368" y="144" on="1"/>
        <pt x="320" y="144" on="1"/>
        <pt x="320" y="619" on="1"/>
        <pt x="214" y="619" on="1"/>
        <pt x="142" y="619" on="0"/>
        <pt x="60" y="557" on="0"/>
        <pt x="60" y="490" on="1"/>
        <pt x="60" y="438" on="0"/>
        <pt x="123" y="374" on="0"/>
        <pt x="173" y="364" on="1"/>
        <pt x="152" y="325" on="1"/>
        <pt x="92" y="336" on="0"/>
        <pt x="10" y="421" on="0"/>
        <pt x="10" y="491" on="1"/>
        <pt x="10" y="573" on="0"/>
        <pt x="112" y="660" on="0"/>
        <pt x="202" y="660" on="1"/>
        <pt x="396" y="660" on="1"/>
        <pt x="595" y="160" on="1"/>
        <pt x="627" y="59" on="1"/>
        <pt x="628" y="59" on="1"/>
        <pt x="661" y="159" on="1"/>
        <pt x="860" y="660" on="1"/>
        <pt x="935" y="660" on="1"/>
        <pt x="935" y="0" on="1"/>
        <pt x="887" y="0" on="1"/>
        <pt x="887" y="492" on="1"/>
      </contour>
      <contour>
        <pt x="368" y="57" on="1"/>
        <pt x="368" y="-14" on="0"/>
        <pt x="279" y="-110" on="0"/>
        <pt x="196" y="-110" on="1"/>
        <pt x="54" y="-110" on="0"/>
        <pt x="37" y="14" on="1"/>
        <pt x="74" y="40" on="1"/>
        <pt x="90" y="-67" on="0"/>
        <pt x="196" y="-67" on="1"/>
        <pt x="255" y="-67" on="0"/>
        <pt x="320" y="7" on="0"/>
        <pt x="320" y="68" on="1"/>
        <pt x="320" y="202" on="1"/>
        <pt x="368" y="202" on="1"/>
      </contour>
    </TTGlyph>
    <TTGlyph name="uni004D.swsh.001" xMin="10" yMin="0" xMax="935" yMax="660">
      <contour>
        <pt x="173" y="364" on="1"/>
        <pt x="152" y="325" on="1"/>
        <pt x="92" y="336" on="0"/>
        <pt x="10" y="421" on="0"/>
        <pt x="10" y="491" on="1"/>
        <pt x="10" y="573" on="0"/>
        <pt x="112" y="660" on="0"/>
        <pt x="202" y="660" on="1"/>
        <pt x="381" y="660" on="1"/>
        <pt x="381" y="619" on="1"/>
        <pt x="214" y="619" on="1"/>
        <pt x="142" y="619" on="0"/>
        <pt x="60" y="557" on="0"/>
        <pt x="60" y="490" on="1"/>
        <pt x="60" y="438" on="0"/>
        <pt x="123" y="374" on="0"/>
      </contour>
      <contour>
        <pt x="860" y="660" on="1"/>
        <pt x="935" y="660" on="1"/>
        <pt x="935" y="0" on="1"/>
        <pt x="887" y="0" on="1"/>
        <pt x="887" y="492" on="1"/>
        <pt x="893" y="612" on="1"/>
        <pt x="892" y="612" on="1"/>
        <pt x="651" y="0" on="1"/>
        <pt x="605" y="0" on="1"/>
        <pt x="364" y="612" on="1"/>
        <pt x="363" y="612" on="1"/>
        <pt x="369" y="492" on="1"/>
        <pt x="369" y="0" on="1"/>
        <pt x="321" y="0" on="1"/>
        <pt x="321" y="660" on="1"/>
        <pt x="396" y="660" on="1"/>
        <pt x="595" y="160" on="1"/>
        <pt x="628" y="59" on="1"/>
        <pt x="629" y="59" on="1"/>
        <pt x="661" y="159" on="1"/>
      </contour>
    </TTGlyph>
    <TTGlyph name="uni004E" xMin="104" yMin="0" xMax="611" yMax="660">
      <contour>
        <pt x="152" y="523" on="1"/>
        <pt x="152" y="0" on="1"/>
        <pt x="104" y="0" on="1"/>
        <pt x="104" y="660" on="1"/>
        <pt x="167" y="660" on="1"/>
        <pt x="516" y="143" on="1"/>
        <pt x="566" y="54" on="1"/>
        <pt x="564" y="137" on="1"/>
        <pt x="564" y="660" on="1"/>
        <pt x="611" y="660" on="1"/>
        <pt x="611" y="0" on="1"/>
        <pt x="549" y="0" on="1"/>
        <pt x="199" y="518" on="1"/>
        <pt x="150" y="606" on="1"/>
        <pt x="149" y="606" on="1"/>
      </contour>
    </TTGlyph>
    <TTGlyph name="uni004E.swsh" xMin="104" yMin="0" xMax="895" yMax="735">
      <contour>
        <pt x="152" y="523" on="1"/>
        <pt x="152" y="0" on="1"/>
        <pt x="104" y="0" on="1"/>
        <pt x="104" y="660" on="1"/>
        <pt x="167" y="660" on="1"/>
        <pt x="516" y="143" on="1"/>
        <pt x="566" y="54" on="1"/>
        <pt x="564" y="137" on="1"/>
        <pt x="564" y="559" on="1"/>
        <pt x="564" y="637" on="0"/>
        <pt x="653" y="735" on="0"/>
        <pt x="736" y="735" on="1"/>
        <pt x="878" y="735" on="0"/>
        <pt x="895" y="611" on="1"/>
        <pt x="858" y="585" on="1"/>
        <pt x="842" y="692" on="0"/>
        <pt x="736" y="692" on="1"/>
        <pt x="678" y="692" on="0"/>
        <pt x="611" y="616" on="0"/>
        <pt x="611" y="548" on="1"/>
        <pt x="611" y="0" on="1"/>
        <pt x="549" y="0" on="1"/>
        <pt x="199" y="518" on="1"/>
        <pt x="150" y="606" on="1"/>
        <pt x="149" y="606" on="1"/>
      </contour>
    </TTGlyph>
    <TTGlyph name="uni004F" xMin="62" yMin="-10" xMax="670" yMax="670">
      <contour>
        <pt x="62" y="330" on="1"/>
        <pt x="62" y="487" on="0"/>
        <pt x="226" y="670" on="0"/>
        <pt x="366" y="670" on="1"/>
        <pt x="506" y="670" on="0"/>
        <pt x="670" y="487" on="0"/>
        <pt x="670" y="330" on="1"/>
        <pt x="670" y="173" on="0"/>
        <pt x="506" y="-10" on="0"/>
        <pt x="366" y="-10" on="1"/>
        <pt x="226" y="-10" on="0"/>
        <pt x="62" y="173" on="0"/>
      </contour>
      <contour>
        <pt x="618" y="330" on="1"/>
        <pt x="618" y="467" on="0"/>
        <pt x="482" y="624" on="0"/>
        <pt x="366" y="624" on="1"/>
        <pt x="250" y="624" on="0"/>
        <pt x="115" y="467" on="0"/>
        <pt x="115" y="330" on="1"/>
        <pt x="115" y="194" on="0"/>
        <pt x="250" y="36" on="0"/>
        <pt x="366" y="36" on="1"/>
        <pt x="482" y="36" on="0"/>
        <pt x="618" y="194" on="0"/>
      </contour>
    </TTGlyph>
    <TTGlyph name="uni0050" xMin="104" yMin="0" xMax="547" yMax="660">
      <contour>
        <pt x="317" y="614" on="1"/>
        <pt x="154" y="614" on="1"/>
        <pt x="154" y="320" on="1"/>
        <pt x="317" y="320" on="1"/>
        <pt x="494" y="320" on="0"/>
        <pt x="494" y="467" on="1"/>
        <pt x="494" y="614" on="0"/>
      </contour>
      <contour>
        <pt x="323" y="273" on="1"/>
        <pt x="154" y="273" on="1"/>
        <pt x="154" y="0" on="1"/>
        <pt x="104" y="0" on="1"/>
        <pt x="104" y="660" on="1"/>
        <pt x="323" y="660" on="1"/>
        <pt x="426" y="660" on="0"/>
        <pt x="547" y="557" on="0"/>
        <pt x="547" y="467" on="1"/>
        <pt x="547" y="376" on="0"/>
        <pt x="426" y="273" on="0"/>
      </contour>
    </TTGlyph>
    <TTGlyph name="uni0051" xMin="62" yMin="-195" xMax="670" yMax="670">
      <contour>
        <pt x="345" y="9" on="1"/>
        <pt x="390" y="18" on="1"/>
        <pt x="389" y="-75" on="0"/>
        <pt x="474" y="-145" on="0"/>
        <pt x="536" y="-145" on="1"/>
        <pt x="610" y="-145" on="0"/>
        <pt x="647" y="-108" on="1"/>
        <pt x="665" y="-154" on="1"/>
        <pt x="643" y="-174" on="0"/>
        <pt x="572" y="-195" on="0"/>
        <pt x="535" y="-195" on="1"/>
        <pt x="458" y="-195" on="0"/>
        <pt x="347" y="-100" on="0"/>
      </contour>
      <contour>
        <pt x="62" y="330" on="1"/>
        <pt x="62" y="487" on="0"/>
        <pt x="226" y="670" on="0"/>
        <pt x="366" y="670" on="1"/>
        <pt x="506" y="670" on="0"/>
        <pt x="670" y="487" on="0"/>
        <pt x="670" y="330" on="1"/>
        <pt x="670" y="173" on="0"/>
        <pt x="506" y="-10" on="0"/>
        <pt x="366" y="-10" on="1"/>
        <pt x="226" y="-10" on="0"/>
        <pt x="62" y="173" on="0"/>
      </contour>
      <contour>
        <pt x="618" y="330" on="1"/>
        <pt x="618" y="467" on="0"/>
        <pt x="482" y="624" on="0"/>
        <pt x="366" y="624" on="1"/>
        <pt x="250" y="624" on="0"/>
        <pt x="115" y="467" on="0"/>
        <pt x="115" y="330" on="1"/>
        <pt x="115" y="194" on="0"/>
        <pt x="250" y="36" on="0"/>
        <pt x="366" y="36" on="1"/>
        <pt x="482" y="36" on="0"/>
        <pt x="618" y="194" on="0"/>
      </contour>
    </TTGlyph>
    <TTGlyph name="uni0052" xMin="104" yMin="0" xMax="600" yMax="660">
      <contour>
        <pt x="348" y="614" on="1"/>
        <pt x="154" y="614" on="1"/>
        <pt x="154" y="333" on="1"/>
        <pt x="348" y="333" on="1"/>
        <pt x="513" y="333" on="0"/>
        <pt x="513" y="473" on="1"/>
        <pt x="513" y="614" on="0"/>
      </contour>
      <contour>
        <pt x="349" y="286" on="1"/>
        <pt x="154" y="286" on="1"/>
        <pt x="154" y="0" on="1"/>
        <pt x="104" y="0" on="1"/>
        <pt x="104" y="660" on="1"/>
        <pt x="349" y="660" on="1"/>
        <pt x="447" y="660" on="0"/>
        <pt x="565" y="560" on="0"/>
        <pt x="565" y="473" on="1"/>
        <pt x="565" y="400" on="0"/>
        <pt x="481" y="305" on="0"/>
        <pt x="408" y="291" on="1"/>
        <pt x="600" y="0" on="1"/>
        <pt x="541" y="0" on="1"/>
        <pt x="352" y="286" on="1"/>
      </contour>
    </TTGlyph>
    <TTGlyph name="uni0052.ss03" xMin="104" yMin="0" xMax="575" yMax="660">
      <contour>
        <pt x="154" y="614" on="1"/>
        <pt x="154" y="333" on="1"/>
        <pt x="348" y="333" on="1"/>
        <pt x="513" y="333" on="0"/>
        <pt x="513" y="473" on="1"/>
        <pt x="513" y="614" on="0"/>
        <pt x="348" y="614" on="1"/>
      </contour>
      <contour>
        <pt x="154" y="0" on="1"/>
        <pt x="104" y="0" on="1"/>
        <pt x="104" y="660" on="1"/>
        <pt x="349" y="660" on="1"/>
        <pt x="447" y="660" on="0"/>
        <pt x="565" y="560" on="0"/>
        <pt x="565" y="473" on="1"/>
        <pt x="565" y="405" on="0"/>
        <pt x="489" y="318" on="0"/>
        <pt x="422" y="304" on="1"/>
        <pt x="422" y="303" on="1"/>
        <pt x="543" y="284" on="0"/>
        <pt x="546" y="162" on="1"/>
        <pt x="551" y="66" on="0"/>
        <pt x="567" y="15" on="0"/>
        <pt x="575" y="3" on="1"/>
        <pt x="575" y="0" on="1"/>
        <pt x="521" y="0" on="1"/>
        <pt x="514" y="14" on="0"/>
        <pt x="500" y="77" on="0"/>
        <pt x="497" y="156" on="1"/>
        <pt x="492" y="286" on="0"/>
        <pt x="339" y="286" on="1"/>
        <pt x="154" y="286" on="1"/>
      </contour>
    </TTGlyph>
    <TTGlyph name="uni0052.swsh" xMin="10" yMin="-110" xMax="817" yMax="660">
      <contour>
        <pt x="565" y="614" on="1"/>
        <pt x="370" y="614" on="1"/>
        <pt x="370" y="333" on="1"/>
        <pt x="565" y="333" on="1"/>
        <pt x="730" y="333" on="0"/>
        <pt x="730" y="473" on="1"/>
        <pt x="730" y="614" on="0"/>
      </contour>
      <contour>
        <pt x="196" y="-110" on="1"/>
        <pt x="122" y="-110" on="0"/>
        <pt x="42" y="-38" on="0"/>
        <pt x="37" y="23" on="1"/>
        <pt x="74" y="49" on="1"/>
        <pt x="83" y="-67" on="0"/>
        <pt x="196" y="-67" on="1"/>
        <pt x="255" y="-67" on="0"/>
        <pt x="320" y="7" on="0"/>
        <pt x="320" y="68" on="1"/>
        <pt x="320" y="660" on="1"/>
        <pt x="565" y="660" on="1"/>
        <pt x="664" y="660" on="0"/>
        <pt x="782" y="560" on="0"/>
        <pt x="782" y="473" on="1"/>
        <pt x="782" y="400" on="0"/>
        <pt x="698" y="306" on="0"/>
        <pt x="625" y="292" on="1"/>
        <pt x="817" y="0" on="1"/>
        <pt x="758" y="0" on="1"/>
        <pt x="569" y="286" on="1"/>
        <pt x="565" y="286" on="1"/>
        <pt x="370" y="286" on="1"/>
        <pt x="370" y="57" on="1"/>
        <pt x="370" y="-14" on="0"/>
        <pt x="281" y="-110" on="0"/>
      </contour>
      <contour>
        <pt x="173" y="364" on="1"/>
        <pt x="152" y="325" on="1"/>
        <pt x="92" y="336" on="0"/>
        <pt x="10" y="421" on="0"/>
        <pt x="10" y="491" on="1"/>
        <pt x="10" y="573" on="0"/>
        <pt x="112" y="660" on="0"/>
        <pt x="202" y="660" on="1"/>
        <pt x="433" y="660" on="1"/>
        <pt x="433" y="619" on="1"/>
        <pt x="213" y="619" on="1"/>
        <pt x="141" y="619" on="0"/>
        <pt x="60" y="557" on="0"/>
        <pt x="60" y="490" on="1"/>
        <pt x="60" y="438" on="0"/>
        <pt x="122" y="374" on="0"/>
      </contour>
    </TTGlyph>
    <TTGlyph name="uni0052.swsh.001" xMin="104" yMin="-94" xMax="675" yMax="660">
      <contour>
        <pt x="649" y="-94" on="1"/>
        <pt x="585" y="-67" on="0"/>
        <pt x="526" y="-10" on="0"/>
        <pt x="503" y="23" on="1"/>
        <pt x="321" y="286" on="1"/>
        <pt x="154" y="286" on="1"/>
        <pt x="154" y="0" on="1"/>
        <pt x="104" y="0" on="1"/>
        <pt x="104" y="660" on="1"/>
        <pt x="349" y="660" on="1"/>
        <pt x="447" y="660" on="0"/>
        <pt x="565" y="560" on="0"/>
        <pt x="565" y="473" on="1"/>
        <pt x="565" y="392" on="0"/>
        <pt x="463" y="294" on="0"/>
        <pt x="376" y="287" on="1"/>
        <pt x="550" y="37" on="1"/>
        <pt x="569" y="11" on="0"/>
        <pt x="640" y="-50" on="0"/>
        <pt x="675" y="-60" on="1"/>
      </contour>
      <contour>
        <pt x="348" y="614" on="1"/>
        <pt x="154" y="614" on="1"/>
        <pt x="154" y="333" on="1"/>
        <pt x="348" y="333" on="1"/>
        <pt x="513" y="333" on="0"/>
        <pt x="513" y="473" on="1"/>
        <pt x="513" y="614" on="0"/>
      </contour>
    </TTGlyph>
    <TTGlyph name="uni0053" xMin="45" yMin="-10" xMax="566" yMax="670">
      <contour>
        <pt x="67" y="482" on="1"/>
        <pt x="67" y="558" on="0"/>
        <pt x="196" y="670" on="0"/>
        <pt x="308" y="670" on="1"/>
        <pt x="494" y="670" on="0"/>
        <pt x="557" y="524" on="1"/>
        <pt x="514" y="489" on="1"/>
        <pt x="466" y="624" on="0"/>
        <pt x="309" y="624" on="1"/>
        <pt x="220" y="624" on="0"/>
        <pt x="120" y="545" on="0"/>
        <pt x="120" y="487" on="1"/>
        <pt x="120" y="432" on="0"/>
        <pt x="209" y="370" on="0"/>
        <pt x="329" y="350" on="1"/>
        <pt x="460" y="328" on="0"/>
        <pt x="566" y="244" on="0"/>
        <pt x="566" y="170" on="1"/>
        <pt x="566" y="90" on="0"/>
        <pt x="429" y="-10" on="0"/>
        <pt x="318" y="-10" on="1"/>
        <pt x="214" y="-10" on="0"/>
        <pt x="71" y="73" on="0"/>
        <pt x="45" y="148" on="1"/>
        <pt x="89" y="182" on="1"/>
        <pt x="109" y="111" on="0"/>
        <pt x="231" y="36" on="0"/>
        <pt x="319" y="36" on="1"/>
        <pt x="403" y="36" on="0"/>
        <pt x="514" y="104" on="0"/>
        <pt x="514" y="167" on="1"/>
        <pt x="514" y="219" on="0"/>
        <pt x="427" y="282" on="0"/>
        <pt x="315" y="301" on="1"/>
        <pt x="176" y="324" on="0"/>
        <pt x="67" y="408" on="0"/>
      </contour>
    </TTGlyph>
    <TTGlyph name="uni0053.swsh" xMin="70" yMin="-110" xMax="568" yMax="670">
      <contour>
        <pt x="568" y="93" on="1"/>
        <pt x="568" y="0" on="0"/>
        <pt x="432" y="-110" on="0"/>
        <pt x="318" y="-110" on="1"/>
        <pt x="200" y="-110" on="0"/>
        <pt x="70" y="-17" on="0"/>
        <pt x="70" y="68" on="1"/>
        <pt x="70" y="91" on="0"/>
        <pt x="76" y="119" on="1"/>
        <pt x="123" y="133" on="1"/>
        <pt x="117" y="106" on="0"/>
        <pt x="117" y="81" on="1"/>
        <pt x="117" y="-64" on="0"/>
        <pt x="320" y="-64" on="1"/>
        <pt x="414" y="-64" on="0"/>
        <pt x="516" y="17" on="0"/>
        <pt x="516" y="91" on="1"/>
        <pt x="516" y="147" on="0"/>
        <pt x="430" y="220" on="0"/>
        <pt x="318" y="252" on="1"/>
        <pt x="188" y="289" on="0"/>
        <pt x="84" y="385" on="0"/>
        <pt x="84" y="460" on="1"/>
        <pt x="84" y="556" on="0"/>
        <pt x="211" y="670" on="0"/>
        <pt x="318" y="670" on="1"/>
        <pt x="545" y="670" on="0"/>
        <pt x="550" y="478" on="1"/>
        <pt x="501" y="459" on="1"/>
        <pt x="505" y="624" on="0"/>
        <pt x="319" y="624" on="1"/>
        <pt x="233" y="624" on="0"/>
        <pt x="136" y="540" on="0"/>
        <pt x="136" y="465" on="1"/>
        <pt x="136" y="406" on="0"/>
        <pt x="225" y="330" on="0"/>
        <pt x="340" y="296" on="1"/>
        <pt x="468" y="259" on="0"/>
        <pt x="568" y="168" on="0"/>
      </contour>
    </TTGlyph>
    <TTGlyph name="uni0054" xMin="22" yMin="0" xMax="554" yMax="660">
      <contour>
        <pt x="554" y="614" on="1"/>
        <pt x="313" y="614" on="1"/>
        <pt x="313" y="0" on="1"/>
        <pt x="263" y="0" on="1"/>
        <pt x="263" y="614" on="1"/>
        <pt x="22" y="614" on="1"/>
        <pt x="22" y="660" on="1"/>
        <pt x="554" y="660" on="1"/>
      </contour>
    </TTGlyph>
    <TTGlyph name="uni0054.swsh" xMin="10" yMin="0" xMax="645" yMax="660">
      <contour>
        <pt x="645" y="614" on="1"/>
        <pt x="404" y="614" on="1"/>
        <pt x="404" y="0" on="1"/>
        <pt x="354" y="0" on="1"/>
        <pt x="354" y="614" on="1"/>
        <pt x="214" y="614" on="1"/>
        <pt x="142" y="614" on="0"/>
        <pt x="60" y="556" on="0"/>
        <pt x="60" y="490" on="1"/>
        <pt x="60" y="438" on="0"/>
        <pt x="123" y="374" on="0"/>
        <pt x="173" y="364" on="1"/>
        <pt x="152" y="325" on="1"/>
        <pt x="92" y="336" on="0"/>
        <pt x="10" y="421" on="0"/>
        <pt x="10" y="491" on="1"/>
        <pt x="10" y="573" on="0"/>
        <pt x="112" y="660" on="0"/>
        <pt x="202" y="660" on="1"/>
        <pt x="645" y="660" on="1"/>
      </contour>
    </TTGlyph>
    <TTGlyph name="uni0055" xMin="96" yMin="-10" xMax="605" yMax="660">
      <contour>
        <pt x="555" y="660" on="1"/>
        <pt x="605" y="660" on="1"/>
        <pt x="605" y="241" on="1"/>
        <pt x="605" y="118" on="0"/>
        <pt x="472" y="-10" on="0"/>
        <pt x="351" y="-10" on="1"/>
        <pt x="230" y="-10" on="0"/>
        <pt x="96" y="118" on="0"/>
        <pt x="96" y="241" on="1"/>
        <pt x="96" y="660" on="1"/>
        <pt x="146" y="660" on="1"/>
        <pt x="146" y="251" on="1"/>
        <pt x="146" y="36" on="0"/>
        <pt x="351" y="36" on="1"/>
        <pt x="555" y="36" on="0"/>
        <pt x="555" y="251" on="1"/>
      </contour>
    </TTGlyph>
    <TTGlyph name="uni0056" xMin="23" yMin="0" xMax="591" yMax="660">
      <contour>
        <pt x="538" y="660" on="1"/>
        <pt x="591" y="660" on="1"/>
        <pt x="337" y="0" on="1"/>
        <pt x="278" y="0" on="1"/>
        <pt x="23" y="660" on="1"/>
        <pt x="77" y="660" on="1"/>
        <pt x="272" y="149" on="1"/>
        <pt x="307" y="47" on="1"/>
        <pt x="342" y="149" on="1"/>
      </contour>
    </TTGlyph>
    <TTGlyph name="uni0057" xMin="30" yMin="0" xMax="907" yMax="660">
      <contour>
        <pt x="468" y="606" on="1"/>
        <pt x="431" y="463" on="1"/>
        <pt x="298" y="0" on="1"/>
        <pt x="236" y="0" on="1"/>
        <pt x="30" y="660" on="1"/>
        <pt x="84" y="660" on="1"/>
        <pt x="267" y="41" on="1"/>
        <pt x="440" y="660" on="1"/>
        <pt x="498" y="660" on="1"/>
        <pt x="671" y="40" on="1"/>
        <pt x="856" y="660" on="1"/>
        <pt x="907" y="660" on="1"/>
        <pt x="701" y="0" on="1"/>
        <pt x="639" y="0" on="1"/>
        <pt x="506" y="463" on="1"/>
        <pt x="469" y="606" on="1"/>
      </contour>
    </TTGlyph>
    <TTGlyph name="uni0057.swsh" xMin="10" yMin="0" xMax="1136" yMax="660">
      <contour>
        <pt x="173" y="364" on="1"/>
        <pt x="152" y="325" on="1"/>
        <pt x="92" y="336" on="0"/>
        <pt x="10" y="421" on="0"/>
        <pt x="10" y="491" on="1"/>
        <pt x="10" y="573" on="0"/>
        <pt x="112" y="660" on="0"/>
        <pt x="202" y="660" on="1"/>
        <pt x="276" y="660" on="1"/>
        <pt x="276" y="619" on="1"/>
        <pt x="214" y="619" on="1"/>
        <pt x="142" y="619" on="0"/>
        <pt x="60" y="557" on="0"/>
        <pt x="60" y="490" on="1"/>
        <pt x="60" y="438" on="0"/>
        <pt x="123" y="374" on="0"/>
      </contour>
      <contour>
        <pt x="697" y="606" on="1"/>
        <pt x="660" y="463" on="1"/>
        <pt x="527" y="0" on="1"/>
        <pt x="465" y="0" on="1"/>
        <pt x="259" y="660" on="1"/>
        <pt x="313" y="660" on="1"/>
        <pt x="496" y="41" on="1"/>
        <pt x="669" y="660" on="1"/>
        <pt x="727" y="660" on="1"/>
        <pt x="900" y="40" on="1"/>
        <pt x="1085" y="660" on="1"/>
        <pt x="1136" y="660" on="1"/>
        <pt x="930" y="0" on="1"/>
        <pt x="868" y="0" on="1"/>
        <pt x="735" y="463" on="1"/>
        <pt x="698" y="606" on="1"/>
      </contour>
    </TTGlyph>
    <TTGlyph name="uni0058" xMin="19" yMin="0" xMax="541" yMax="660">
      <contour>
        <pt x="482" y="0" on="1"/>
        <pt x="282" y="299" on="1"/>
        <pt x="78" y="0" on="1"/>
        <pt x="19" y="0" on="1"/>
        <pt x="255" y="339" on="1"/>
        <pt x="39" y="660" on="1"/>
        <pt x="99" y="660" on="1"/>
        <pt x="287" y="381" on="1"/>
        <pt x="477" y="660" on="1"/>
        <pt x="533" y="660" on="1"/>
        <pt x="314" y="340" on="1"/>
        <pt x="541" y="0" on="1"/>
      </contour>
    </TTGlyph>
    <TTGlyph name="uni0059" xMin="13" yMin="0" xMax="531" yMax="660">
      <contour>
        <pt x="472" y="660" on="1"/>
        <pt x="531" y="660" on="1"/>
        <pt x="297" y="257" on="1"/>
        <pt x="297" y="0" on="1"/>
        <pt x="247" y="0" on="1"/>
        <pt x="247" y="257" on="1"/>
        <pt x="13" y="660" on="1"/>
        <pt x="72" y="660" on="1"/>
        <pt x="201" y="434" on="1"/>
        <pt x="272" y="309" on="1"/>
        <pt x="343" y="434" on="1"/>
      </contour>
    </TTGlyph>
    <TTGlyph name="uni005A" xMin="43" yMin="0" xMax="553" yMax="660">
      <contour>
        <pt x="553" y="0" on="1"/>
        <pt x="43" y="0" on="1"/>
        <pt x="43" y="44" on="1"/>
        <pt x="478" y="614" on="1"/>
        <pt x="52" y="614" on="1"/>
        <pt x="52" y="660" on="1"/>
        <pt x="537" y="660" on="1"/>
        <pt x="537" y="616" on="1"/>
        <pt x="102" y="46" on="1"/>
        <pt x="553" y="46" on="1"/>
      </contour>
    </TTGlyph>
    <TTGlyph name="uni005B" xMin="82" yMin="-168" xMax="288" yMax="730">
      <contour>
        <pt x="82" y="-168" on="1"/>
        <pt x="82" y="730" on="1"/>
        <pt x="288" y="730" on="1"/>
        <pt x="288" y="686" on="1"/>
        <pt x="129" y="686" on="1"/>
        <pt x="129" y="-124" on="1"/>
        <pt x="288" y="-124" on="1"/>
        <pt x="288" y="-168" on="1"/>
      </contour>
    </TTGlyph>
    <TTGlyph name="uni005B.case" xMin="82" yMin="-97" xMax="288" yMax="752">
      <contour>
        <pt x="82" y="-97" on="1"/>
        <pt x="82" y="752" on="1"/>
        <pt x="288" y="752" on="1"/>
        <pt x="288" y="708" on="1"/>
        <pt x="129" y="708" on="1"/>
        <pt x="129" y="-53" on="1"/>
        <pt x="288" y="-53" on="1"/>
        <pt x="288" y="-97" on="1"/>
      </contour>
    </TTGlyph>
    <TTGlyph name="uni005C" xMin="32" yMin="-70" xMax="365" yMax="730">
      <component glyphName="uni002F" x="396" y="0" scalex="-1.0" scaley="1.0" flags="0x4"/>
    </TTGlyph>
    <TTGlyph name="uni005D" xMin="23" yMin="-168" xMax="229" yMax="730">
      <component glyphName="uni005B" x="311" y="0" scalex="-1.0" scaley="1.0" flags="0x4"/>
    </TTGlyph>
    <TTGlyph name="uni005D.case" xMin="23" yMin="-97" xMax="229" yMax="752">
      <component glyphName="uni005B.case" x="311" y="0" scalex="-1.0" scaley="1.0" flags="0x4"/>
    </TTGlyph>
    <TTGlyph name="uni005E" xMin="32" yMin="355" xMax="516" yMax="730">
      <contour>
        <pt x="464" y="355" on="1"/>
        <pt x="274" y="687" on="1"/>
        <pt x="84" y="355" on="1"/>
        <pt x="32" y="355" on="1"/>
        <pt x="249" y="730" on="1"/>
        <pt x="298" y="730" on="1"/>
        <pt x="516" y="355" on="1"/>
      </contour>
    </TTGlyph>
    <TTGlyph name="uni005F" xMin="0" yMin="-143" xMax="520" yMax="-97">
      <contour>
        <pt x="0" y="-97" on="1"/>
        <pt x="520" y="-97" on="1"/>
        <pt x="520" y="-143" on="1"/>
        <pt x="0" y="-143" on="1"/>
      </contour>
    </TTGlyph>
    <TTGlyph name="uni0060" xMin="140" yMin="583" xMax="275" yMax="741">
      <contour>
        <pt x="140" y="741" on="1"/>
        <pt x="194" y="741" on="1"/>
        <pt x="275" y="583" on="1"/>
        <pt x="233" y="583" on="1"/>
      </contour>
    </TTGlyph>
    <TTGlyph name="uni0061" xMin="52" yMin="-10" xMax="530" yMax="510">
      <contour>
        <pt x="478" y="-10" on="1"/>
        <pt x="447" y="-10" on="0"/>
        <pt x="400" y="24" on="0"/>
        <pt x="396" y="75" on="1"/>
        <pt x="372" y="33" on="0"/>
        <pt x="269" y="-10" on="0"/>
        <pt x="215" y="-10" on="1"/>
        <pt x="143" y="-10" on="0"/>
        <pt x="52" y="55" on="0"/>
        <pt x="52" y="117" on="1"/>
        <pt x="52" y="233" on="0"/>
        <pt x="242" y="267" on="1"/>
        <pt x="395" y="294" on="1"/>
        <pt x="395" y="338" on="1"/>
        <pt x="395" y="397" on="0"/>
        <pt x="325" y="466" on="0"/>
        <pt x="259" y="466" on="1"/>
        <pt x="140" y="466" on="0"/>
        <pt x="99" y="360" on="1"/>
        <pt x="61" y="388" on="1"/>
        <pt x="106" y="510" on="0"/>
        <pt x="259" y="510" on="1"/>
        <pt x="344" y="510" on="0"/>
        <pt x="445" y="427" on="0"/>
        <pt x="445" y="344" on="1"/>
        <pt x="445" y="86" on="1"/>
        <pt x="445" y="33" on="0"/>
        <pt x="491" y="33" on="1"/>
        <pt x="516" y="33" on="0"/>
        <pt x="530" y="40" on="1"/>
        <pt x="527" y="0" on="1"/>
        <pt x="509" y="-10" on="0"/>
      </contour>
      <contour>
        <pt x="220" y="34" on="1"/>
        <pt x="279" y="34" on="0"/>
        <pt x="395" y="97" on="0"/>
        <pt x="395" y="160" on="1"/>
        <pt x="395" y="253" on="1"/>
        <pt x="258" y="228" on="1"/>
        <pt x="103" y="199" on="0"/>
        <pt x="103" y="117" on="1"/>
        <pt x="103" y="34" on="0"/>
      </contour>
    </TTGlyph>
    <TTGlyph name="uni0061.sc" xMin="19" yMin="0" xMax="543" yMax="560">
      <contour>
        <pt x="260" y="456" on="1"/>
        <pt x="161" y="217" on="1"/>
        <pt x="400" y="217" on="1"/>
        <pt x="301" y="456" on="1"/>
        <pt x="281" y="514" on="1"/>
      </contour>
      <contour>
        <pt x="490" y="0" on="1"/>
        <pt x="418" y="174" on="1"/>
        <pt x="143" y="174" on="1"/>
        <pt x="71" y="0" on="1"/>
        <pt x="19" y="0" on="1"/>
        <pt x="251" y="560" on="1"/>
        <pt x="310" y="560" on="1"/>
        <pt x="543" y="0" on="1"/>
      </contour>
    </TTGlyph>
    <TTGlyph name="uni0062" xMin="89" yMin="-10" xMax="551" yMax="730">
      <contour>
        <pt x="134" y="0" on="1"/>
        <pt x="89" y="0" on="1"/>
        <pt x="89" y="730" on="1"/>
        <pt x="139" y="730" on="1"/>
        <pt x="139" y="171" on="1"/>
        <pt x="138" y="144" on="1"/>
      </contour>
      <contour>
        <pt x="551" y="250" on="1"/>
        <pt x="551" y="372" on="0"/>
        <pt x="429" y="510" on="0"/>
        <pt x="323" y="510" on="1"/>
        <pt x="233" y="510" on="0"/>
        <pt x="122" y="396" on="0"/>
        <pt x="122" y="304" on="1"/>
        <pt x="139" y="255" on="1"/>
        <pt x="139" y="353" on="0"/>
        <pt x="236" y="466" on="0"/>
        <pt x="317" y="466" on="1"/>
        <pt x="404" y="466" on="0"/>
        <pt x="501" y="351" on="0"/>
        <pt x="501" y="250" on="1"/>
        <pt x="501" y="150" on="0"/>
        <pt x="404" y="34" on="0"/>
        <pt x="317" y="34" on="1"/>
        <pt x="237" y="34" on="0"/>
        <pt x="139" y="147" on="0"/>
        <pt x="139" y="245" on="1"/>
        <pt x="123" y="194" on="1"/>
        <pt x="123" y="103" on="0"/>
        <pt x="233" y="-10" on="0"/>
        <pt x="323" y="-10" on="1"/>
        <pt x="429" y="-10" on="0"/>
        <pt x="551" y="128" on="0"/>
      </contour>
    </TTGlyph>
    <TTGlyph name="uni0062.sc" xMin="92" yMin="0" xMax="514" yMax="560">
      <contour>
        <pt x="308" y="0" on="1"/>
        <pt x="92" y="0" on="1"/>
        <pt x="92" y="560" on="1"/>
        <pt x="308" y="560" on="1"/>
        <pt x="497" y="560" on="0"/>
        <pt x="497" y="412" on="1"/>
        <pt x="497" y="363" on="0"/>
        <pt x="441" y="294" on="0"/>
        <pt x="390" y="284" on="1"/>
        <pt x="390" y="283" on="1"/>
        <pt x="452" y="276" on="0"/>
        <pt x="514" y="201" on="0"/>
        <pt x="514" y="149" on="1"/>
        <pt x="514" y="0" on="0"/>
      </contour>
      <contour>
        <pt x="142" y="517" on="1"/>
        <pt x="142" y="303" on="1"/>
        <pt x="311" y="303" on="1"/>
        <pt x="447" y="303" on="0"/>
        <pt x="447" y="410" on="1"/>
        <pt x="447" y="517" on="0"/>
        <pt x="311" y="517" on="1"/>
      </contour>
      <contour>
        <pt x="142" y="261" on="1"/>
        <pt x="142" y="43" on="1"/>
        <pt x="315" y="43" on="1"/>
        <pt x="464" y="43" on="0"/>
        <pt x="464" y="152" on="1"/>
        <pt x="464" y="261" on="0"/>
        <pt x="315" y="261" on="1"/>
      </contour>
    </TTGlyph>
    <TTGlyph name="uni0063" xMin="57" yMin="-10" xMax="500" yMax="510">
      <contour>
        <pt x="57" y="250" on="1"/>
        <pt x="57" y="372" on="0"/>
        <pt x="182" y="510" on="0"/>
        <pt x="293" y="510" on="1"/>
        <pt x="447" y="510" on="0"/>
        <pt x="496" y="375" on="1"/>
        <pt x="449" y="353" on="1"/>
        <pt x="415" y="466" on="0"/>
        <pt x="292" y="466" on="1"/>
        <pt x="205" y="466" on="0"/>
        <pt x="107" y="351" on="0"/>
        <pt x="107" y="250" on="1"/>
        <pt x="107" y="149" on="0"/>
        <pt x="203" y="34" on="0"/>
        <pt x="291" y="34" on="1"/>
        <pt x="355" y="34" on="0"/>
        <pt x="444" y="97" on="0"/>
        <pt x="454" y="153" on="1"/>
        <pt x="500" y="137" on="1"/>
        <pt x="481" y="69" on="0"/>
        <pt x="369" y="-10" on="0"/>
        <pt x="292" y="-10" on="1"/>
        <pt x="181" y="-10" on="0"/>
        <pt x="57" y="129" on="0"/>
      </contour>
    </TTGlyph>
    <TTGlyph name="uni0063.sc" xMin="56" yMin="-8" xMax="560" yMax="568">
      <contour>
        <pt x="512" y="162" on="1"/>
        <pt x="560" y="146" on="1"/>
        <pt x="539" y="71" on="0"/>
        <pt x="412" y="-8" on="0"/>
        <pt x="321" y="-8" on="1"/>
        <pt x="203" y="-8" on="0"/>
        <pt x="56" y="147" on="0"/>
        <pt x="56" y="280" on="1"/>
        <pt x="56" y="414" on="0"/>
        <pt x="202" y="568" on="0"/>
        <pt x="323" y="568" on="1"/>
        <pt x="507" y="568" on="0"/>
        <pt x="553" y="418" on="1"/>
        <pt x="506" y="397" on="1"/>
        <pt x="469" y="525" on="0"/>
        <pt x="322" y="525" on="1"/>
        <pt x="225" y="525" on="0"/>
        <pt x="106" y="394" on="0"/>
        <pt x="106" y="280" on="1"/>
        <pt x="106" y="165" on="0"/>
        <pt x="226" y="35" on="0"/>
        <pt x="320" y="35" on="1"/>
        <pt x="481" y="35" on="0"/>
      </contour>
    </TTGlyph>
    <TTGlyph name="uni00630074" xMin="57" yMin="-10" xMax="856" yMax="733">
      <contour>
        <pt x="856" y="32" on="1"/>
        <pt x="812" y="-10" on="0"/>
        <pt x="743" y="-10" on="1"/>
        <pt x="685" y="-10" on="0"/>
        <pt x="612" y="55" on="0"/>
        <pt x="612" y="125" on="1"/>
        <pt x="612" y="561" on="1"/>
        <pt x="612" y="690" on="0"/>
        <pt x="522" y="690" on="1"/>
        <pt x="485" y="690" on="0"/>
        <pt x="433" y="639" on="0"/>
        <pt x="433" y="573" on="1"/>
        <pt x="433" y="530" on="0"/>
        <pt x="467" y="433" on="0"/>
        <pt x="495" y="375" on="1"/>
        <pt x="448" y="353" on="1"/>
        <pt x="413" y="466" on="0"/>
        <pt x="292" y="466" on="1"/>
        <pt x="205" y="466" on="0"/>
        <pt x="107" y="351" on="0"/>
        <pt x="107" y="250" on="1"/>
        <pt x="107" y="149" on="0"/>
        <pt x="203" y="34" on="0"/>
        <pt x="291" y="34" on="1"/>
        <pt x="353" y="34" on="0"/>
        <pt x="441" y="97" on="0"/>
        <pt x="454" y="153" on="1"/>
        <pt x="499" y="138" on="1"/>
        <pt x="480" y="69" on="0"/>
        <pt x="369" y="-10" on="0"/>
        <pt x="292" y="-10" on="1"/>
        <pt x="181" y="-10" on="0"/>
        <pt x="57" y="129" on="0"/>
        <pt x="57" y="250" on="1"/>
        <pt x="57" y="372" on="0"/>
        <pt x="182" y="510" on="0"/>
        <pt x="293" y="510" on="1"/>
        <pt x="363" y="510" on="0"/>
        <pt x="409" y="479" on="1"/>
        <pt x="388" y="526" on="0"/>
        <pt x="388" y="580" on="1"/>
        <pt x="388" y="663" on="0"/>
        <pt x="469" y="733" on="0"/>
        <pt x="525" y="733" on="1"/>
        <pt x="585" y="733" on="0"/>
        <pt x="662" y="659" on="0"/>
        <pt x="662" y="582" on="1"/>
        <pt x="662" y="500" on="1"/>
        <pt x="851" y="500" on="1"/>
        <pt x="851" y="457" on="1"/>
        <pt x="662" y="457" on="1"/>
        <pt x="662" y="132" on="1"/>
        <pt x="662" y="36" on="0"/>
        <pt x="751" y="36" on="1"/>
        <pt x="802" y="36" on="0"/>
        <pt x="837" y="73" on="1"/>
      </contour>
    </TTGlyph>
    <TTGlyph name="uni0064" xMin="58" yMin="-10" xMax="520" yMax="730">
      <contour>
        <pt x="520" y="0" on="1"/>
        <pt x="475" y="0" on="1"/>
        <pt x="471" y="144" on="1"/>
        <pt x="470" y="152" on="1"/>
        <pt x="470" y="730" on="1"/>
        <pt x="520" y="730" on="1"/>
      </contour>
      <contour>
        <pt x="58" y="250" on="1"/>
        <pt x="58" y="372" on="0"/>
        <pt x="180" y="510" on="0"/>
        <pt x="286" y="510" on="1"/>
        <pt x="376" y="510" on="0"/>
        <pt x="487" y="396" on="0"/>
        <pt x="487" y="304" on="1"/>
        <pt x="470" y="255" on="1"/>
        <pt x="470" y="353" on="0"/>
        <pt x="373" y="466" on="0"/>
        <pt x="292" y="466" on="1"/>
        <pt x="205" y="466" on="0"/>
        <pt x="108" y="351" on="0"/>
        <pt x="108" y="250" on="1"/>
        <pt x="108" y="150" on="0"/>
        <pt x="205" y="34" on="0"/>
        <pt x="292" y="34" on="1"/>
        <pt x="372" y="34" on="0"/>
        <pt x="470" y="147" on="0"/>
        <pt x="470" y="245" on="1"/>
        <pt x="486" y="194" on="1"/>
        <pt x="486" y="103" on="0"/>
        <pt x="376" y="-10" on="0"/>
        <pt x="286" y="-10" on="1"/>
        <pt x="180" y="-10" on="0"/>
        <pt x="58" y="128" on="0"/>
      </contour>
    </TTGlyph>
    <TTGlyph name="uni0064.sc" xMin="92" yMin="0" xMax="573" yMax="560">
      <contour>
        <pt x="285" y="517" on="1"/>
        <pt x="142" y="517" on="1"/>
        <pt x="142" y="43" on="1"/>
        <pt x="285" y="43" on="1"/>
        <pt x="523" y="43" on="0"/>
        <pt x="523" y="284" on="1"/>
        <pt x="523" y="517" on="0"/>
      </contour>
      <contour>
        <pt x="92" y="0" on="1"/>
        <pt x="92" y="560" on="1"/>
        <pt x="282" y="560" on="1"/>
        <pt x="422" y="560" on="0"/>
        <pt x="573" y="418" on="0"/>
        <pt x="573" y="284" on="1"/>
        <pt x="573" y="146" on="0"/>
        <pt x="422" y="0" on="0"/>
        <pt x="282" y="0" on="1"/>
      </contour>
    </TTGlyph>
    <TTGlyph name="uni0065" xMin="57" yMin="-10" xMax="505" yMax="510">
      <contour>
        <pt x="287" y="466" on="1"/>
        <pt x="206" y="466" on="0"/>
        <pt x="112" y="364" on="0"/>
        <pt x="107" y="274" on="1"/>
        <pt x="458" y="274" on="1"/>
        <pt x="453" y="363" on="0"/>
        <pt x="365" y="466" on="0"/>
      </contour>
      <contour>
        <pt x="498" y="104" on="1"/>
        <pt x="470" y="51" on="0"/>
        <pt x="368" y="-10" on="0"/>
        <pt x="293" y="-10" on="1"/>
        <pt x="182" y="-10" on="0"/>
        <pt x="57" y="129" on="0"/>
        <pt x="57" y="250" on="1"/>
        <pt x="57" y="372" on="0"/>
        <pt x="178" y="510" on="0"/>
        <pt x="287" y="510" on="1"/>
        <pt x="391" y="510" on="0"/>
        <pt x="505" y="372" on="0"/>
        <pt x="505" y="262" on="1"/>
        <pt x="505" y="245" on="0"/>
        <pt x="503" y="229" on="1"/>
        <pt x="107" y="229" on="1"/>
        <pt x="112" y="137" on="0"/>
        <pt x="210" y="34" on="0"/>
        <pt x="293" y="34" on="1"/>
        <pt x="417" y="34" on="0"/>
        <pt x="456" y="126" on="1"/>
      </contour>
    </TTGlyph>
    <TTGlyph name="uni0065.sc" xMin="92" yMin="0" xMax="510" yMax="560">
      <contour>
        <pt x="92" y="0" on="1"/>
        <pt x="92" y="560" on="1"/>
        <pt x="496" y="560" on="1"/>
        <pt x="496" y="517" on="1"/>
        <pt x="142" y="517" on="1"/>
        <pt x="142" y="306" on="1"/>
        <pt x="422" y="306" on="1"/>
        <pt x="422" y="263" on="1"/>
        <pt x="142" y="263" on="1"/>
        <pt x="142" y="43" on="1"/>
        <pt x="510" y="43" on="1"/>
        <pt x="510" y="0" on="1"/>
      </contour>
    </TTGlyph>
    <TTGlyph name="uni0066" xMin="23" yMin="0" xMax="353" yMax="735">
      <contour>
        <pt x="349" y="457" on="1"/>
        <pt x="173" y="457" on="1"/>
        <pt x="173" y="0" on="1"/>
        <pt x="123" y="0" on="1"/>
        <pt x="123" y="457" on="1"/>
        <pt x="23" y="457" on="1"/>
        <pt x="23" y="500" on="1"/>
        <pt x="123" y="500" on="1"/>
        <pt x="123" y="584" on="1"/>
        <pt x="123" y="652" on="0"/>
        <pt x="199" y="735" on="0"/>
        <pt x="272" y="735" on="1"/>
        <pt x="326" y="735" on="0"/>
        <pt x="353" y="708" on="1"/>
        <pt x="339" y="668" on="1"/>
        <pt x="314" y="690" on="0"/>
        <pt x="276" y="690" on="1"/>
        <pt x="173" y="690" on="0"/>
        <pt x="173" y="579" on="1"/>
        <pt x="173" y="500" on="1"/>
        <pt x="349" y="500" on="1"/>
      </contour>
    </TTGlyph>
    <TTGlyph name="uni0066.sc" xMin="92" yMin="0" xMax="496" yMax="560">
      <contour>
        <pt x="422" y="263" on="1"/>
        <pt x="142" y="263" on="1"/>
        <pt x="142" y="0" on="1"/>
        <pt x="92" y="0" on="1"/>
        <pt x="92" y="560" on="1"/>
        <pt x="496" y="560" on="1"/>
        <pt x="496" y="517" on="1"/>
        <pt x="142" y="517" on="1"/>
        <pt x="142" y="306" on="1"/>
        <pt x="422" y="306" on="1"/>
      </contour>
    </TTGlyph>
    <TTGlyph name="uni0067" xMin="35" yMin="-215" xMax="515" yMax="592">
      <contour>
        <pt x="376" y="465" on="1"/>
        <pt x="375" y="524" on="0"/>
        <pt x="447" y="592" on="0"/>
        <pt x="503" y="592" on="1"/>
        <pt x="515" y="548" on="1"/>
        <pt x="407" y="548" on="0"/>
        <pt x="409" y="451" on="1"/>
      </contour>
      <contour>
        <pt x="417" y="347" on="1"/>
        <pt x="417" y="403" on="0"/>
        <pt x="336" y="468" on="0"/>
        <pt x="265" y="468" on="1"/>
        <pt x="195" y="468" on="0"/>
        <pt x="112" y="403" on="0"/>
        <pt x="112" y="347" on="1"/>
        <pt x="112" y="291" on="0"/>
        <pt x="195" y="225" on="0"/>
        <pt x="265" y="225" on="1"/>
        <pt x="336" y="225" on="0"/>
        <pt x="417" y="291" on="0"/>
      </contour>
      <contour>
        <pt x="507" y="-63" on="1"/>
        <pt x="507" y="-132" on="0"/>
        <pt x="372" y="-215" on="0"/>
        <pt x="268" y="-215" on="1"/>
        <pt x="152" y="-215" on="0"/>
        <pt x="35" y="-140" on="0"/>
        <pt x="35" y="-82" on="1"/>
        <pt x="35" y="-1" on="0"/>
        <pt x="125" y="25" on="1"/>
        <pt x="97" y="38" on="0"/>
        <pt x="61" y="83" on="0"/>
        <pt x="61" y="112" on="1"/>
        <pt x="61" y="149" on="0"/>
        <pt x="109" y="199" on="0"/>
        <pt x="147" y="209" on="1"/>
        <pt x="62" y="253" on="0"/>
        <pt x="62" y="347" on="1"/>
        <pt x="62" y="421" on="0"/>
        <pt x="174" y="510" on="0"/>
        <pt x="265" y="510" on="1"/>
        <pt x="357" y="510" on="0"/>
        <pt x="468" y="421" on="0"/>
        <pt x="468" y="347" on="1"/>
        <pt x="468" y="273" on="0"/>
        <pt x="357" y="183" on="0"/>
        <pt x="265" y="183" on="1"/>
        <pt x="229" y="183" on="0"/>
        <pt x="198" y="190" on="1"/>
        <pt x="108" y="180" on="0"/>
        <pt x="108" y="119" on="1"/>
        <pt x="108" y="51" on="0"/>
        <pt x="217" y="51" on="1"/>
        <pt x="345" y="51" on="1"/>
        <pt x="421" y="51" on="0"/>
        <pt x="507" y="-11" on="0"/>
      </contour>
      <contour>
        <pt x="274" y="-173" on="1"/>
        <pt x="360" y="-173" on="0"/>
        <pt x="461" y="-113" on="0"/>
        <pt x="461" y="-69" on="1"/>
        <pt x="461" y="8" on="0"/>
        <pt x="334" y="8" on="1"/>
        <pt x="205" y="8" on="1"/>
        <pt x="148" y="8" on="0"/>
        <pt x="81" y="-37" on="0"/>
        <pt x="81" y="-74" on="1"/>
        <pt x="81" y="-119" on="0"/>
        <pt x="180" y="-173" on="0"/>
      </contour>
    </TTGlyph>
    <TTGlyph name="uni0067.sc" xMin="56" yMin="-8" xMax="563" yMax="568">
      <contour>
        <pt x="523" y="0" on="1"/>
        <pt x="521" y="110" on="1"/>
        <pt x="473" y="-8" on="0"/>
        <pt x="320" y="-8" on="1"/>
        <pt x="200" y="-8" on="0"/>
        <pt x="56" y="147" on="0"/>
        <pt x="56" y="280" on="1"/>
        <pt x="56" y="414" on="0"/>
        <pt x="206" y="568" on="0"/>
        <pt x="326" y="568" on="1"/>
        <pt x="504" y="568" on="0"/>
        <pt x="560" y="428" on="1"/>
        <pt x="515" y="404" on="1"/>
        <pt x="475" y="525" on="0"/>
        <pt x="327" y="525" on="1"/>
        <pt x="230" y="525" on="0"/>
        <pt x="106" y="394" on="0"/>
        <pt x="106" y="280" on="1"/>
        <pt x="106" y="165" on="0"/>
        <pt x="223" y="35" on="0"/>
        <pt x="324" y="35" on="1"/>
        <pt x="425" y="35" on="0"/>
        <pt x="516" y="151" on="0"/>
        <pt x="516" y="222" on="1"/>
        <pt x="516" y="234" on="1"/>
        <pt x="320" y="234" on="1"/>
        <pt x="320" y="276" on="1"/>
        <pt x="563" y="276" on="1"/>
        <pt x="563" y="0" on="1"/>
      </contour>
    </TTGlyph>
    <TTGlyph name="uni0067.sc.ss04" xMin="56" yMin="-8" xMax="570" yMax="568">
      <contour>
        <pt x="570" y="251" on="1"/>
        <pt x="570" y="139" on="0"/>
        <pt x="453" y="-8" on="0"/>
        <pt x="322" y="-8" on="1"/>
        <pt x="201" y="-8" on="0"/>
        <pt x="56" y="147" on="0"/>
        <pt x="56" y="280" on="1"/>
        <pt x="56" y="414" on="0"/>
        <pt x="203" y="568" on="0"/>
        <pt x="324" y="568" on="1"/>
        <pt x="502" y="568" on="0"/>
        <pt x="558" y="428" on="1"/>
        <pt x="512" y="406" on="1"/>
        <pt x="473" y="525" on="0"/>
        <pt x="324" y="525" on="1"/>
        <pt x="227" y="525" on="0"/>
        <pt x="106" y="394" on="0"/>
        <pt x="106" y="280" on="1"/>
        <pt x="106" y="165" on="0"/>
        <pt x="223" y="35" on="0"/>
        <pt x="327" y="35" on="1"/>
        <pt x="405" y="35" on="0"/>
        <pt x="490" y="99" on="0"/>
        <pt x="523" y="192" on="0"/>
        <pt x="523" y="233" on="1"/>
        <pt x="523" y="234" on="1"/>
        <pt x="321" y="234" on="1"/>
        <pt x="321" y="276" on="1"/>
        <pt x="570" y="276" on="1"/>
      </contour>
    </TTGlyph>
    <TTGlyph name="uni0067.ss01" xMin="57" yMin="-215" xMax="520" yMax="510">
      <contour>
        <pt x="292" y="39" on="1"/>
        <pt x="372" y="39" on="0"/>
        <pt x="469" y="151" on="0"/>
        <pt x="469" y="248" on="1"/>
        <pt x="469" y="260" on="1"/>
        <pt x="468" y="356" on="0"/>
        <pt x="371" y="466" on="0"/>
        <pt x="292" y="466" on="1"/>
        <pt x="205" y="466" on="0"/>
        <pt x="107" y="352" on="0"/>
        <pt x="107" y="253" on="1"/>
        <pt x="107" y="153" on="0"/>
        <pt x="205" y="39" on="0"/>
      </contour>
      <contour>
        <pt x="277" y="-215" on="1"/>
        <pt x="198" y="-215" on="0"/>
        <pt x="86" y="-153" on="0"/>
        <pt x="73" y="-91" on="1"/>
        <pt x="121" y="-70" on="1"/>
        <pt x="140" y="-171" on="0"/>
        <pt x="284" y="-171" on="1"/>
        <pt x="369" y="-171" on="0"/>
        <pt x="469" y="-71" on="0"/>
        <pt x="469" y="14" on="1"/>
        <pt x="469" y="103" on="1"/>
        <pt x="418" y="-5" on="0"/>
        <pt x="285" y="-5" on="1"/>
        <pt x="179" y="-5" on="0"/>
        <pt x="57" y="132" on="0"/>
        <pt x="57" y="253" on="1"/>
        <pt x="57" y="374" on="0"/>
        <pt x="179" y="510" on="0"/>
        <pt x="285" y="510" on="1"/>
        <pt x="352" y="510" on="0"/>
        <pt x="449" y="449" on="0"/>
        <pt x="471" y="397" on="1"/>
        <pt x="477" y="500" on="1"/>
        <pt x="520" y="500" on="1"/>
        <pt x="520" y="25" on="1"/>
        <pt x="520" y="-215" on="0"/>
      </contour>
    </TTGlyph>
    <TTGlyph name="uni0068" xMin="89" yMin="0" xMax="514" yMax="730">
      <contour>
        <pt x="139" y="282" on="1"/>
        <pt x="139" y="0" on="1"/>
        <pt x="89" y="0" on="1"/>
        <pt x="89" y="730" on="1"/>
        <pt x="139" y="730" on="1"/>
        <pt x="139" y="400" on="1"/>
        <pt x="163" y="454" on="0"/>
        <pt x="261" y="510" on="0"/>
        <pt x="323" y="510" on="1"/>
        <pt x="406" y="510" on="0"/>
        <pt x="514" y="417" on="0"/>
        <pt x="514" y="325" on="1"/>
        <pt x="514" y="0" on="1"/>
        <pt x="464" y="0" on="1"/>
        <pt x="464" y="309" on="1"/>
        <pt x="464" y="391" on="0"/>
        <pt x="383" y="467" on="0"/>
        <pt x="318" y="467" on="1"/>
        <pt x="248" y="467" on="0"/>
        <pt x="139" y="370" on="0"/>
      </contour>
    </TTGlyph>
    <TTGlyph name="uni0068.sc" xMin="92" yMin="0" xMax="549" yMax="560">
      <contour>
        <pt x="499" y="0" on="1"/>
        <pt x="499" y="263" on="1"/>
        <pt x="142" y="263" on="1"/>
        <pt x="142" y="0" on="1"/>
        <pt x="92" y="0" on="1"/>
        <pt x="92" y="560" on="1"/>
        <pt x="142" y="560" on="1"/>
        <pt x="142" y="306" on="1"/>
        <pt x="499" y="306" on="1"/>
        <pt x="499" y="560" on="1"/>
        <pt x="549" y="560" on="1"/>
        <pt x="549" y="0" on="1"/>
      </contour>
    </TTGlyph>
    <TTGlyph name="uni0069" xMin="72" yMin="0" xMax="156" yMax="681">
      <contour>
        <pt x="156" y="639" on="1"/>
        <pt x="156" y="597" on="0"/>
        <pt x="114" y="597" on="1"/>
        <pt x="72" y="597" on="0"/>
        <pt x="72" y="639" on="1"/>
        <pt x="72" y="681" on="0"/>
        <pt x="114" y="681" on="1"/>
        <pt x="156" y="681" on="0"/>
      </contour>
      <contour>
        <pt x="89" y="500" on="1"/>
        <pt x="139" y="500" on="1"/>
        <pt x="139" y="0" on="1"/>
        <pt x="89" y="0" on="1"/>
      </contour>
    </TTGlyph>
    <TTGlyph name="uni0069.sc" xMin="92" yMin="0" xMax="142" yMax="560">
      <contour>
        <pt x="92" y="560" on="1"/>
        <pt x="142" y="560" on="1"/>
        <pt x="142" y="0" on="1"/>
        <pt x="92" y="0" on="1"/>
      </contour>
    </TTGlyph>
    <TTGlyph name="uni006A" xMin="-90" yMin="-215" xMax="156" yMax="681">
      <contour>
        <pt x="72" y="639" on="1"/>
        <pt x="72" y="681" on="0"/>
        <pt x="114" y="681" on="1"/>
        <pt x="156" y="681" on="0"/>
        <pt x="156" y="639" on="1"/>
        <pt x="156" y="597" on="0"/>
        <pt x="114" y="597" on="1"/>
        <pt x="97" y="597" on="0"/>
        <pt x="72" y="622" on="0"/>
      </contour>
      <contour>
        <pt x="89" y="500" on="1"/>
        <pt x="139" y="500" on="1"/>
        <pt x="139" y="-57" on="1"/>
        <pt x="139" y="-140" on="0"/>
        <pt x="52" y="-215" on="0"/>
        <pt x="-3" y="-215" on="1"/>
        <pt x="-57" y="-215" on="0"/>
        <pt x="-90" y="-187" on="1"/>
        <pt x="-78" y="-140" on="1"/>
        <pt x="-49" y="-167" on="0"/>
        <pt x="-4" y="-167" on="1"/>
        <pt x="38" y="-167" on="0"/>
        <pt x="89" y="-110" on="0"/>
        <pt x="89" y="-53" on="1"/>
      </contour>
    </TTGlyph>
    <TTGlyph name="uni006A.sc" xMin="23" yMin="-8" xMax="398" yMax="560">
      <contour>
        <pt x="348" y="560" on="1"/>
        <pt x="398" y="560" on="1"/>
        <pt x="398" y="188" on="1"/>
        <pt x="398" y="97" on="0"/>
        <pt x="300" y="-8" on="0"/>
        <pt x="208" y="-8" on="1"/>
        <pt x="111" y="-8" on="0"/>
        <pt x="23" y="96" on="0"/>
        <pt x="37" y="182" on="1"/>
        <pt x="85" y="193" on="1"/>
        <pt x="62" y="35" on="0"/>
        <pt x="207" y="35" on="1"/>
        <pt x="282" y="35" on="0"/>
        <pt x="348" y="119" on="0"/>
        <pt x="348" y="195" on="1"/>
      </contour>
    </TTGlyph>
    <TTGlyph name="uni006B" xMin="89" yMin="0" xMax="509" yMax="730">
      <contour>
        <pt x="448" y="0" on="1"/>
        <pt x="257" y="265" on="1"/>
        <pt x="139" y="150" on="1"/>
        <pt x="139" y="0" on="1"/>
        <pt x="89" y="0" on="1"/>
        <pt x="89" y="730" on="1"/>
        <pt x="139" y="730" on="1"/>
        <pt x="139" y="214" on="1"/>
        <pt x="436" y="500" on="1"/>
        <pt x="501" y="500" on="1"/>
        <pt x="294" y="300" on="1"/>
        <pt x="509" y="0" on="1"/>
      </contour>
    </TTGlyph>
    <TTGlyph name="uni006B.sc" xMin="92" yMin="0" xMax="528" yMax="560">
      <contour>
        <pt x="466" y="0" on="1"/>
        <pt x="257" y="300" on="1"/>
        <pt x="142" y="188" on="1"/>
        <pt x="142" y="0" on="1"/>
        <pt x="92" y="0" on="1"/>
        <pt x="92" y="560" on="1"/>
        <pt x="142" y="560" on="1"/>
        <pt x="142" y="248" on="1"/>
        <pt x="458" y="560" on="1"/>
        <pt x="521" y="560" on="1"/>
        <pt x="294" y="332" on="1"/>
        <pt x="528" y="0" on="1"/>
      </contour>
    </TTGlyph>
    <TTGlyph name="uni006C" xMin="85" yMin="-10" xMax="264" yMax="730">
      <contour>
        <pt x="85" y="730" on="1"/>
        <pt x="135" y="730" on="1"/>
        <pt x="135" y="121" on="1"/>
        <pt x="135" y="37" on="0"/>
        <pt x="198" y="37" on="1"/>
        <pt x="232" y="37" on="0"/>
        <pt x="264" y="51" on="1"/>
        <pt x="257" y="3" on="1"/>
        <pt x="229" y="-10" on="0"/>
        <pt x="191" y="-10" on="1"/>
        <pt x="85" y="-10" on="0"/>
        <pt x="85" y="116" on="1"/>
      </contour>
    </TTGlyph>
    <TTGlyph name="uni006C.sc" xMin="92" yMin="0" xMax="491" yMax="560">
      <contour>
        <pt x="92" y="0" on="1"/>
        <pt x="92" y="560" on="1"/>
        <pt x="142" y="560" on="1"/>
        <pt x="142" y="43" on="1"/>
        <pt x="491" y="43" on="1"/>
        <pt x="491" y="0" on="1"/>
      </contour>
    </TTGlyph>
    <TTGlyph name="uni006C.ss02" xMin="92" yMin="0" xMax="142" yMax="730">
      <contour>
        <pt x="92" y="730" on="1"/>
        <pt x="142" y="730" on="1"/>
        <pt x="142" y="0" on="1"/>
        <pt x="92" y="0" on="1"/>
      </contour>
    </TTGlyph>
    <TTGlyph name="uni006D" xMin="89" yMin="0" xMax="876" yMax="511">
      <contour>
        <pt x="139" y="283" on="1"/>
        <pt x="139" y="0" on="1"/>
        <pt x="89" y="0" on="1"/>
        <pt x="89" y="500" on="1"/>
        <pt x="134" y="500" on="1"/>
        <pt x="137" y="401" on="1"/>
        <pt x="162" y="454" on="0"/>
        <pt x="260" y="510" on="0"/>
        <pt x="319" y="510" on="1"/>
        <pt x="381" y="510" on="0"/>
        <pt x="479" y="451" on="0"/>
        <pt x="498" y="393" on="1"/>
        <pt x="519" y="449" on="0"/>
        <pt x="627" y="511" on="0"/>
        <pt x="688" y="511" on="1"/>
        <pt x="767" y="511" on="0"/>
        <pt x="876" y="418" on="0"/>
        <pt x="876" y="325" on="1"/>
        <pt x="876" y="1" on="1"/>
        <pt x="826" y="1" on="1"/>
        <pt x="826" y="320" on="1"/>
        <pt x="826" y="394" on="0"/>
        <pt x="746" y="467" on="0"/>
        <pt x="682" y="467" on="1"/>
        <pt x="610" y="467" on="0"/>
        <pt x="508" y="367" on="0"/>
        <pt x="508" y="288" on="1"/>
        <pt x="508" y="0" on="1"/>
        <pt x="458" y="0" on="1"/>
        <pt x="458" y="319" on="1"/>
        <pt x="458" y="393" on="0"/>
        <pt x="378" y="466" on="0"/>
        <pt x="314" y="466" on="1"/>
        <pt x="247" y="466" on="0"/>
        <pt x="139" y="369" on="0"/>
      </contour>
    </TTGlyph>
    <TTGlyph name="uni006D.sc" xMin="92" yMin="0" xMax="647" yMax="560">
      <contour>
        <pt x="140" y="0" on="1"/>
        <pt x="92" y="0" on="1"/>
        <pt x="92" y="560" on="1"/>
        <pt x="167" y="560" on="1"/>
        <pt x="340" y="135" on="1"/>
        <pt x="369" y="55" on="1"/>
        <pt x="371" y="55" on="1"/>
        <pt x="399" y="135" on="1"/>
        <pt x="572" y="560" on="1"/>
        <pt x="647" y="560" on="1"/>
        <pt x="647" y="0" on="1"/>
        <pt x="598" y="0" on="1"/>
        <pt x="598" y="401" on="1"/>
        <pt x="603" y="510" on="1"/>
        <pt x="601" y="510" on="1"/>
        <pt x="394" y="0" on="1"/>
        <pt x="345" y="0" on="1"/>
        <pt x="138" y="510" on="1"/>
        <pt x="136" y="510" on="1"/>
        <pt x="140" y="401" on="1"/>
      </contour>
    </TTGlyph>
    <TTGlyph name="uni006E" xMin="89" yMin="0" xMax="514" yMax="510">
      <contour>
        <pt x="139" y="282" on="1"/>
        <pt x="139" y="0" on="1"/>
        <pt x="89" y="0" on="1"/>
        <pt x="89" y="500" on="1"/>
        <pt x="134" y="500" on="1"/>
        <pt x="137" y="400" on="1"/>
        <pt x="161" y="454" on="0"/>
        <pt x="261" y="510" on="0"/>
        <pt x="323" y="510" on="1"/>
        <pt x="406" y="510" on="0"/>
        <pt x="514" y="416" on="0"/>
        <pt x="514" y="324" on="1"/>
        <pt x="514" y="0" on="1"/>
        <pt x="464" y="0" on="1"/>
        <pt x="464" y="308" on="1"/>
        <pt x="464" y="391" on="0"/>
        <pt x="383" y="466" on="0"/>
        <pt x="318" y="466" on="1"/>
        <pt x="248" y="466" on="0"/>
        <pt x="139" y="370" on="0"/>
      </contour>
    </TTGlyph>
    <TTGlyph name="uni006E.sc" xMin="92" yMin="0" xMax="549" yMax="560">
      <contour>
        <pt x="500" y="560" on="1"/>
        <pt x="549" y="560" on="1"/>
        <pt x="549" y="0" on="1"/>
        <pt x="482" y="0" on="1"/>
        <pt x="177" y="445" on="1"/>
        <pt x="139" y="507" on="1"/>
        <pt x="138" y="507" on="1"/>
        <pt x="141" y="446" on="1"/>
        <pt x="141" y="0" on="1"/>
        <pt x="92" y="0" on="1"/>
        <pt x="92" y="560" on="1"/>
        <pt x="159" y="560" on="1"/>
        <pt x="460" y="120" on="1"/>
        <pt x="502" y="53" on="1"/>
        <pt x="503" y="53" on="1"/>
        <pt x="500" y="114" on="1"/>
      </contour>
    </TTGlyph>
    <TTGlyph name="uni006E.swsh" xMin="89" yMin="-90" xMax="617" yMax="510">
      <contour>
        <pt x="552" y="-90" on="1"/>
        <pt x="506" y="-90" on="0"/>
        <pt x="464" y="-37" on="0"/>
        <pt x="464" y="7" on="1"/>
        <pt x="464" y="308" on="1"/>
        <pt x="464" y="391" on="0"/>
        <pt x="383" y="466" on="0"/>
        <pt x="318" y="466" on="1"/>
        <pt x="248" y="466" on="0"/>
        <pt x="139" y="370" on="0"/>
        <pt x="139" y="282" on="1"/>
        <pt x="139" y="0" on="1"/>
        <pt x="89" y="0" on="1"/>
        <pt x="89" y="500" on="1"/>
        <pt x="134" y="500" on="1"/>
        <pt x="137" y="400" on="1"/>
        <pt x="161" y="454" on="0"/>
        <pt x="261" y="510" on="0"/>
        <pt x="323" y="510" on="1"/>
        <pt x="406" y="510" on="0"/>
        <pt x="514" y="416" on="0"/>
        <pt x="514" y="324" on="1"/>
        <pt x="514" y="5" on="1"/>
        <pt x="514" y="-50" on="0"/>
        <pt x="566" y="-50" on="1"/>
        <pt x="597" y="-50" on="0"/>
        <pt x="617" y="-36" on="1"/>
        <pt x="610" y="-76" on="1"/>
        <pt x="590" y="-90" on="0"/>
      </contour>
    </TTGlyph>
    <TTGlyph name="uni006F" xMin="57" yMin="-10" xMax="533" yMax="510">
      <contour>
        <pt x="57" y="250" on="1"/>
        <pt x="57" y="372" on="0"/>
        <pt x="184" y="510" on="0"/>
        <pt x="295" y="510" on="1"/>
        <pt x="406" y="510" on="0"/>
        <pt x="533" y="372" on="0"/>
        <pt x="533" y="250" on="1"/>
        <pt x="533" y="129" on="0"/>
        <pt x="406" y="-10" on="0"/>
        <pt x="295" y="-10" on="1"/>
        <pt x="184" y="-10" on="0"/>
        <pt x="57" y="129" on="0"/>
      </contour>
      <contour>
        <pt x="483" y="250" on="1"/>
        <pt x="483" y="351" on="0"/>
        <pt x="383" y="467" on="0"/>
        <pt x="295" y="467" on="1"/>
        <pt x="207" y="467" on="0"/>
        <pt x="107" y="351" on="0"/>
        <pt x="107" y="250" on="1"/>
        <pt x="107" y="149" on="0"/>
        <pt x="207" y="33" on="0"/>
        <pt x="295" y="33" on="1"/>
        <pt x="383" y="33" on="0"/>
        <pt x="483" y="149" on="0"/>
      </contour>
    </TTGlyph>
    <TTGlyph name="uni006F.sc" xMin="56" yMin="-8" xMax="598" yMax="568">
      <contour>
        <pt x="56" y="280" on="1"/>
        <pt x="56" y="414" on="0"/>
        <pt x="202" y="568" on="0"/>
        <pt x="327" y="568" on="1"/>
        <pt x="452" y="568" on="0"/>
        <pt x="598" y="414" on="0"/>
        <pt x="598" y="280" on="1"/>
        <pt x="598" y="147" on="0"/>
        <pt x="452" y="-8" on="0"/>
        <pt x="327" y="-8" on="1"/>
        <pt x="202" y="-8" on="0"/>
        <pt x="56" y="147" on="0"/>
      </contour>
      <contour>
        <pt x="548" y="280" on="1"/>
        <pt x="548" y="395" on="0"/>
        <pt x="429" y="525" on="0"/>
        <pt x="327" y="525" on="1"/>
        <pt x="226" y="525" on="0"/>
        <pt x="106" y="395" on="0"/>
        <pt x="106" y="280" on="1"/>
        <pt x="106" y="165" on="0"/>
        <pt x="226" y="35" on="0"/>
        <pt x="327" y="35" on="1"/>
        <pt x="429" y="35" on="0"/>
        <pt x="548" y="165" on="0"/>
      </contour>
    </TTGlyph>
    <TTGlyph name="uni0070" xMin="89" yMin="-210" xMax="551" yMax="510">
      <contour>
        <pt x="139" y="-210" on="1"/>
        <pt x="89" y="-210" on="1"/>
        <pt x="89" y="500" on="1"/>
        <pt x="134" y="500" on="1"/>
        <pt x="138" y="354" on="1"/>
        <pt x="139" y="348" on="1"/>
      </contour>
      <contour>
        <pt x="551" y="250" on="1"/>
        <pt x="551" y="128" on="0"/>
        <pt x="429" y="-10" on="0"/>
        <pt x="323" y="-10" on="1"/>
        <pt x="233" y="-10" on="0"/>
        <pt x="122" y="105" on="0"/>
        <pt x="122" y="196" on="1"/>
        <pt x="139" y="245" on="1"/>
        <pt x="139" y="148" on="0"/>
        <pt x="236" y="34" on="0"/>
        <pt x="317" y="34" on="1"/>
        <pt x="404" y="34" on="0"/>
        <pt x="501" y="150" on="0"/>
        <pt x="501" y="250" on="1"/>
        <pt x="501" y="351" on="0"/>
        <pt x="404" y="466" on="0"/>
        <pt x="317" y="466" on="1"/>
        <pt x="237" y="466" on="0"/>
        <pt x="139" y="353" on="0"/>
        <pt x="139" y="255" on="1"/>
        <pt x="123" y="306" on="1"/>
        <pt x="123" y="397" on="0"/>
        <pt x="233" y="510" on="0"/>
        <pt x="323" y="510" on="1"/>
        <pt x="429" y="510" on="0"/>
        <pt x="551" y="372" on="0"/>
      </contour>
    </TTGlyph>
    <TTGlyph name="uni0070.sc" xMin="92" yMin="0" xMax="493" yMax="560">
      <contour>
        <pt x="292" y="517" on="1"/>
        <pt x="142" y="517" on="1"/>
        <pt x="142" y="273" on="1"/>
        <pt x="292" y="273" on="1"/>
        <pt x="443" y="273" on="0"/>
        <pt x="443" y="394" on="1"/>
        <pt x="443" y="517" on="0"/>
      </contour>
      <contour>
        <pt x="292" y="230" on="1"/>
        <pt x="142" y="230" on="1"/>
        <pt x="142" y="0" on="1"/>
        <pt x="92" y="0" on="1"/>
        <pt x="92" y="560" on="1"/>
        <pt x="292" y="560" on="1"/>
        <pt x="385" y="560" on="0"/>
        <pt x="493" y="472" on="0"/>
        <pt x="493" y="394" on="1"/>
        <pt x="493" y="318" on="0"/>
        <pt x="385" y="230" on="0"/>
      </contour>
    </TTGlyph>
    <TTGlyph name="uni0071" xMin="59" yMin="-210" xMax="521" yMax="510">
      <contour>
        <pt x="521" y="-210" on="1"/>
        <pt x="471" y="-210" on="1"/>
        <pt x="471" y="345" on="1"/>
        <pt x="472" y="353" on="1"/>
        <pt x="476" y="500" on="1"/>
        <pt x="521" y="500" on="1"/>
      </contour>
      <contour>
        <pt x="59" y="250" on="1"/>
        <pt x="59" y="128" on="0"/>
        <pt x="181" y="-10" on="0"/>
        <pt x="287" y="-10" on="1"/>
        <pt x="377" y="-10" on="0"/>
        <pt x="488" y="105" on="0"/>
        <pt x="488" y="196" on="1"/>
        <pt x="471" y="245" on="1"/>
        <pt x="471" y="148" on="0"/>
        <pt x="374" y="34" on="0"/>
        <pt x="293" y="34" on="1"/>
        <pt x="206" y="34" on="0"/>
        <pt x="109" y="150" on="0"/>
        <pt x="109" y="250" on="1"/>
        <pt x="109" y="351" on="0"/>
        <pt x="206" y="466" on="0"/>
        <pt x="293" y="466" on="1"/>
        <pt x="373" y="466" on="0"/>
        <pt x="471" y="353" on="0"/>
        <pt x="471" y="255" on="1"/>
        <pt x="487" y="306" on="1"/>
        <pt x="487" y="397" on="0"/>
        <pt x="377" y="510" on="0"/>
        <pt x="287" y="510" on="1"/>
        <pt x="181" y="510" on="0"/>
        <pt x="59" y="372" on="0"/>
      </contour>
    </TTGlyph>
    <TTGlyph name="uni0071.sc" xMin="56" yMin="-168" xMax="598" yMax="568">
      <contour>
        <pt x="304" y="7" on="1"/>
        <pt x="345" y="13" on="1"/>
        <pt x="344" y="-61" on="0"/>
        <pt x="417" y="-123" on="0"/>
        <pt x="473" y="-123" on="1"/>
        <pt x="535" y="-123" on="0"/>
        <pt x="572" y="-89" on="1"/>
        <pt x="588" y="-131" on="1"/>
        <pt x="546" y="-168" on="0"/>
        <pt x="472" y="-166" on="1"/>
        <pt x="399" y="-166" on="0"/>
        <pt x="304" y="-82" on="0"/>
      </contour>
      <contour>
        <pt x="56" y="280" on="1"/>
        <pt x="56" y="414" on="0"/>
        <pt x="202" y="568" on="0"/>
        <pt x="327" y="568" on="1"/>
        <pt x="452" y="568" on="0"/>
        <pt x="598" y="414" on="0"/>
        <pt x="598" y="280" on="1"/>
        <pt x="598" y="147" on="0"/>
        <pt x="452" y="-8" on="0"/>
        <pt x="327" y="-8" on="1"/>
        <pt x="202" y="-8" on="0"/>
        <pt x="56" y="147" on="0"/>
      </contour>
      <contour>
        <pt x="548" y="280" on="1"/>
        <pt x="548" y="395" on="0"/>
        <pt x="429" y="525" on="0"/>
        <pt x="327" y="525" on="1"/>
        <pt x="226" y="525" on="0"/>
        <pt x="106" y="395" on="0"/>
        <pt x="106" y="280" on="1"/>
        <pt x="106" y="165" on="0"/>
        <pt x="226" y="35" on="0"/>
        <pt x="327" y="35" on="1"/>
        <pt x="429" y="35" on="0"/>
        <pt x="548" y="165" on="0"/>
      </contour>
    </TTGlyph>
    <TTGlyph name="uni0072" xMin="89" yMin="0" xMax="362" yMax="510">
      <contour>
        <pt x="139" y="280" on="1"/>
        <pt x="139" y="0" on="1"/>
        <pt x="89" y="0" on="1"/>
        <pt x="89" y="500" on="1"/>
        <pt x="131" y="500" on="1"/>
        <pt x="137" y="397" on="1"/>
        <pt x="157" y="449" on="0"/>
        <pt x="240" y="510" on="0"/>
        <pt x="299" y="510" on="1"/>
        <pt x="339" y="510" on="0"/>
        <pt x="362" y="493" on="1"/>
        <pt x="349" y="446" on="1"/>
        <pt x="326" y="464" on="0"/>
        <pt x="285" y="464" on="1"/>
        <pt x="229" y="464" on="0"/>
        <pt x="139" y="361" on="0"/>
      </contour>
    </TTGlyph>
    <TTGlyph name="uni0072.sc" xMin="92" yMin="0" xMax="539" yMax="560">
      <contour>
        <pt x="314" y="517" on="1"/>
        <pt x="142" y="517" on="1"/>
        <pt x="142" y="283" on="1"/>
        <pt x="314" y="283" on="1"/>
        <pt x="458" y="283" on="0"/>
        <pt x="458" y="400" on="1"/>
        <pt x="458" y="517" on="0"/>
      </contour>
      <contour>
        <pt x="315" y="240" on="1"/>
        <pt x="142" y="240" on="1"/>
        <pt x="142" y="0" on="1"/>
        <pt x="92" y="0" on="1"/>
        <pt x="92" y="560" on="1"/>
        <pt x="315" y="560" on="1"/>
        <pt x="404" y="560" on="0"/>
        <pt x="508" y="475" on="0"/>
        <pt x="508" y="400" on="1"/>
        <pt x="508" y="271" on="0"/>
        <pt x="371" y="245" on="1"/>
        <pt x="539" y="0" on="1"/>
        <pt x="480" y="0" on="1"/>
        <pt x="318" y="240" on="1"/>
      </contour>
    </TTGlyph>
    <TTGlyph name="uni0072.sc.ss03" xMin="92" yMin="0" xMax="517" yMax="560">
      <contour>
        <pt x="142" y="517" on="1"/>
        <pt x="142" y="283" on="1"/>
        <pt x="312" y="283" on="1"/>
        <pt x="458" y="283" on="0"/>
        <pt x="458" y="400" on="1"/>
        <pt x="458" y="517" on="0"/>
        <pt x="312" y="517" on="1"/>
      </contour>
      <contour>
        <pt x="142" y="0" on="1"/>
        <pt x="92" y="0" on="1"/>
        <pt x="92" y="560" on="1"/>
        <pt x="315" y="560" on="1"/>
        <pt x="404" y="560" on="0"/>
        <pt x="508" y="475" on="0"/>
        <pt x="508" y="401" on="1"/>
        <pt x="508" y="342" on="0"/>
        <pt x="441" y="268" on="0"/>
        <pt x="382" y="257" on="1"/>
        <pt x="382" y="256" on="1"/>
        <pt x="487" y="240" on="0"/>
        <pt x="492" y="138" on="1"/>
        <pt x="495" y="59" on="0"/>
        <pt x="510" y="14" on="0"/>
        <pt x="517" y="3" on="1"/>
        <pt x="517" y="0" on="1"/>
        <pt x="464" y="0" on="1"/>
        <pt x="458" y="13" on="0"/>
        <pt x="446" y="65" on="0"/>
        <pt x="443" y="132" on="1"/>
        <pt x="438" y="240" on="0"/>
        <pt x="303" y="240" on="1"/>
        <pt x="142" y="240" on="1"/>
      </contour>
    </TTGlyph>
    <TTGlyph name="uni0072.swsh" xMin="89" yMin="0" xMax="473" yMax="510">
      <contour>
        <pt x="139" y="300" on="1"/>
        <pt x="139" y="0" on="1"/>
        <pt x="89" y="0" on="1"/>
        <pt x="89" y="500" on="1"/>
        <pt x="131" y="500" on="1"/>
        <pt x="137" y="411" on="1"/>
        <pt x="175" y="510" on="0"/>
        <pt x="280" y="510" on="1"/>
        <pt x="329" y="510" on="0"/>
        <pt x="383" y="481" on="0"/>
        <pt x="432" y="448" on="0"/>
        <pt x="473" y="442" on="1"/>
        <pt x="446" y="405" on="1"/>
        <pt x="409" y="412" on="0"/>
        <pt x="364" y="440" on="0"/>
        <pt x="319" y="464" on="0"/>
        <pt x="282" y="464" on="1"/>
        <pt x="225" y="464" on="0"/>
        <pt x="140" y="383" on="0"/>
      </contour>
    </TTGlyph>
    <TTGlyph name="uni0073" xMin="43" yMin="-10" xMax="453" yMax="510">
      <contour>
        <pt x="453" y="131" on="1"/>
        <pt x="453" y="67" on="0"/>
        <pt x="345" y="-10" on="0"/>
        <pt x="252" y="-10" on="1"/>
        <pt x="179" y="-10" on="0"/>
        <pt x="65" y="48" on="0"/>
        <pt x="43" y="107" on="1"/>
        <pt x="84" y="134" on="1"/>
        <pt x="100" y="83" on="0"/>
        <pt x="194" y="34" on="0"/>
        <pt x="258" y="34" on="1"/>
        <pt x="328" y="34" on="0"/>
        <pt x="403" y="87" on="0"/>
        <pt x="403" y="129" on="1"/>
        <pt x="403" y="165" on="0"/>
        <pt x="340" y="210" on="0"/>
        <pt x="254" y="225" on="1"/>
        <pt x="148" y="244" on="0"/>
        <pt x="63" y="308" on="0"/>
        <pt x="63" y="367" on="1"/>
        <pt x="63" y="426" on="0"/>
        <pt x="169" y="510" on="0"/>
        <pt x="255" y="510" on="1"/>
        <pt x="412" y="510" on="0"/>
        <pt x="447" y="388" on="1"/>
        <pt x="404" y="363" on="1"/>
        <pt x="376" y="466" on="0"/>
        <pt x="255" y="466" on="1"/>
        <pt x="194" y="466" on="0"/>
        <pt x="113" y="410" on="0"/>
        <pt x="113" y="372" on="1"/>
        <pt x="113" y="332" on="0"/>
        <pt x="180" y="285" on="0"/>
        <pt x="267" y="270" on="1"/>
        <pt x="371" y="253" on="0"/>
        <pt x="453" y="189" on="0"/>
      </contour>
    </TTGlyph>
    <TTGlyph name="uni0073.sc" xMin="42" yMin="-8" xMax="507" yMax="568">
      <contour>
        <pt x="61" y="408" on="1"/>
        <pt x="61" y="473" on="0"/>
        <pt x="176" y="568" on="0"/>
        <pt x="277" y="568" on="1"/>
        <pt x="443" y="568" on="0"/>
        <pt x="500" y="446" on="1"/>
        <pt x="461" y="413" on="1"/>
        <pt x="418" y="525" on="0"/>
        <pt x="278" y="525" on="1"/>
        <pt x="201" y="525" on="0"/>
        <pt x="111" y="459" on="0"/>
        <pt x="111" y="412" on="1"/>
        <pt x="111" y="362" on="0"/>
        <pt x="191" y="317" on="0"/>
        <pt x="309" y="296" on="0"/>
        <pt x="427" y="270" on="0"/>
        <pt x="507" y="209" on="0"/>
        <pt x="507" y="145" on="1"/>
        <pt x="507" y="76" on="0"/>
        <pt x="384" y="-8" on="0"/>
        <pt x="286" y="-8" on="1"/>
        <pt x="90" y="-8" on="0"/>
        <pt x="42" y="124" on="1"/>
        <pt x="81" y="157" on="1"/>
        <pt x="99" y="96" on="0"/>
        <pt x="207" y="35" on="0"/>
        <pt x="286" y="35" on="1"/>
        <pt x="360" y="35" on="0"/>
        <pt x="457" y="90" on="0"/>
        <pt x="457" y="142" on="1"/>
        <pt x="457" y="192" on="0"/>
        <pt x="377" y="235" on="0"/>
        <pt x="259" y="256" on="0"/>
        <pt x="141" y="282" on="0"/>
        <pt x="61" y="344" on="0"/>
      </contour>
    </TTGlyph>
    <TTGlyph name="uni00730074" xMin="43" yMin="-10" xMax="812" yMax="733">
      <contour>
        <pt x="699" y="-10" on="1"/>
        <pt x="641" y="-10" on="0"/>
        <pt x="569" y="55" on="0"/>
        <pt x="569" y="125" on="1"/>
        <pt x="569" y="561" on="1"/>
        <pt x="569" y="629" on="0"/>
        <pt x="519" y="690" on="0"/>
        <pt x="477" y="690" on="1"/>
        <pt x="390" y="690" on="0"/>
        <pt x="390" y="576" on="1"/>
        <pt x="390" y="540" on="0"/>
        <pt x="415" y="451" on="0"/>
        <pt x="449" y="389" on="1"/>
        <pt x="407" y="369" on="1"/>
        <pt x="377" y="466" on="0"/>
        <pt x="255" y="466" on="1"/>
        <pt x="194" y="466" on="0"/>
        <pt x="113" y="410" on="0"/>
        <pt x="113" y="372" on="1"/>
        <pt x="113" y="332" on="0"/>
        <pt x="180" y="286" on="0"/>
        <pt x="267" y="270" on="1"/>
        <pt x="371" y="253" on="0"/>
        <pt x="453" y="189" on="0"/>
        <pt x="453" y="131" on="1"/>
        <pt x="453" y="67" on="0"/>
        <pt x="345" y="-10" on="0"/>
        <pt x="252" y="-10" on="1"/>
        <pt x="179" y="-10" on="0"/>
        <pt x="65" y="48" on="0"/>
        <pt x="43" y="107" on="1"/>
        <pt x="84" y="134" on="1"/>
        <pt x="100" y="83" on="0"/>
        <pt x="194" y="34" on="0"/>
        <pt x="258" y="34" on="1"/>
        <pt x="328" y="34" on="0"/>
        <pt x="403" y="87" on="0"/>
        <pt x="403" y="129" on="1"/>
        <pt x="403" y="165" on="0"/>
        <pt x="340" y="209" on="0"/>
        <pt x="254" y="224" on="1"/>
        <pt x="148" y="243" on="0"/>
        <pt x="63" y="309" on="0"/>
        <pt x="63" y="367" on="1"/>
        <pt x="63" y="426" on="0"/>
        <pt x="169" y="510" on="0"/>
        <pt x="255" y="510" on="1"/>
        <pt x="325" y="510" on="0"/>
        <pt x="368" y="486" on="1"/>
        <pt x="357" y="508" on="0"/>
        <pt x="343" y="555" on="0"/>
        <pt x="343" y="576" on="1"/>
        <pt x="343" y="656" on="0"/>
        <pt x="419" y="733" on="0"/>
        <pt x="480" y="733" on="1"/>
        <pt x="540" y="733" on="0"/>
        <pt x="619" y="659" on="0"/>
        <pt x="619" y="582" on="1"/>
        <pt x="619" y="500" on="1"/>
        <pt x="807" y="500" on="1"/>
        <pt x="807" y="457" on="1"/>
        <pt x="619" y="457" on="1"/>
        <pt x="619" y="132" on="1"/>
        <pt x="619" y="36" on="0"/>
        <pt x="707" y="36" on="1"/>
        <pt x="757" y="36" on="0"/>
        <pt x="794" y="73" on="1"/>
        <pt x="812" y="32" on="1"/>
        <pt x="770" y="-10" on="0"/>
      </contour>
    </TTGlyph>
</ttFont>
